font.ufo
<glyph name="exclam" format="1">
  <advance width="369"/>
  <unicode hex="0021"/>
  <outline>
    <contour>
      <point x="283" y="595" type="line"/>
      <point x="390" y="869" type="line"/>
      <point x="350" y="915"/>
      <point x="280" y="926"/>
      <point x="211" y="904" type="curve"/>
      <point x="161" y="492" type="line"/>
      <point x="115" y="252" type="line"/>
      <point x="156" y="220"/>
      <point x="188" y="223"/>
      <point x="207" y="249" type="curve"/>
    </contour>
    <contour>
      <point x="222" y="69" type="curve"/>
      <point x="216" y="116"/>
      <point x="176" y="168"/>
      <point x="142" y="168" type="curve"/>
      <point x="93" y="162"/>
      <point x="46" y="108"/>
      <point x="35" y="57" type="curve"/>
      <point x="38" y="21"/>
      <point x="64" y="-5"/>
      <point x="96" y="-5" type="curve"/>
      <point x="138" y="-5"/>
      <point x="188" y="26"/>
    </contour>
  </outline>
</glyph>
<glyph name="quotedbl" format="1">
  <advance width="371"/>
  <unicode hex="0022"/>
  <outline>
    <contour>
      <point x="118" y="675" type="line"/>
      <point x="140" y="661"/>
      <point x="167" y="659"/>
      <point x="193" y="662" type="curve"/>
      <point x="257" y="820" type="line"/>
      <point x="271" y="904" type="line"/>
      <point x="248" y="917"/>
      <point x="207" y="918"/>
      <point x="164" y="904" type="curve"/>
    </contour>
    <contour>
      <point x="286" y="675" type="line"/>
      <point x="305" y="661"/>
      <point x="330" y="659"/>
      <point x="354" y="662" type="curve"/>
      <point x="424" y="820" type="line"/>
      <point x="436" y="904" type="line"/>
      <point x="414" y="917"/>
      <point x="372" y="918"/>
      <point x="330" y="904" type="curve"/>
    </contour>
  </outline>
</glyph>
<glyph name="numbersign" format="1">
  <advance width="791"/>
  <unicode hex="0023"/>
  <outline>
    <contour>
      <point x="384" y="613" type="line"/>
      <point x="464" y="845" type="line"/>
      <point x="425" y="879"/>
      <point x="358" y="881"/>
      <point x="305" y="868" type="curve"/>
      <point x="225" y="440" type="line"/>
      <point x="125" y="-1" type="line"/>
      <point x="164" y="-35"/>
      <point x="229" y="-39"/>
      <point x="269" y="-27" type="curve"/>
      <point x="303" y="268" type="line"/>
    </contour>
    <contour>
      <point x="665" y="613" type="line"/>
      <point x="745" y="845" type="line"/>
      <point x="706" y="879"/>
      <point x="639" y="881"/>
      <point x="587" y="868" type="curve"/>
      <point x="506" y="446" type="line"/>
      <point x="406" y="-1" type="line"/>
      <point x="445" y="-35"/>
      <point x="510" y="-39"/>
      <point x="551" y="-27" type="curve"/>
      <point x="584" y="268" type="line"/>
    </contour>
    <contour>
      <point x="394" y="286" type="line"/>
      <point x="60" y="294" type="line"/>
      <point x="41" y="262"/>
      <point x="38" y="239"/>
      <point x="54" y="221" type="curve"/>
      <point x="723" y="231" type="line"/>
      <point x="748" y="267"/>
      <point x="750" y="296"/>
      <point x="732" y="308" type="curve"/>
    </contour>
    <contour>
      <point x="456" y="607" type="line"/>
      <point x="110" y="615" type="line"/>
      <point x="92" y="582"/>
      <point x="89" y="560"/>
      <point x="107" y="542" type="curve"/>
      <point x="786" y="552" type="line"/>
      <point x="810" y="589"/>
      <point x="812" y="616"/>
      <point x="795" y="628" type="curve"/>
    </contour>
  </outline>
</glyph>
<glyph name="dollar" format="1">
  <advance width="635"/>
  <unicode hex="0024"/>
  <outline>
    <contour>
      <point x="270" y="123" type="line"/>
      <point x="199" y="-93" type="line"/>
      <point x="214" y="-124"/>
      <point x="241" y="-138"/>
      <point x="274" y="-130" type="curve"/>
      <point x="404" y="636" type="line"/>
      <point x="479" y="838" type="line"/>
      <point x="465" y="868"/>
      <point x="441" y="879"/>
      <point x="407" y="868" type="curve"/>
    </contour>
    <component base="S"/>
  </outline>
</glyph>
<glyph name="percent" format="1">
  <advance width="799"/>
  <unicode hex="0025"/>
  <outline>
    <contour>
      <point x="241" y="746" type="curve" smooth="yes"/>
      <point x="158" y="746"/>
      <point x="97" y="657"/>
      <point x="77" y="533" type="curve" smooth="yes"/>
      <point x="54" y="392"/>
      <point x="127" y="320"/>
      <point x="195" y="320" type="curve" smooth="yes"/>
      <point x="289" y="320"/>
      <point x="357" y="402"/>
      <point x="377" y="537" type="curve" smooth="yes"/>
      <point x="396" y="654"/>
      <point x="331" y="745"/>
    </contour>
    <contour>
      <point x="240" y="685" type="curve"/>
      <point x="257" y="682"/>
      <point x="272" y="672"/>
      <point x="280" y="656" type="curve"/>
      <point x="284" y="628"/>
      <point x="282" y="587"/>
      <point x="272" y="532" type="curve" smooth="yes"/>
      <point x="258" y="459"/>
      <point x="237" y="403"/>
      <point x="212" y="375" type="curve"/>
      <point x="194" y="382"/>
      <point x="178" y="395"/>
      <point x="169" y="414" type="curve"/>
      <point x="168" y="444"/>
      <point x="170" y="479"/>
      <point x="181" y="534" type="curve" smooth="yes"/>
      <point x="194" y="602"/>
      <point x="211" y="649"/>
    </contour>
    <contour>
      <point x="622" y="416" type="curve" smooth="yes"/>
      <point x="539" y="416"/>
      <point x="479" y="327"/>
      <point x="459" y="203" type="curve" smooth="yes"/>
      <point x="435" y="63"/>
      <point x="509" y="-9"/>
      <point x="576" y="-9" type="curve" smooth="yes"/>
      <point x="670" y="-9"/>
      <point x="738" y="72"/>
      <point x="759" y="207" type="curve" smooth="yes"/>
      <point x="777" y="325"/>
      <point x="713" y="415"/>
    </contour>
    <contour>
      <point x="621" y="355" type="curve"/>
      <point x="638" y="352"/>
      <point x="654" y="342"/>
      <point x="662" y="326" type="curve"/>
      <point x="665" y="298"/>
      <point x="663" y="258"/>
      <point x="654" y="202" type="curve" smooth="yes"/>
      <point x="640" y="129"/>
      <point x="618" y="73"/>
      <point x="594" y="45" type="curve"/>
      <point x="575" y="53"/>
      <point x="559" y="66"/>
      <point x="551" y="84" type="curve"/>
      <point x="549" y="115"/>
      <point x="551" y="148"/>
      <point x="562" y="205" type="curve" smooth="yes"/>
      <point x="575" y="273"/>
      <point x="592" y="320"/>
    </contour>
    <component base="fraction" xOffset="121"/>
  </outline>
</glyph>
<glyph name="ampersand" format="1">
  <advance width="668"/>
  <unicode hex="0026"/>
  <outline>
    <contour>
      <point x="611" y="173" type="curve"/>
      <point x="628" y="232"/>
      <point x="596" y="279"/>
      <point x="535" y="267" type="curve"/>
      <point x="484" y="213"/>
      <point x="424" y="172"/>
      <point x="335" y="140" type="curve"/>
      <point x="285" y="159"/>
      <point x="241" y="191"/>
      <point x="228" y="236" type="curve"/>
      <point x="286" y="306"/>
      <point x="369" y="335"/>
      <point x="472" y="350" type="curve"/>
      <point x="488" y="396"/>
      <point x="484" y="430"/>
      <point x="445" y="444" type="curve"/>
      <point x="425" y="435"/>
      <point x="396" y="427"/>
      <point x="362" y="423" type="curve"/>
      <point x="314" y="438"/>
      <point x="277" y="459"/>
      <point x="256" y="500" type="curve"/>
      <point x="305" y="555"/>
      <point x="360" y="598"/>
      <point x="454" y="605" type="curve"/>
      <point x="517" y="517" type="line"/>
      <point x="599" y="536"/>
      <point x="620" y="562"/>
      <point x="606" y="613" type="curve"/>
      <point x="570" y="649"/>
      <point x="520" y="683"/>
      <point x="447" y="683" type="curve" smooth="yes"/>
      <point x="303" y="683"/>
      <point x="170" y="612"/>
      <point x="104" y="499" type="curve"/>
      <point x="117" y="441"/>
      <point x="186" y="394"/>
      <point x="276" y="383" type="curve"/>
      <point x="182" y="360"/>
      <point x="121" y="307"/>
      <point x="81" y="222" type="curve"/>
      <point x="109" y="144"/>
      <point x="188" y="86"/>
      <point x="320" y="59" type="curve"/>
      <point x="456" y="82"/>
      <point x="527" y="117"/>
    </contour>
    <contour>
      <point x="481" y="738" type="curve"/>
      <point x="530" y="918" type="line"/>
      <point x="491" y="951"/>
      <point x="451" y="948"/>
      <point x="384" y="911" type="curve"/>
      <point x="385" y="749" type="line"/>
      <point x="404" y="728"/>
      <point x="436" y="727"/>
    </contour>
    <contour>
      <point x="292" y="-1" type="curve"/>
      <point x="243" y="-180" type="line"/>
      <point x="282" y="-213"/>
      <point x="322" y="-210"/>
      <point x="388" y="-173" type="curve"/>
      <point x="387" y="-11" type="line"/>
      <point x="368" y="10"/>
      <point x="336" y="11"/>
    </contour>
  </outline>
</glyph>
<glyph name="quotesingle" format="1">
  <advance width="200"/>
  <unicode hex="0027"/>
  <outline>
    <contour>
      <point x="114" y="675" type="line"/>
      <point x="136" y="661"/>
      <point x="163" y="659"/>
      <point x="188" y="662" type="curve"/>
      <point x="253" y="820" type="line"/>
      <point x="267" y="904" type="line"/>
      <point x="243" y="917"/>
      <point x="202" y="918"/>
      <point x="160" y="904" type="curve"/>
    </contour>
  </outline>
</glyph>
<glyph name="parenleft" format="1">
  <advance width="561"/>
  <unicode hex="0028"/>
  <outline>
    <contour>
      <point x="460" y="738" type="curve"/>
      <point x="600" y="840" type="line"/>
      <point x="596" y="874"/>
      <point x="570" y="899"/>
      <point x="529" y="896" type="curve"/>
      <point x="339" y="789"/>
      <point x="198" y="609"/>
      <point x="178" y="377" type="curve" smooth="yes"/>
      <point x="161" y="178"/>
      <point x="254" y="19"/>
      <point x="354" y="-79" type="curve"/>
      <point x="391" y="-86"/>
      <point x="421" y="-70"/>
      <point x="437" y="-45" type="curve"/>
      <point x="346" y="70"/>
      <point x="308" y="181"/>
      <point x="326" y="366" type="curve" smooth="yes"/>
      <point x="338" y="491"/>
      <point x="384" y="636"/>
    </contour>
  </outline>
</glyph>
<glyph name="parenright" format="1">
  <advance width="561"/>
  <unicode hex="0029"/>
  <outline>
    <contour>
      <point x="80" y="-81" type="curve"/>
      <point x="270" y="27"/>
      <point x="411" y="208"/>
      <point x="431" y="438" type="curve" smooth="yes"/>
      <point x="449" y="637"/>
      <point x="355" y="797"/>
      <point x="255" y="896" type="curve"/>
      <point x="217" y="901"/>
      <point x="188" y="886"/>
      <point x="172" y="860" type="curve"/>
      <point x="263" y="746"/>
      <point x="302" y="635"/>
      <point x="283" y="449" type="curve" smooth="yes"/>
      <point x="271" y="326"/>
      <point x="225" y="180"/>
      <point x="149" y="77" type="curve"/>
      <point x="9" y="-25" type="line"/>
      <point x="13" y="-58"/>
      <point x="39" y="-84"/>
    </contour>
  </outline>
</glyph>
<glyph name="asterisk" format="1">
  <advance width="385"/>
  <unicode hex="002A"/>
  <outline>
    <contour>
      <point x="292" y="771" type="line"/>
      <point x="431" y="749" type="line"/>
      <point x="442" y="771"/>
      <point x="445" y="794"/>
      <point x="439" y="816" type="curve"/>
      <point x="294" y="794" type="line"/>
      <point x="333" y="935" type="line"/>
      <point x="312" y="941"/>
      <point x="289" y="941"/>
      <point x="266" y="935" type="curve"/>
      <point x="272" y="794" type="line"/>
      <point x="133" y="816" type="line"/>
      <point x="122" y="793"/>
      <point x="120" y="771"/>
      <point x="125" y="749" type="curve"/>
      <point x="270" y="771" type="line"/>
      <point x="232" y="630" type="line"/>
      <point x="255" y="623"/>
      <point x="278" y="623"/>
      <point x="298" y="630" type="curve"/>
    </contour>
    <contour>
      <point x="299" y="783" type="line"/>
      <point x="423" y="867" type="line"/>
      <point x="415" y="888"/>
      <point x="402" y="903"/>
      <point x="381" y="914" type="curve"/>
      <point x="284" y="799" type="line"/>
      <point x="212" y="914" type="line"/>
      <point x="189" y="904"/>
      <point x="173" y="889"/>
      <point x="160" y="867" type="curve"/>
      <point x="266" y="783" type="line"/>
      <point x="141" y="698" type="line"/>
      <point x="150" y="676"/>
      <point x="164" y="661"/>
      <point x="183" y="651" type="curve"/>
      <point x="280" y="766" type="line"/>
      <point x="352" y="651" type="line"/>
      <point x="376" y="660"/>
      <point x="393" y="674"/>
      <point x="405" y="698" type="curve"/>
    </contour>
  </outline>
</glyph>
<glyph name="plus" format="1">
  <advance width="716"/>
  <unicode hex="002B"/>
  <outline>
    <contour>
      <point x="408" y="372" type="line"/>
      <point x="448" y="579" type="line"/>
      <point x="420" y="615"/>
      <point x="383" y="626"/>
      <point x="369" y="612" type="curve"/>
      <point x="334" y="370" type="line"/>
      <point x="109" y="378" type="line"/>
      <point x="85" y="348"/>
      <point x="81" y="316"/>
      <point x="95" y="298" type="curve"/>
      <point x="321" y="299" type="line"/>
      <point x="272" y="84" type="line"/>
      <point x="297" y="56"/>
      <point x="329" y="45"/>
      <point x="347" y="57" type="curve"/>
      <point x="394" y="299" type="line"/>
      <point x="627" y="298" type="line"/>
      <point x="656" y="333"/>
      <point x="661" y="371"/>
      <point x="645" y="382" type="curve"/>
    </contour>
  </outline>
</glyph>
<glyph name="comma" format="1">
  <advance width="257"/>
  <unicode hex="002C"/>
  <outline>
    <contour>
      <point x="178" y="52" type="curve"/>
      <point x="167" y="105"/>
      <point x="105" y="159"/>
      <point x="26" y="115" type="curve"/>
      <point x="24" y="-40" type="line"/>
      <point x="-55" y="-125" type="line"/>
      <point x="-49" y="-145"/>
      <point x="-31" y="-157"/>
      <point x="-5" y="-162" type="curve"/>
      <point x="86" y="-111"/>
      <point x="157" y="-31"/>
    </contour>
  </outline>
</glyph>
<glyph name="hyphen" format="1">
  <advance width="538"/>
  <unicode hex="002D"/>
  <outline>
    <contour>
      <point x="492" y="382" type="curve"/>
      <point x="269" y="364" type="line"/>
      <point x="79" y="369" type="line"/>
      <point x="57" y="338"/>
      <point x="52" y="305"/>
      <point x="66" y="289" type="curve"/>
      <point x="476" y="298" type="line"/>
      <point x="505" y="332"/>
      <point x="510" y="371"/>
    </contour>
  </outline>
</glyph>
<glyph name="period" format="1">
  <advance width="270"/>
  <unicode hex="002E"/>
  <outline>
    <contour>
      <point x="67" y="0" type="curve"/>
      <point x="108" y="0"/>
      <point x="155" y="29"/>
      <point x="185" y="72" type="curve"/>
      <point x="179" y="116"/>
      <point x="139" y="167"/>
      <point x="106" y="167" type="curve"/>
      <point x="59" y="161"/>
      <point x="15" y="110"/>
      <point x="7" y="59" type="curve"/>
      <point x="10" y="24"/>
      <point x="36" y="0"/>
    </contour>
  </outline>
</glyph>
<glyph name="zero" format="1">
  <advance width="608"/>
  <unicode hex="0030"/>
  <outline>
    <contour>
      <point x="349" y="737" type="curve" smooth="yes"/>
      <point x="205" y="738"/>
      <point x="100" y="582"/>
      <point x="64" y="367" type="curve" smooth="yes"/>
      <point x="24" y="122"/>
      <point x="152" y="-2"/>
      <point x="269" y="-2" type="curve" smooth="yes"/>
      <point x="431" y="-2"/>
      <point x="548" y="139"/>
      <point x="585" y="373" type="curve" smooth="yes"/>
      <point x="616" y="579"/>
      <point x="507" y="736"/>
    </contour>
    <contour>
      <point x="346" y="663" type="curve"/>
      <point x="383" y="655"/>
      <point x="418" y="636"/>
      <point x="437" y="606" type="curve"/>
      <point x="447" y="550"/>
      <point x="446" y="472"/>
      <point x="426" y="366" type="curve" smooth="yes"/>
      <point x="401" y="225"/>
      <point x="356" y="118"/>
      <point x="300" y="63" type="curve"/>
      <point x="260" y="77"/>
      <point x="222" y="102"/>
      <point x="203" y="138" type="curve"/>
      <point x="197" y="197"/>
      <point x="201" y="262"/>
      <point x="221" y="370" type="curve" smooth="yes"/>
      <point x="246" y="503"/>
      <point x="283" y="592"/>
    </contour>
  </outline>
</glyph>
<glyph name="one" format="1">
  <advance width="366"/>
  <unicode hex="0031"/>
  <outline>
    <contour>
      <point x="315" y="536" type="line"/>
      <point x="377" y="702" type="line"/>
      <point x="333" y="751"/>
      <point x="248" y="761"/>
      <point x="174" y="744" type="curve"/>
      <point x="69" y="556" type="line"/>
      <point x="83" y="533"/>
      <point x="109" y="524"/>
      <point x="138" y="530" type="curve"/>
      <point x="198" y="612" type="line"/>
      <point x="213" y="604" type="line"/>
      <point x="181" y="536" type="line"/>
      <point x="67" y="25" type="line"/>
      <point x="117" y="-5"/>
      <point x="159" y="-11"/>
      <point x="223" y="-1" type="curve"/>
      <point x="237" y="179" type="line"/>
    </contour>
  </outline>
</glyph>
<glyph name="two" format="1">
  <advance width="526"/>
  <unicode hex="0032"/>
  <outline>
    <contour>
      <point x="367" y="276" type="line"/>
      <point x="459" y="352"/>
      <point x="510" y="420"/>
      <point x="510" y="484" type="curve" smooth="yes"/>
      <point x="510" y="600"/>
      <point x="400" y="759"/>
      <point x="297" y="759" type="curve" smooth="yes"/>
      <point x="207" y="759"/>
      <point x="113" y="690"/>
      <point x="63" y="592" type="curve"/>
      <point x="86" y="551"/>
      <point x="126" y="506"/>
      <point x="159" y="478" type="curve"/>
      <point x="176" y="481"/>
      <point x="211" y="497"/>
      <point x="221" y="514" type="curve"/>
      <point x="190" y="582" type="line"/>
      <point x="218" y="621"/>
      <point x="257" y="647"/>
      <point x="294" y="647" type="curve" smooth="yes"/>
      <point x="345" y="647"/>
      <point x="383" y="591"/>
      <point x="401" y="515" type="curve"/>
      <point x="373" y="459"/>
      <point x="340" y="417"/>
      <point x="287" y="369" type="curve" smooth="yes"/>
      <point x="6" y="116" type="line"/>
      <point x="3" y="64"/>
      <point x="39" y="20"/>
      <point x="75" y="-2" type="curve"/>
      <point x="165" y="17" type="line"/>
      <point x="429" y="-14" type="line"/>
      <point x="471" y="40"/>
      <point x="489" y="93"/>
      <point x="467" y="125" type="curve"/>
      <point x="162" y="92" type="line"/>
      <point x="154" y="99" type="line"/>
    </contour>
  </outline>
</glyph>
<glyph name="three" format="1">
  <advance width="554"/>
  <unicode hex="0033"/>
  <outline>
    <contour>
      <point x="439" y="432" type="line"/>
      <point x="508" y="464"/>
      <point x="535" y="495"/>
      <point x="536" y="542" type="curve" smooth="yes"/>
      <point x="537" y="644"/>
      <point x="408" y="759"/>
      <point x="299" y="759" type="curve" smooth="yes"/>
      <point x="198" y="759"/>
      <point x="105" y="690"/>
      <point x="52" y="592" type="curve"/>
      <point x="74" y="551"/>
      <point x="114" y="506"/>
      <point x="147" y="478" type="curve"/>
      <point x="164" y="481"/>
      <point x="199" y="497"/>
      <point x="209" y="514" type="curve"/>
      <point x="178" y="583" type="line"/>
      <point x="203" y="611"/>
      <point x="240" y="636"/>
      <point x="285" y="636" type="curve" smooth="yes"/>
      <point x="334" y="636"/>
      <point x="394" y="591"/>
      <point x="408" y="521" type="curve"/>
      <point x="222" y="390" type="line"/>
      <point x="211" y="339" type="line"/>
      <point x="315" y="305"/>
      <point x="373" y="270"/>
      <point x="396" y="225" type="curve"/>
      <point x="320" y="163"/>
      <point x="219" y="126"/>
      <point x="26" y="90" type="curve"/>
      <point x="18" y="63"/>
      <point x="27" y="21"/>
      <point x="59" y="-2" type="curve"/>
      <point x="310" y="19"/>
      <point x="517" y="100"/>
      <point x="526" y="217" type="curve" smooth="yes"/>
      <point x="535" y="313"/>
      <point x="415" y="364"/>
      <point x="303" y="400" type="curve"/>
      <point x="285" y="361" type="line"/>
    </contour>
  </outline>
</glyph>
<glyph name="four" format="1">
  <advance width="610"/>
  <unicode hex="0034"/>
  <outline>
    <contour>
      <point x="601" y="679" type="line"/>
      <point x="567" y="725"/>
      <point x="516" y="749"/>
      <point x="444" y="749" type="curve" smooth="yes"/>
      <point x="424" y="749"/>
      <point x="402" y="747"/>
      <point x="377" y="742" type="curve"/>
      <point x="15" y="256" type="line"/>
      <point x="15" y="222"/>
      <point x="28" y="196"/>
      <point x="54" y="178" type="curve"/>
      <point x="303" y="189" type="line"/>
      <point x="578" y="177" type="line"/>
      <point x="601" y="200"/>
      <point x="608" y="242"/>
      <point x="595" y="271" type="curve"/>
      <point x="250" y="257" type="line"/>
      <point x="172" y="258" type="line"/>
      <point x="339" y="506" type="line"/>
      <point x="449" y="665" type="line"/>
      <point x="461" y="660" type="line"/>
      <point x="380" y="386" type="line"/>
      <point x="296" y="26" type="line"/>
      <point x="338" y="-7"/>
      <point x="406" y="-13"/>
      <point x="453" y="-1" type="curve"/>
      <point x="468" y="190" type="line"/>
      <point x="540" y="527" type="line"/>
    </contour>
  </outline>
</glyph>
<glyph name="five" format="1">
  <advance width="551"/>
  <unicode hex="0035"/>
  <outline>
    <contour>
      <point x="281" y="715" type="line"/>
      <point x="198" y="738" type="line" smooth="yes"/>
      <point x="161" y="724"/>
      <point x="142" y="703"/>
      <point x="131" y="632" type="curve" smooth="yes"/>
      <point x="104" y="490" type="line" smooth="yes"/>
      <point x="94" y="421"/>
      <point x="114" y="389"/>
      <point x="176" y="372" type="curve" smooth="yes"/>
      <point x="275" y="350" type="line" smooth="yes"/>
      <point x="346" y="333"/>
      <point x="373" y="310"/>
      <point x="389" y="270" type="curve"/>
      <point x="374" y="198"/>
      <point x="338" y="139"/>
      <point x="276" y="94" type="curve"/>
      <point x="82" y="182" type="line"/>
      <point x="47" y="169"/>
      <point x="23" y="119"/>
      <point x="29" y="42" type="curve"/>
      <point x="92" y="12"/>
      <point x="160" y="-3"/>
      <point x="221" y="-3" type="curve" smooth="yes"/>
      <point x="353" y="-3"/>
      <point x="491" y="154"/>
      <point x="497" y="286" type="curve" smooth="yes"/>
      <point x="501" y="382"/>
      <point x="446" y="432"/>
      <point x="309" y="447" type="curve" smooth="yes"/>
      <point x="201" y="457" type="line"/>
      <point x="280" y="642" type="line"/>
      <point x="520" y="619" type="line"/>
      <point x="545" y="649"/>
      <point x="561" y="700"/>
      <point x="512" y="757" type="curve" smooth="yes"/>
    </contour>
  </outline>
</glyph>
<glyph name="six" format="1">
  <advance width="601"/>
  <unicode hex="0036"/>
  <outline>
    <contour>
      <point x="561" y="747" type="curve"/>
      <point x="285" y="753"/>
      <point x="90" y="610"/>
      <point x="51" y="345" type="curve" smooth="yes"/>
      <point x="15" y="95"/>
      <point x="161" y="-5"/>
      <point x="282" y="-3" type="curve" smooth="yes"/>
      <point x="407" y="-1"/>
      <point x="547" y="166"/>
      <point x="568" y="305" type="curve" smooth="yes"/>
      <point x="587" y="428"/>
      <point x="535" y="489"/>
      <point x="441" y="489" type="curve" smooth="yes"/>
      <point x="334" y="489"/>
      <point x="219" y="356"/>
      <point x="159" y="104" type="curve"/>
      <point x="207" y="107" type="line"/>
      <point x="237" y="214"/>
      <point x="309" y="339"/>
      <point x="383" y="386" type="curve"/>
      <point x="434" y="381"/>
      <point x="437" y="331"/>
      <point x="424" y="269" type="curve" smooth="yes"/>
      <point x="410" y="197"/>
      <point x="337" y="94"/>
      <point x="287" y="91" type="curve" smooth="yes"/>
      <point x="212" y="89"/>
      <point x="163" y="159"/>
      <point x="179" y="291" type="curve"/>
      <point x="199" y="443"/>
      <point x="238" y="516"/>
      <point x="312" y="604" type="curve"/>
      <point x="378" y="630"/>
      <point x="467" y="638"/>
      <point x="555" y="631" type="curve"/>
      <point x="582" y="676"/>
      <point x="587" y="727"/>
    </contour>
  </outline>
</glyph>
<glyph name="seven" format="1">
  <advance width="519"/>
  <unicode hex="0037"/>
  <outline>
    <contour>
      <point x="485" y="740" type="curve"/>
      <point x="403" y="716" type="line"/>
      <point x="118" y="752" type="line"/>
      <point x="73" y="706"/>
      <point x="56" y="646"/>
      <point x="79" y="615" type="curve"/>
      <point x="401" y="629" type="line"/>
      <point x="408" y="620" type="line"/>
      <point x="315" y="495" type="line"/>
      <point x="66" y="25" type="line"/>
      <point x="92" y="-5"/>
      <point x="146" y="-15"/>
      <point x="189" y="2" type="curve"/>
      <point x="540" y="616" type="line" smooth="yes"/>
      <point x="576" y="679"/>
      <point x="534" y="720"/>
    </contour>
  </outline>
</glyph>
<glyph name="eight" format="1">
  <advance width="586"/>
  <unicode hex="0038"/>
  <outline>
    <contour>
      <point x="379" y="388" type="line"/>
      <point x="523" y="471"/>
      <point x="594" y="518"/>
      <point x="594" y="588" type="curve" smooth="yes"/>
      <point x="592" y="664"/>
      <point x="506" y="754"/>
      <point x="411" y="758" type="curve" smooth="yes"/>
      <point x="272" y="761"/>
      <point x="110" y="663"/>
      <point x="105" y="539" type="curve" smooth="yes"/>
      <point x="98" y="394"/>
      <point x="400" y="321"/>
      <point x="412" y="195" type="curve"/>
      <point x="397" y="156"/>
      <point x="370" y="113"/>
      <point x="333" y="86" type="curve"/>
      <point x="234" y="79"/>
      <point x="187" y="116"/>
      <point x="179" y="188" type="curve"/>
      <point x="215" y="243"/>
      <point x="262" y="295"/>
      <point x="324" y="346" type="curve"/>
      <point x="280" y="388" type="line"/>
      <point x="111" y="290"/>
      <point x="49" y="240"/>
      <point x="43" y="160" type="curve" smooth="yes"/>
      <point x="38" y="72"/>
      <point x="122" y="-1"/>
      <point x="243" y="-4" type="curve" smooth="yes"/>
      <point x="368" y="-10"/>
      <point x="536" y="93"/>
      <point x="540" y="230" type="curve" smooth="yes"/>
      <point x="545" y="401"/>
      <point x="271" y="446"/>
      <point x="245" y="560" type="curve"/>
      <point x="270" y="609"/>
      <point x="326" y="652"/>
      <point x="371" y="671" type="curve"/>
      <point x="425" y="653"/>
      <point x="462" y="612"/>
      <point x="467" y="543" type="curve"/>
      <point x="420" y="494"/>
      <point x="379" y="460"/>
      <point x="329" y="427" type="curve"/>
    </contour>
  </outline>
</glyph>
<glyph name="nine" format="1">
  <advance width="604"/>
  <unicode hex="0039"/>
  <outline>
    <contour>
      <point x="159" y="-12" type="curve"/>
      <point x="418" y="46"/>
      <point x="547" y="181"/>
      <point x="576" y="406" type="curve" smooth="yes"/>
      <point x="605" y="627"/>
      <point x="486" y="757"/>
      <point x="359" y="757" type="curve" smooth="yes"/>
      <point x="222" y="757"/>
      <point x="82" y="599"/>
      <point x="60" y="447" type="curve" smooth="yes"/>
      <point x="42" y="331"/>
      <point x="101" y="263"/>
      <point x="186" y="263" type="curve" smooth="yes"/>
      <point x="293" y="263"/>
      <point x="409" y="396"/>
      <point x="468" y="649" type="curve"/>
      <point x="420" y="646" type="line"/>
      <point x="390" y="538"/>
      <point x="319" y="413"/>
      <point x="245" y="365" type="curve"/>
      <point x="194" y="371"/>
      <point x="194" y="419"/>
      <point x="202" y="470" type="curve" smooth="yes"/>
      <point x="217" y="555"/>
      <point x="297" y="652"/>
      <point x="349" y="660" type="curve"/>
      <point x="406" y="650"/>
      <point x="462" y="591"/>
      <point x="447" y="445" type="curve" smooth="yes"/>
      <point x="438" y="345"/>
      <point x="403" y="243"/>
      <point x="350" y="173" type="curve"/>
      <point x="283" y="132"/>
      <point x="200" y="109"/>
      <point x="111" y="97" type="curve"/>
      <point x="97" y="58"/>
      <point x="129" y="6"/>
    </contour>
  </outline>
</glyph>
<glyph name="colon" format="1">
  <advance width="280"/>
  <unicode hex="003A"/>
  <outline>
    <contour>
      <point x="78" y="0" type="curve"/>
      <point x="118" y="0"/>
      <point x="166" y="29"/>
      <point x="195" y="72" type="curve"/>
      <point x="190" y="116"/>
      <point x="149" y="167"/>
      <point x="116" y="167" type="curve"/>
      <point x="69" y="161"/>
      <point x="26" y="110"/>
      <point x="16" y="59" type="curve"/>
      <point x="21" y="24"/>
      <point x="46" y="0"/>
    </contour>
    <contour>
      <point x="134" y="352" type="curve"/>
      <point x="175" y="352"/>
      <point x="222" y="381"/>
      <point x="252" y="424" type="curve"/>
      <point x="247" y="468"/>
      <point x="206" y="519"/>
      <point x="173" y="519" type="curve"/>
      <point x="126" y="513"/>
      <point x="82" y="461"/>
      <point x="73" y="411" type="curve"/>
      <point x="77" y="376"/>
      <point x="103" y="352"/>
    </contour>
  </outline>
</glyph>
<glyph name="semicolon" format="1">
  <advance width="276"/>
  <unicode hex="003B"/>
  <outline>
    <contour>
      <point x="134" y="352" type="curve"/>
      <point x="175" y="352"/>
      <point x="222" y="381"/>
      <point x="252" y="424" type="curve"/>
      <point x="247" y="468"/>
      <point x="206" y="519"/>
      <point x="173" y="519" type="curve"/>
      <point x="126" y="513"/>
      <point x="82" y="461"/>
      <point x="73" y="411" type="curve"/>
      <point x="77" y="376"/>
      <point x="103" y="352"/>
    </contour>
    <contour>
      <point x="189" y="52" type="curve"/>
      <point x="178" y="105"/>
      <point x="116" y="159"/>
      <point x="37" y="115" type="curve"/>
      <point x="35" y="-40" type="line"/>
      <point x="-44" y="-125" type="line"/>
      <point x="-39" y="-145"/>
      <point x="-21" y="-157"/>
      <point x="6" y="-162" type="curve"/>
      <point x="96" y="-111"/>
      <point x="168" y="-31"/>
    </contour>
  </outline>
</glyph>
<glyph name="less" format="1">
  <advance width="600"/>
  <unicode hex="003C"/>
  <outline>
    <contour>
      <point x="372" y="436" type="line"/>
      <point x="556" y="504" type="line"/>
      <point x="575" y="542"/>
      <point x="565" y="583"/>
      <point x="540" y="597" type="curve"/>
      <point x="83" y="390" type="line"/>
      <point x="68" y="367"/>
      <point x="64" y="345"/>
      <point x="71" y="320" type="curve"/>
      <point x="272" y="216" type="line"/>
      <point x="467" y="99" type="line"/>
      <point x="497" y="112"/>
      <point x="516" y="135"/>
      <point x="514" y="171" type="curve"/>
      <point x="182" y="350" type="line"/>
    </contour>
  </outline>
</glyph>
<glyph name="equal" format="1">
  <advance width="658"/>
  <unicode hex="003D"/>
  <outline>
    <contour>
      <point x="624" y="485" type="curve"/>
      <point x="364" y="467" type="line"/>
      <point x="102" y="472" type="line"/>
      <point x="80" y="442"/>
      <point x="76" y="409"/>
      <point x="90" y="392" type="curve"/>
      <point x="609" y="401" type="line"/>
      <point x="637" y="435"/>
      <point x="641" y="474"/>
    </contour>
    <contour>
      <point x="592" y="297" type="curve"/>
      <point x="331" y="279" type="line"/>
      <point x="69" y="284" type="line"/>
      <point x="47" y="253"/>
      <point x="43" y="220"/>
      <point x="57" y="204" type="curve"/>
      <point x="576" y="213" type="line"/>
      <point x="605" y="247"/>
      <point x="609" y="286"/>
    </contour>
  </outline>
</glyph>
<glyph name="greater" format="1">
  <advance width="600"/>
  <unicode hex="003E"/>
  <outline>
    <contour>
      <point x="112" y="525" type="curve"/>
      <point x="272" y="447" type="line"/>
      <point x="445" y="345" type="line"/>
      <point x="69" y="192" type="line"/>
      <point x="50" y="154"/>
      <point x="62" y="112"/>
      <point x="86" y="99" type="curve"/>
      <point x="305" y="203" type="line"/>
      <point x="543" y="306" type="line"/>
      <point x="557" y="329"/>
      <point x="562" y="351"/>
      <point x="555" y="376" type="curve"/>
      <point x="159" y="597" type="line"/>
      <point x="130" y="583"/>
      <point x="110" y="560"/>
    </contour>
  </outline>
</glyph>
<glyph name="question" format="1">
  <advance width="717"/>
  <unicode hex="003F"/>
  <outline>
    <contour>
      <point x="314" y="389" type="line"/>
      <point x="514" y="438"/>
      <point x="654" y="516"/>
      <point x="695" y="650" type="curve" smooth="yes"/>
      <point x="733" y="772"/>
      <point x="661" y="887"/>
      <point x="542" y="887" type="curve" smooth="yes"/>
      <point x="438" y="887"/>
      <point x="311" y="843"/>
      <point x="182" y="763" type="curve"/>
      <point x="162" y="675"/>
      <point x="198" y="577"/>
      <point x="236" y="577" type="curve" smooth="yes"/>
      <point x="247" y="577"/>
      <point x="261" y="581"/>
      <point x="278" y="588" type="curve"/>
      <point x="272" y="670" type="line"/>
      <point x="361" y="728"/>
      <point x="476" y="771"/>
      <point x="581" y="775" type="curve"/>
      <point x="607" y="750"/>
      <point x="611" y="721"/>
      <point x="601" y="687" type="curve" smooth="yes"/>
      <point x="573" y="602"/>
      <point x="434" y="523"/>
      <point x="276" y="498" type="curve"/>
      <point x="244" y="480"/>
      <point x="213" y="445"/>
      <point x="196" y="409" type="curve"/>
      <point x="219" y="226" type="line" smooth="yes"/>
      <point x="222" y="205"/>
      <point x="249" y="201"/>
      <point x="283" y="212" type="curve"/>
    </contour>
    <contour>
      <point x="209" y="-5" type="curve" smooth="yes"/>
      <point x="252" y="-5"/>
      <point x="302" y="26"/>
      <point x="335" y="69" type="curve"/>
      <point x="331" y="116"/>
      <point x="290" y="168"/>
      <point x="256" y="168" type="curve"/>
      <point x="207" y="162"/>
      <point x="160" y="108"/>
      <point x="149" y="57" type="curve"/>
      <point x="152" y="21"/>
      <point x="177" y="-5"/>
    </contour>
  </outline>
</glyph>
<glyph name="at" format="1">
  <advance width="1069"/>
  <unicode hex="0040"/>
  <outline>
    <contour>
      <point x="666" y="262" type="line"/>
      <point x="611" y="215"/>
      <point x="549" y="162"/>
      <point x="489" y="110" type="curve"/>
      <point x="454" y="131"/>
      <point x="442" y="164"/>
      <point x="442" y="207" type="curve" smooth="yes"/>
      <point x="442" y="315"/>
      <point x="501" y="419"/>
      <point x="605" y="465" type="curve"/>
      <point x="643" y="441"/>
      <point x="668" y="411"/>
      <point x="688" y="369" type="curve"/>
      <point x="731" y="398" type="line"/>
      <point x="708" y="453"/>
      <point x="663" y="520"/>
      <point x="613" y="550" type="curve"/>
      <point x="428" y="546"/>
      <point x="289" y="360"/>
      <point x="291" y="201" type="curve" smooth="yes"/>
      <point x="291" y="98"/>
      <point x="355" y="19"/>
      <point x="498" y="14" type="curve"/>
      <point x="566" y="86"/>
      <point x="652" y="170"/>
      <point x="696" y="221" type="curve"/>
    </contour>
    <contour>
      <point x="475" y="-133" type="curve"/>
      <point x="279" y="-87"/>
      <point x="157" y="42"/>
      <point x="157" y="237" type="curve" smooth="yes"/>
      <point x="157" y="467"/>
      <point x="388" y="690"/>
      <point x="661" y="716" type="curve"/>
      <point x="858" y="665"/>
      <point x="958" y="576"/>
      <point x="976" y="371" type="curve"/>
      <point x="943" y="245"/>
      <point x="854" y="156"/>
      <point x="725" y="80" type="curve"/>
      <point x="752" y="80" type="line"/>
      <point x="763" y="168"/>
      <point x="774" y="260"/>
      <point x="791" y="348" type="curve"/>
      <point x="877" y="507" type="line"/>
      <point x="855" y="551"/>
      <point x="815" y="561"/>
      <point x="723" y="549" type="curve"/>
      <point x="710" y="523"/>
      <point x="705" y="491"/>
      <point x="706" y="443" type="curve"/>
      <point x="684" y="369" type="line"/>
      <point x="661" y="262" type="line"/>
      <point x="641" y="171" type="line"/>
      <point x="658" y="161" type="line"/>
      <point x="640" y="107"/>
      <point x="651" y="58"/>
      <point x="729" y="21" type="curve"/>
      <point x="902" y="84"/>
      <point x="1056" y="241"/>
      <point x="1056" y="390" type="curve" smooth="yes"/>
      <point x="1056" y="603"/>
      <point x="875" y="785"/>
      <point x="658" y="785" type="curve" smooth="yes"/>
      <point x="349" y="785"/>
      <point x="30" y="538"/>
      <point x="30" y="239" type="curve" smooth="yes"/>
      <point x="30" y="2"/>
      <point x="228" y="-166"/>
      <point x="481" y="-203" type="curve"/>
      <point x="575" y="-182"/>
      <point x="668" y="-146"/>
      <point x="728" y="-97" type="curve"/>
      <point x="731" y="-51"/>
      <point x="714" y="-26"/>
      <point x="655" y="-23" type="curve"/>
      <point x="619" y="-61"/>
      <point x="551" y="-105"/>
    </contour>
  </outline>
</glyph>
<glyph name="A" format="1">
  <advance width="670"/>
  <unicode hex="0041"/>
  <outline>
    <contour>
      <point x="454" y="777" type="move" name="top"/>
    </contour>
    <contour>
      <point x="548" y="0" type="move" name="ogonek"/>
    </contour>
    <contour>
      <point x="426" y="335" type="line"/>
      <point x="46" y="326" type="line"/>
      <point x="19" y="293"/>
      <point x="18" y="266"/>
      <point x="41" y="240" type="curve"/>
      <point x="290" y="269" type="line"/>
      <point x="649" y="292" type="line"/>
      <point x="674" y="330"/>
      <point x="675" y="360"/>
      <point x="654" y="377" type="curve"/>
    </contour>
    <contour>
      <point x="576" y="12" type="curve"/>
      <point x="529" y="555" type="line"/>
      <point x="548" y="725" type="line"/>
      <point x="506" y="744"/>
      <point x="405" y="753"/>
      <point x="312" y="709" type="curve"/>
      <point x="228" y="470" type="line"/>
      <point x="0" y="36" type="line"/>
      <point x="20" y="2"/>
      <point x="100" y="-11"/>
      <point x="156" y="12" type="curve"/>
      <point x="404" y="626" type="line"/>
      <point x="416" y="629" type="line"/>
      <point x="426" y="326" type="line"/>
      <point x="402" y="34" type="line"/>
      <point x="445" y="0"/>
      <point x="532" y="-11"/>
    </contour>
  </outline>
</glyph>
<glyph name="B" format="1">
  <advance width="659"/>
  <unicode hex="0042"/>
  <outline>
    <contour>
      <point x="487" y="540" type="curve" smooth="yes"/>
      <point x="484" y="479"/>
      <point x="467" y="460"/>
      <point x="427" y="424" type="curve"/>
      <point x="379" y="403"/>
      <point x="333" y="397"/>
      <point x="269" y="398" type="curve"/>
      <point x="309" y="659" type="line"/>
      <point x="436" y="674"/>
      <point x="492" y="612"/>
    </contour>
    <contour>
      <point x="210" y="78" type="curve"/>
      <point x="260" y="336" type="line"/>
      <point x="357" y="345"/>
      <point x="406" y="332"/>
      <point x="455" y="299" type="curve"/>
      <point x="466" y="276"/>
      <point x="470" y="256"/>
      <point x="470" y="238" type="curve" smooth="yes"/>
      <point x="470" y="190"/>
      <point x="456" y="149"/>
      <point x="418" y="103" type="curve"/>
      <point x="357" y="83"/>
      <point x="279" y="74"/>
    </contour>
    <contour>
      <point x="489" y="379" type="line"/>
      <point x="588" y="425"/>
      <point x="636" y="472"/>
      <point x="637" y="563" type="curve" smooth="yes"/>
      <point x="637" y="655"/>
      <point x="541" y="742"/>
      <point x="340" y="742" type="curve" smooth="yes"/>
      <point x="275" y="742"/>
      <point x="181" y="734"/>
      <point x="120" y="717" type="curve"/>
      <point x="104" y="698"/>
      <point x="105" y="668"/>
      <point x="133" y="648" type="curve"/>
      <point x="175" y="652" type="line"/>
      <point x="166" y="467" type="line"/>
      <point x="142" y="346"/>
      <point x="111" y="239"/>
      <point x="64" y="96" type="curve"/>
      <point x="68" y="43"/>
      <point x="125" y="12"/>
      <point x="184" y="0" type="curve"/>
      <point x="321" y="-5"/>
      <point x="408" y="4"/>
      <point x="523" y="42" type="curve"/>
      <point x="598" y="115"/>
      <point x="619" y="179"/>
      <point x="620" y="242" type="curve" smooth="yes"/>
      <point x="620" y="271"/>
      <point x="613" y="299"/>
      <point x="593" y="326" type="curve"/>
      <point x="567" y="346"/>
      <point x="532" y="363"/>
      <point x="488" y="372" type="curve"/>
    </contour>
  </outline>
</glyph>
<glyph name="C" format="1">
  <advance width="644"/>
  <unicode hex="0043"/>
  <outline>
    <contour>
      <point x="410" y="777" type="move" name="top"/>
    </contour>
    <contour>
      <point x="367" y="0" type="move" name="bottom"/>
    </contour>
    <contour>
      <point x="431" y="671" type="line"/>
      <point x="466" y="631"/>
      <point x="474" y="572"/>
      <point x="478" y="513" type="curve"/>
      <point x="537" y="486"/>
      <point x="605" y="510"/>
      <point x="632" y="548" type="curve"/>
      <point x="623" y="632"/>
      <point x="575" y="716"/>
      <point x="471" y="754" type="curve"/>
      <point x="315" y="730"/>
      <point x="211" y="651"/>
      <point x="127" y="566" type="curve"/>
      <point x="76" y="479"/>
      <point x="48" y="405"/>
      <point x="47" y="323" type="curve" smooth="yes"/>
      <point x="47" y="161"/>
      <point x="136" y="41"/>
      <point x="340" y="0" type="curve"/>
      <point x="440" y="35"/>
      <point x="544" y="97"/>
      <point x="596" y="156" type="curve"/>
      <point x="598" y="191"/>
      <point x="580" y="222"/>
      <point x="536" y="216" type="curve"/>
      <point x="491" y="174"/>
      <point x="425" y="131"/>
      <point x="344" y="100" type="curve"/>
      <point x="242" y="145"/>
      <point x="193" y="210"/>
      <point x="193" y="333" type="curve" smooth="yes"/>
      <point x="193" y="460"/>
      <point x="284" y="603"/>
      <point x="413" y="667" type="curve"/>
    </contour>
  </outline>
</glyph>
<glyph name="D" format="1">
  <advance width="695"/>
  <unicode hex="0044"/>
  <outline>
    <contour>
      <point x="363" y="777" type="move" name="top"/>
    </contour>
    <contour>
      <point x="159" y="0" type="curve"/>
      <point x="284" y="-1"/>
      <point x="382" y="20"/>
      <point x="466" y="48" type="curve"/>
      <point x="607" y="136"/>
      <point x="687" y="266"/>
      <point x="687" y="416" type="curve" smooth="yes"/>
      <point x="687" y="604"/>
      <point x="571" y="743"/>
      <point x="349" y="743" type="curve" smooth="yes"/>
      <point x="266" y="743"/>
      <point x="175" y="732"/>
      <point x="107" y="710" type="curve"/>
      <point x="89" y="688"/>
      <point x="88" y="653"/>
      <point x="124" y="625" type="curve"/>
      <point x="164" y="632" type="line"/>
      <point x="161" y="478" type="line"/>
      <point x="132" y="331"/>
      <point x="98" y="234"/>
      <point x="46" y="93" type="curve"/>
      <point x="59" y="43"/>
      <point x="104" y="15"/>
    </contour>
    <contour>
      <point x="151" y="83" type="curve"/>
      <point x="206" y="56" type="line"/>
      <point x="244" y="340" type="line"/>
      <point x="276" y="456"/>
      <point x="307" y="579"/>
      <point x="337" y="696" type="curve"/>
      <point x="267" y="642" type="line"/>
      <point x="460" y="673"/>
      <point x="538" y="561"/>
      <point x="539" y="402" type="curve" smooth="yes"/>
      <point x="539" y="286"/>
      <point x="487" y="187"/>
      <point x="383" y="109" type="curve"/>
      <point x="310" y="87"/>
      <point x="245" y="84"/>
    </contour>
  </outline>
</glyph>
<glyph name="E" format="1">
  <advance width="598"/>
  <unicode hex="0045"/>
  <outline>
    <contour>
      <point x="400" y="777" type="move" name="top"/>
    </contour>
    <contour>
      <point x="477" y="0" type="move" name="ogonek"/>
    </contour>
    <contour>
      <point x="483" y="647" type="curve"/>
      <point x="562" y="583" type="line"/>
      <point x="623" y="618"/>
      <point x="648" y="683"/>
      <point x="615" y="734" type="curve"/>
      <point x="412" y="742"/>
      <point x="295" y="739"/>
      <point x="124" y="724" type="curve"/>
      <point x="110" y="710"/>
      <point x="109" y="684"/>
      <point x="119" y="659" type="curve"/>
      <point x="142" y="655"/>
      <point x="162" y="650"/>
      <point x="177" y="642" type="curve"/>
      <point x="172" y="492" type="line"/>
      <point x="140" y="337"/>
      <point x="107" y="239"/>
      <point x="54" y="95" type="curve"/>
      <point x="57" y="48"/>
      <point x="97" y="18"/>
      <point x="169" y="0" type="curve"/>
      <point x="510" y="27" type="line"/>
      <point x="539" y="65"/>
      <point x="553" y="130"/>
      <point x="503" y="146" type="curve"/>
      <point x="413" y="125"/>
      <point x="305" y="106"/>
      <point x="204" y="92" type="curve"/>
      <point x="258" y="329" type="line"/>
      <point x="337" y="331"/>
      <point x="412" y="325"/>
      <point x="486" y="319" type="curve"/>
      <point x="508" y="355"/>
      <point x="517" y="402"/>
      <point x="492" y="426" type="curve"/>
      <point x="424" y="419"/>
      <point x="350" y="412"/>
      <point x="268" y="402" type="curve"/>
      <point x="296" y="553" type="line"/>
      <point x="326" y="646" type="line"/>
      <point x="393" y="656"/>
      <point x="439" y="651"/>
    </contour>
  </outline>
</glyph>
<glyph name="F" format="1">
  <advance width="587"/>
  <unicode hex="0046"/>
  <outline>
    <contour>
      <point x="326" y="647" type="line"/>
      <point x="393" y="656"/>
      <point x="439" y="652"/>
      <point x="483" y="648" type="curve"/>
      <point x="562" y="583" type="line"/>
      <point x="623" y="619"/>
      <point x="648" y="684"/>
      <point x="615" y="734" type="curve"/>
      <point x="412" y="743"/>
      <point x="295" y="739"/>
      <point x="124" y="724" type="curve"/>
      <point x="110" y="711"/>
      <point x="109" y="684"/>
      <point x="119" y="659" type="curve"/>
      <point x="142" y="656"/>
      <point x="162" y="650"/>
      <point x="177" y="643" type="curve"/>
      <point x="178" y="507" type="line"/>
      <point x="150" y="345"/>
      <point x="122" y="219"/>
      <point x="63" y="40" type="curve"/>
      <point x="93" y="1"/>
      <point x="193" y="-11"/>
      <point x="231" y="15" type="curve"/>
      <point x="238" y="138"/>
      <point x="246" y="217"/>
      <point x="257" y="309" type="curve"/>
      <point x="338" y="311"/>
      <point x="413" y="306"/>
      <point x="485" y="298" type="curve"/>
      <point x="512" y="338"/>
      <point x="513" y="387"/>
      <point x="493" y="406" type="curve"/>
      <point x="428" y="398"/>
      <point x="349" y="392"/>
      <point x="269" y="381" type="curve"/>
      <point x="296" y="553" type="line"/>
    </contour>
  </outline>
</glyph>
<glyph name="G" format="1">
  <advance width="683"/>
  <unicode hex="0047"/>
  <outline>
    <contour>
      <point x="466" y="777" type="move" name="top"/>
    </contour>
    <contour>
      <point x="358" y="0" type="move" name="bottom"/>
    </contour>
    <contour>
      <point x="551" y="231" type="line"/>
      <point x="538" y="177"/>
      <point x="503" y="94"/>
      <point x="472" y="32" type="curve"/>
      <point x="488" y="4"/>
      <point x="531" y="-6"/>
      <point x="569" y="6" type="curve"/>
      <point x="634" y="189"/>
      <point x="666" y="301"/>
      <point x="617" y="380" type="curve"/>
      <point x="534" y="369"/>
      <point x="434" y="374"/>
      <point x="363" y="384" type="curve"/>
      <point x="329" y="357"/>
      <point x="337" y="305"/>
      <point x="369" y="278" type="curve"/>
      <point x="513" y="304" type="line"/>
      <point x="517" y="299" type="line"/>
      <point x="472" y="217"/>
      <point x="407" y="148"/>
      <point x="340" y="94" type="curve"/>
      <point x="244" y="149"/>
      <point x="194" y="203"/>
      <point x="195" y="325" type="curve" smooth="yes"/>
      <point x="198" y="473"/>
      <point x="301" y="606"/>
      <point x="432" y="669" type="curve"/>
      <point x="447" y="670" type="line"/>
      <point x="490" y="624"/>
      <point x="497" y="577"/>
      <point x="504" y="515" type="curve"/>
      <point x="562" y="480"/>
      <point x="628" y="513"/>
      <point x="654" y="561" type="curve"/>
      <point x="635" y="640"/>
      <point x="594" y="715"/>
      <point x="465" y="750" type="curve"/>
      <point x="325" y="727"/>
      <point x="201" y="644"/>
      <point x="128" y="552" type="curve"/>
      <point x="90" y="496"/>
      <point x="50" y="401"/>
      <point x="50" y="316" type="curve" smooth="yes"/>
      <point x="50" y="159"/>
      <point x="131" y="44"/>
      <point x="349" y="0" type="curve"/>
      <point x="439" y="66"/>
      <point x="505" y="151"/>
      <point x="544" y="235" type="curve"/>
    </contour>
  </outline>
</glyph>
<glyph name="H" format="1">
  <advance width="753"/>
  <unicode hex="0048"/>
  <outline>
    <contour>
      <point x="372" y="401" type="line"/>
      <point x="71" y="400" type="line"/>
      <point x="44" y="365"/>
      <point x="42" y="337"/>
      <point x="64" y="309" type="curve"/>
      <point x="263" y="330" type="line"/>
      <point x="726" y="364" type="line"/>
      <point x="753" y="406"/>
      <point x="755" y="438"/>
      <point x="730" y="454" type="curve"/>
    </contour>
    <contour>
      <point x="349" y="730" type="line"/>
      <point x="330" y="739"/>
      <point x="310" y="743"/>
      <point x="287" y="743" type="curve" smooth="yes"/>
      <point x="254" y="743"/>
      <point x="216" y="733"/>
      <point x="174" y="710" type="curve"/>
      <point x="166" y="518" type="line"/>
      <point x="135" y="335"/>
      <point x="107" y="211"/>
      <point x="57" y="42" type="curve"/>
      <point x="78" y="2"/>
      <point x="175" y="-12"/>
      <point x="225" y="14" type="curve"/>
      <point x="240" y="172"/>
      <point x="254" y="318"/>
      <point x="265" y="427" type="curve"/>
    </contour>
    <contour>
      <point x="731" y="730" type="line"/>
      <point x="713" y="739"/>
      <point x="693" y="743"/>
      <point x="670" y="743" type="curve" smooth="yes"/>
      <point x="637" y="743"/>
      <point x="598" y="733"/>
      <point x="556" y="710" type="curve"/>
      <point x="549" y="518" type="line"/>
      <point x="518" y="335"/>
      <point x="490" y="211"/>
      <point x="440" y="42" type="curve"/>
      <point x="460" y="2"/>
      <point x="558" y="-12"/>
      <point x="608" y="14" type="curve"/>
      <point x="622" y="172"/>
      <point x="637" y="318"/>
      <point x="647" y="427" type="curve"/>
    </contour>
  </outline>
</glyph>
<glyph name="I" format="1">
  <advance width="283"/>
  <unicode hex="0049"/>
  <outline>
    <contour>
      <point x="228" y="777" type="move" name="top"/>
    </contour>
    <contour>
      <point x="160" y="0" type="move" name="ogonek"/>
    </contour>
    <contour>
      <point x="127" y="518" type="line"/>
      <point x="96" y="335"/>
      <point x="68" y="211"/>
      <point x="18" y="42" type="curve"/>
      <point x="38" y="2"/>
      <point x="136" y="-12"/>
      <point x="186" y="14" type="curve"/>
      <point x="200" y="172"/>
      <point x="215" y="318"/>
      <point x="225" y="427" type="curve"/>
      <point x="309" y="730" type="line"/>
      <point x="291" y="739"/>
      <point x="271" y="743"/>
      <point x="248" y="743" type="curve" smooth="yes"/>
      <point x="215" y="743"/>
      <point x="176" y="733"/>
      <point x="134" y="710" type="curve"/>
    </contour>
  </outline>
</glyph>
<glyph name="J" format="1">
  <advance width="625"/>
  <unicode hex="004A"/>
  <outline>
    <contour>
      <point x="131" y="724" type="curve"/>
      <point x="115" y="692"/>
      <point x="116" y="663"/>
      <point x="148" y="625" type="curve"/>
      <point x="439" y="658" type="line"/>
      <point x="666" y="629" type="line"/>
      <point x="704" y="676"/>
      <point x="703" y="710"/>
      <point x="685" y="730" type="curve"/>
      <point x="463" y="742"/>
      <point x="343" y="738"/>
    </contour>
    <contour>
      <point x="423" y="413" type="curve"/>
      <point x="487" y="683" type="line"/>
      <point x="450" y="722"/>
      <point x="392" y="720"/>
      <point x="341" y="685" type="curve"/>
      <point x="336" y="520" type="line"/>
      <point x="313" y="353"/>
      <point x="287" y="247"/>
      <point x="252" y="93" type="curve"/>
      <point x="234" y="86" type="line"/>
      <point x="196" y="130"/>
      <point x="174" y="171"/>
      <point x="164" y="240" type="curve"/>
      <point x="118" y="266"/>
      <point x="63" y="245"/>
      <point x="22" y="192" type="curve"/>
      <point x="47" y="116"/>
      <point x="105" y="47"/>
      <point x="187" y="4" type="curve"/>
      <point x="288" y="-8"/>
      <point x="357" y="20"/>
      <point x="397" y="78" type="curve"/>
      <point x="405" y="218"/>
      <point x="414" y="303"/>
    </contour>
  </outline>
</glyph>
<glyph name="K" format="1">
  <advance width="660"/>
  <unicode hex="004B"/>
  <outline>
    <contour>
      <point x="336" y="0" type="move" name="bottom"/>
    </contour>
    <contour>
      <point x="139" y="518" type="line"/>
      <point x="109" y="335"/>
      <point x="80" y="211"/>
      <point x="30" y="42" type="curve"/>
      <point x="50" y="2"/>
      <point x="148" y="-12"/>
      <point x="198" y="14" type="curve"/>
      <point x="212" y="172"/>
      <point x="227" y="318"/>
      <point x="237" y="427" type="curve"/>
      <point x="322" y="735" type="line"/>
      <point x="304" y="744"/>
      <point x="284" y="748"/>
      <point x="261" y="748" type="curve" smooth="yes"/>
      <point x="228" y="748"/>
      <point x="190" y="738"/>
      <point x="147" y="716" type="curve"/>
    </contour>
    <contour>
      <point x="212" y="328" type="line"/>
      <point x="256" y="355" type="line"/>
      <point x="290" y="206"/>
      <point x="376" y="69"/>
      <point x="506" y="0" type="curve"/>
      <point x="585" y="21"/>
      <point x="613" y="84"/>
      <point x="589" y="129" type="curve"/>
      <point x="433" y="171"/>
      <point x="351" y="270"/>
      <point x="304" y="396" type="curve"/>
      <point x="278" y="364" type="line"/>
      <point x="409" y="440"/>
      <point x="580" y="571"/>
      <point x="662" y="649" type="curve"/>
      <point x="662" y="704"/>
      <point x="629" y="739"/>
      <point x="553" y="748" type="curve"/>
      <point x="366" y="495" type="line"/>
      <point x="188" y="377" type="line"/>
    </contour>
  </outline>
</glyph>
<glyph name="L" format="1">
  <advance width="527"/>
  <unicode hex="004C"/>
  <outline>
    <contour>
      <point x="222" y="777" type="move" name="top"/>
    </contour>
    <contour>
      <point x="297" y="0" type="move" name="bottom"/>
    </contour>
    <contour>
      <point x="145" y="710" type="curve"/>
      <point x="139" y="516" type="line"/>
      <point x="108" y="364"/>
      <point x="76" y="236"/>
      <point x="22" y="93" type="curve"/>
      <point x="31" y="48"/>
      <point x="76" y="18"/>
      <point x="136" y="0" type="curve"/>
      <point x="465" y="37" type="line"/>
      <point x="488" y="67"/>
      <point x="501" y="129"/>
      <point x="454" y="148" type="curve"/>
      <point x="369" y="127"/>
      <point x="278" y="107"/>
      <point x="176" y="92" type="curve"/>
      <point x="230" y="400" type="line"/>
      <point x="320" y="730" type="line" smooth="yes"/>
      <point x="272" y="754"/>
      <point x="210" y="745"/>
    </contour>
  </outline>
</glyph>
<glyph name="M" format="1">
  <advance width="804"/>
  <unicode hex="004D"/>
  <outline>
    <contour>
      <point x="227" y="624" type="curve"/>
      <point x="269" y="623" type="line"/>
      <point x="220" y="427" type="line"/>
      <point x="211" y="321"/>
      <point x="194" y="174"/>
      <point x="180" y="14" type="curve"/>
      <point x="130" y="-12"/>
      <point x="32" y="2"/>
      <point x="12" y="42" type="curve"/>
      <point x="64" y="215"/>
      <point x="92" y="339"/>
      <point x="122" y="517" type="curve"/>
      <point x="133" y="715" type="line"/>
      <point x="164" y="734"/>
      <point x="196" y="742"/>
      <point x="228" y="742" type="curve" smooth="yes"/>
      <point x="256" y="742"/>
      <point x="283" y="735"/>
      <point x="307" y="717" type="curve"/>
      <point x="314" y="606"/>
      <point x="336" y="475"/>
      <point x="370" y="362" type="curve"/>
      <point x="432" y="261" type="line"/>
      <point x="391" y="242" type="line"/>
      <point x="566" y="497" type="line"/>
      <point x="678" y="722" type="line"/>
      <point x="702" y="732"/>
      <point x="734" y="743"/>
      <point x="766" y="743" type="curve" smooth="yes"/>
      <point x="793" y="743"/>
      <point x="817" y="737"/>
      <point x="833" y="721" type="curve"/>
      <point x="751" y="424" type="line"/>
      <point x="741" y="309"/>
      <point x="725" y="166"/>
      <point x="713" y="14" type="curve"/>
      <point x="662" y="-12"/>
      <point x="566" y="2"/>
      <point x="545" y="42" type="curve"/>
      <point x="593" y="207"/>
      <point x="617" y="309"/>
      <point x="644" y="470" type="curve"/>
      <point x="657" y="597" type="line"/>
      <point x="683" y="567" type="line"/>
      <point x="461" y="203" type="line"/>
      <point x="406" y="184"/>
      <point x="367" y="193"/>
      <point x="329" y="227" type="curve"/>
      <point x="263" y="375"/>
      <point x="242" y="501"/>
    </contour>
  </outline>
</glyph>
<glyph name="N" format="1">
  <advance width="711"/>
  <unicode hex="004E"/>
  <outline>
    <contour>
      <point x="440" y="777" type="move" name="top"/>
    </contour>
    <contour>
      <point x="345" y="0" type="move" name="bottom"/>
    </contour>
    <contour>
      <point x="249" y="743" type="curve" smooth="yes"/>
      <point x="215" y="743"/>
      <point x="178" y="735"/>
      <point x="130" y="710" type="curve"/>
      <point x="120" y="515" type="line"/>
      <point x="90" y="340"/>
      <point x="61" y="220"/>
      <point x="8" y="42" type="curve"/>
      <point x="28" y="2"/>
      <point x="125" y="-12"/>
      <point x="176" y="14" type="curve"/>
      <point x="190" y="164"/>
      <point x="208" y="307"/>
      <point x="218" y="427" type="curve"/>
      <point x="275" y="651" type="line"/>
      <point x="250" y="642" type="line"/>
      <point x="292" y="447"/>
      <point x="348" y="247"/>
      <point x="452" y="33" type="curve"/>
      <point x="491" y="2"/>
      <point x="564" y="-11"/>
      <point x="619" y="14" type="curve"/>
      <point x="633" y="171"/>
      <point x="652" y="318"/>
      <point x="662" y="427" type="curve"/>
      <point x="747" y="730" type="line"/>
      <point x="729" y="738"/>
      <point x="709" y="742"/>
      <point x="686" y="742" type="curve" smooth="yes"/>
      <point x="653" y="742"/>
      <point x="614" y="732"/>
      <point x="572" y="710" type="curve"/>
      <point x="564" y="514" type="line"/>
      <point x="538" y="357"/>
      <point x="507" y="239"/>
      <point x="481" y="117" type="curve"/>
      <point x="502" y="140" type="line"/>
      <point x="441" y="256" type="line"/>
      <point x="385" y="429"/>
      <point x="347" y="571"/>
      <point x="308" y="727" type="curve"/>
      <point x="288" y="738"/>
      <point x="273" y="743"/>
    </contour>
  </outline>
</glyph>
<glyph name="O" format="1">
  <advance width="666"/>
  <unicode hex="004F"/>
  <outline>
    <contour>
      <point x="428" y="778" type="move" name="top"/>
    </contour>
    <contour>
      <point x="246" y="0" type="move" name="bottom"/>
    </contour>
    <contour>
      <point x="47" y="310" type="curve" smooth="yes"/>
      <point x="47" y="175"/>
      <point x="179" y="0"/>
      <point x="304" y="0" type="curve" smooth="yes"/>
      <point x="452" y="0"/>
      <point x="659" y="225"/>
      <point x="656" y="390" type="curve" smooth="yes"/>
      <point x="654" y="567"/>
      <point x="520" y="750"/>
      <point x="418" y="750" type="curve" smooth="yes"/>
      <point x="230" y="750"/>
      <point x="46" y="528"/>
    </contour>
    <contour>
      <point x="522" y="367" type="curve"/>
      <point x="487" y="250"/>
      <point x="418" y="149"/>
      <point x="303" y="77" type="curve"/>
      <point x="231" y="132"/>
      <point x="190" y="228"/>
      <point x="190" y="325" type="curve" smooth="yes"/>
      <point x="190" y="457"/>
      <point x="282" y="599"/>
      <point x="410" y="673" type="curve"/>
      <point x="484" y="588"/>
      <point x="509" y="487"/>
    </contour>
  </outline>
</glyph>
<glyph name="P" format="1">
  <advance width="623"/>
  <unicode hex="0050"/>
  <outline>
    <contour>
      <point x="268" y="430" type="curve"/>
      <point x="326" y="692" type="line"/>
      <point x="268" y="660" type="line"/>
      <point x="420" y="679"/>
      <point x="499" y="610"/>
      <point x="500" y="524" type="curve" smooth="yes"/>
      <point x="500" y="463"/>
      <point x="471" y="405"/>
      <point x="426" y="370" type="curve"/>
      <point x="375" y="341"/>
      <point x="297" y="322"/>
      <point x="205" y="307" type="curve"/>
      <point x="228" y="248" type="line"/>
      <point x="319" y="255"/>
      <point x="402" y="274"/>
      <point x="472" y="297" type="curve"/>
      <point x="582" y="354"/>
      <point x="637" y="429"/>
      <point x="638" y="530" type="curve" smooth="yes"/>
      <point x="638" y="640"/>
      <point x="521" y="748"/>
      <point x="329" y="748" type="curve" smooth="yes"/>
      <point x="248" y="748"/>
      <point x="177" y="738"/>
      <point x="120" y="721" type="curve"/>
      <point x="103" y="706"/>
      <point x="104" y="675"/>
      <point x="126" y="652" type="curve"/>
      <point x="173" y="651" type="line"/>
      <point x="165" y="492" type="line"/>
      <point x="138" y="335"/>
      <point x="113" y="208"/>
      <point x="62" y="38" type="curve"/>
      <point x="90" y="0"/>
      <point x="191" y="-11"/>
      <point x="230" y="15" type="curve"/>
      <point x="246" y="163"/>
      <point x="258" y="287"/>
    </contour>
  </outline>
</glyph>
<glyph name="Q" format="1">
  <advance width="679"/>
  <unicode hex="0051"/>
  <outline>
    <contour>
      <point x="299" y="27" type="line"/>
      <point x="409" y="-172" type="line"/>
      <point x="474" y="-186"/>
      <point x="544" y="-159"/>
      <point x="547" y="-85" type="curve"/>
      <point x="420" y="-29" type="line"/>
      <point x="380" y="41" type="line"/>
    </contour>
    <component base="O"/>
  </outline>
</glyph>
<glyph name="R" format="1">
  <advance width="652"/>
  <unicode hex="0052"/>
  <outline>
    <contour>
      <point x="350" y="777" type="move" name="top"/>
    </contour>
    <contour>
      <point x="342" y="0" type="move" name="bottom"/>
    </contour>
    <contour>
      <point x="271" y="335" type="line"/>
      <point x="283" y="197"/>
      <point x="356" y="72"/>
      <point x="493" y="0" type="curve"/>
      <point x="564" y="22"/>
      <point x="605" y="77"/>
      <point x="578" y="128" type="curve"/>
      <point x="427" y="168"/>
      <point x="369" y="220"/>
      <point x="319" y="345" type="curve"/>
    </contour>
    <contour>
      <point x="446" y="321" type="curve"/>
      <point x="571" y="386"/>
      <point x="625" y="443"/>
      <point x="626" y="551" type="curve" smooth="yes"/>
      <point x="628" y="652"/>
      <point x="519" y="749"/>
      <point x="328" y="749" type="curve" smooth="yes"/>
      <point x="247" y="749"/>
      <point x="176" y="739"/>
      <point x="119" y="721" type="curve"/>
      <point x="102" y="707"/>
      <point x="103" y="675"/>
      <point x="125" y="653" type="curve"/>
      <point x="173" y="651" type="line"/>
      <point x="164" y="495" type="line"/>
      <point x="137" y="338"/>
      <point x="111" y="208"/>
      <point x="59" y="38" type="curve"/>
      <point x="87" y="0"/>
      <point x="187" y="-11"/>
      <point x="227" y="15" type="curve"/>
      <point x="248" y="185"/>
      <point x="257" y="303"/>
      <point x="266" y="434" type="curve"/>
      <point x="327" y="693" type="line"/>
      <point x="266" y="661" type="line"/>
      <point x="421" y="681"/>
      <point x="486" y="617"/>
      <point x="486" y="541" type="curve" smooth="yes"/>
      <point x="486" y="481"/>
      <point x="463" y="440"/>
      <point x="410" y="396" type="curve"/>
      <point x="352" y="378"/>
      <point x="300" y="367"/>
      <point x="220" y="367" type="curve"/>
      <point x="233" y="307" type="line"/>
      <point x="313" y="309"/>
      <point x="369" y="310"/>
    </contour>
  </outline>
</glyph>
<glyph name="S" format="1">
  <advance width="635"/>
  <unicode hex="0053"/>
  <outline>
    <contour>
      <point x="400" y="777" type="move" name="top"/>
    </contour>
    <contour>
      <point x="317" y="0" type="move" name="bottom"/>
    </contour>
    <contour>
      <point x="599" y="246" type="curve"/>
      <point x="543" y="396"/>
      <point x="231" y="477"/>
      <point x="228" y="555" type="curve" smooth="yes"/>
      <point x="227" y="597"/>
      <point x="321" y="659"/>
      <point x="393" y="678" type="curve"/>
      <point x="427" y="647"/>
      <point x="455" y="611"/>
      <point x="474" y="534" type="curve"/>
      <point x="557" y="520"/>
      <point x="600" y="545"/>
      <point x="612" y="601" type="curve"/>
      <point x="572" y="677"/>
      <point x="497" y="733"/>
      <point x="399" y="753" type="curve"/>
      <point x="266" y="740"/>
      <point x="135" y="661"/>
      <point x="82" y="544" type="curve"/>
      <point x="110" y="360"/>
      <point x="444" y="300"/>
      <point x="445" y="223" type="curve" smooth="yes"/>
      <point x="445" y="155"/>
      <point x="373" y="97"/>
      <point x="281" y="76" type="curve"/>
      <point x="215" y="132"/>
      <point x="187" y="174"/>
      <point x="167" y="254" type="curve"/>
      <point x="90" y="278"/>
      <point x="51" y="240"/>
      <point x="18" y="182" type="curve"/>
      <point x="47" y="107"/>
      <point x="157" y="26"/>
      <point x="272" y="0" type="curve"/>
      <point x="460" y="25"/>
      <point x="579" y="115"/>
    </contour>
  </outline>
</glyph>
<glyph name="T" format="1">
  <advance width="621"/>
  <unicode hex="0054"/>
  <outline>
    <contour>
      <point x="390" y="777" type="move" name="top"/>
    </contour>
    <contour>
      <point x="306" y="0" type="move" name="bottom"/>
    </contour>
    <contour>
      <point x="299" y="524" type="line"/>
      <point x="268" y="330"/>
      <point x="239" y="210"/>
      <point x="189" y="41" type="curve"/>
      <point x="210" y="2"/>
      <point x="307" y="-12"/>
      <point x="358" y="14" type="curve"/>
      <point x="369" y="149"/>
      <point x="380" y="265"/>
      <point x="392" y="424" type="curve"/>
      <point x="460" y="705" type="line"/>
      <point x="426" y="724"/>
      <point x="374" y="722"/>
      <point x="303" y="685" type="curve"/>
    </contour>
    <contour>
      <point x="104" y="723" type="curve"/>
      <point x="87" y="692"/>
      <point x="87" y="663"/>
      <point x="120" y="624" type="curve"/>
      <point x="401" y="654" type="line"/>
      <point x="659" y="630" type="line"/>
      <point x="693" y="677"/>
      <point x="691" y="712"/>
      <point x="673" y="732" type="curve"/>
      <point x="433" y="742"/>
      <point x="297" y="738"/>
    </contour>
  </outline>
</glyph>
<glyph name="U" format="1">
  <advance width="643"/>
  <unicode hex="0055"/>
  <outline>
    <contour>
      <point x="398" y="777" type="move" name="top"/>
    </contour>
    <contour>
      <point x="319" y="0" type="move" name="ogonek"/>
    </contour>
    <contour>
      <point x="610" y="355" type="curve" smooth="yes"/>
      <point x="636" y="489"/>
      <point x="654" y="615"/>
      <point x="675" y="735" type="curve"/>
      <point x="657" y="744"/>
      <point x="637" y="748"/>
      <point x="614" y="748" type="curve" smooth="yes"/>
      <point x="580" y="748"/>
      <point x="541" y="738"/>
      <point x="499" y="716" type="curve"/>
      <point x="519" y="492" type="line"/>
      <point x="493" y="323"/>
      <point x="465" y="197"/>
      <point x="388" y="100" type="curve"/>
      <point x="243" y="66"/>
      <point x="190" y="155"/>
      <point x="199" y="258" type="curve" smooth="yes"/>
      <point x="206" y="399"/>
      <point x="251" y="568"/>
      <point x="302" y="735" type="curve"/>
      <point x="284" y="744"/>
      <point x="264" y="748"/>
      <point x="242" y="748" type="curve" smooth="yes"/>
      <point x="208" y="748"/>
      <point x="169" y="738"/>
      <point x="127" y="716" type="curve"/>
      <point x="109" y="523"/>
      <point x="87" y="388"/>
      <point x="52" y="193" type="curve"/>
      <point x="66" y="103"/>
      <point x="149" y="0"/>
      <point x="298" y="0" type="curve" smooth="yes"/>
      <point x="490" y="0"/>
      <point x="567" y="139"/>
    </contour>
  </outline>
</glyph>
<glyph name="V" format="1">
  <advance width="638"/>
  <unicode hex="0056"/>
  <outline>
    <contour>
      <point x="283" y="301" type="line"/>
      <point x="274" y="725" type="line"/>
      <point x="240" y="753"/>
      <point x="148" y="743"/>
      <point x="100" y="691" type="curve"/>
      <point x="199" y="45" type="line"/>
      <point x="237" y="2"/>
      <point x="310" y="-10"/>
      <point x="370" y="7" type="curve"/>
      <point x="427" y="154" type="line"/>
      <point x="499" y="280"/>
      <point x="562" y="377"/>
      <point x="634" y="500" type="curve"/>
      <point x="667" y="559"/>
      <point x="691" y="634"/>
      <point x="684" y="710" type="curve"/>
      <point x="647" y="743"/>
      <point x="563" y="755"/>
      <point x="503" y="706" type="curve"/>
      <point x="535" y="512" type="line"/>
      <point x="292" y="44" type="line"/>
      <point x="322" y="51" type="line"/>
    </contour>
  </outline>
</glyph>
<glyph name="W" format="1">
  <advance width="934"/>
  <unicode hex="0057"/>
  <outline>
    <contour>
      <point x="803" y="710" type="curve"/>
      <point x="837" y="514" type="line"/>
      <point x="636" y="49" type="line"/>
      <point x="661" y="47" type="line"/>
      <point x="613" y="330" type="line"/>
      <point x="612" y="675" type="line"/>
      <point x="553" y="703"/>
      <point x="492" y="682"/>
      <point x="452" y="640" type="curve"/>
      <point x="493" y="422" type="line"/>
      <point x="301" y="57" type="line"/>
      <point x="331" y="49" type="line"/>
      <point x="287" y="302" type="line"/>
      <point x="274" y="729" type="line"/>
      <point x="238" y="755"/>
      <point x="151" y="748"/>
      <point x="100" y="694" type="curve"/>
      <point x="207" y="45" type="line"/>
      <point x="248" y="2"/>
      <point x="318" y="-10"/>
      <point x="378" y="7" type="curve"/>
      <point x="429" y="149" type="line"/>
      <point x="513" y="313" type="line"/>
      <point x="543" y="42" type="line"/>
      <point x="579" y="2"/>
      <point x="650" y="-10"/>
      <point x="710" y="7" type="curve"/>
      <point x="756" y="156" type="line"/>
      <point x="937" y="503" type="line" smooth="yes"/>
      <point x="971" y="569"/>
      <point x="990" y="641"/>
      <point x="985" y="713" type="curve"/>
      <point x="944" y="745"/>
      <point x="864" y="759"/>
    </contour>
  </outline>
</glyph>
<glyph name="X" format="1">
  <advance width="690"/>
  <unicode hex="0058"/>
  <outline>
    <contour>
      <point x="391" y="397" type="curve"/>
      <point x="369" y="524"/>
      <point x="302" y="672"/>
      <point x="212" y="746" type="curve"/>
      <point x="129" y="737"/>
      <point x="87" y="679"/>
      <point x="94" y="611" type="curve"/>
      <point x="186" y="566"/>
      <point x="286" y="470"/>
      <point x="346" y="353" type="curve"/>
      <point x="361" y="246"/>
      <point x="440" y="80"/>
      <point x="518" y="0" type="curve"/>
      <point x="612" y="18"/>
      <point x="649" y="78"/>
      <point x="632" y="134" type="curve"/>
      <point x="544" y="187"/>
      <point x="445" y="316"/>
    </contour>
    <contour>
      <point x="617" y="747" type="curve"/>
      <point x="354" y="388" type="line"/>
      <point x="258" y="293"/>
      <point x="139" y="182"/>
      <point x="24" y="103" type="curve"/>
      <point x="18" y="55"/>
      <point x="42" y="9"/>
      <point x="135" y="0" type="curve"/>
      <point x="390" y="358" type="line"/>
      <point x="521" y="484"/>
      <point x="628" y="581"/>
      <point x="720" y="652" type="curve"/>
      <point x="717" y="710"/>
      <point x="688" y="752"/>
    </contour>
  </outline>
</glyph>
<glyph name="Y" format="1">
  <advance width="633"/>
  <unicode hex="0059"/>
  <outline>
    <contour>
      <point x="398" y="777" type="move" name="top"/>
    </contour>
    <contour>
      <point x="102" y="682" type="curve"/>
      <point x="161" y="570"/>
      <point x="228" y="441"/>
      <point x="286" y="300" type="curve"/>
      <point x="273" y="226"/>
      <point x="250" y="117"/>
      <point x="220" y="35" type="curve"/>
      <point x="253" y="-2"/>
      <point x="349" y="-14"/>
      <point x="389" y="14" type="curve"/>
      <point x="395" y="132"/>
      <point x="405" y="246"/>
      <point x="424" y="334" type="curve"/>
      <point x="493" y="417"/>
      <point x="566" y="495"/>
      <point x="621" y="567" type="curve" smooth="yes"/>
      <point x="658" y="615"/>
      <point x="675" y="657"/>
      <point x="678" y="714" type="curve"/>
      <point x="640" y="752"/>
      <point x="578" y="764"/>
      <point x="489" y="722" type="curve"/>
      <point x="530" y="567" type="line"/>
      <point x="389" y="387" type="line"/>
      <point x="363" y="336" type="line"/>
      <point x="357" y="336" type="line"/>
      <point x="280" y="545" type="line"/>
      <point x="260" y="739" type="line"/>
      <point x="206" y="762"/>
      <point x="142" y="742"/>
    </contour>
  </outline>
</glyph>
<glyph name="Z" format="1">
  <advance width="661"/>
  <unicode hex="005A"/>
  <outline>
    <contour>
      <point x="409" y="777" type="move" name="top"/>
    </contour>
    <contour>
      <point x="157" y="58" type="line"/>
      <point x="260" y="48"/>
      <point x="411" y="30"/>
      <point x="509" y="0" type="curve"/>
      <point x="587" y="50"/>
      <point x="622" y="93"/>
      <point x="639" y="151" type="curve"/>
      <point x="624" y="197"/>
      <point x="581" y="218"/>
      <point x="496" y="200" type="curve"/>
      <point x="489" y="166"/>
      <point x="484" y="146"/>
      <point x="467" y="112" type="curve"/>
      <point x="393" y="119"/>
      <point x="273" y="120"/>
      <point x="189" y="123" type="curve"/>
      <point x="186" y="131" type="line"/>
      <point x="325" y="251"/>
      <point x="623" y="532"/>
      <point x="681" y="683" type="curve"/>
      <point x="669" y="741"/>
      <point x="623" y="752"/>
      <point x="550" y="752" type="curve"/>
      <point x="526" y="693" type="line"/>
      <point x="442" y="703"/>
      <point x="304" y="724"/>
      <point x="212" y="748" type="curve"/>
      <point x="136" y="719"/>
      <point x="96" y="656"/>
      <point x="74" y="589" type="curve"/>
      <point x="93" y="547"/>
      <point x="135" y="530"/>
      <point x="214" y="541" type="curve"/>
      <point x="222" y="580"/>
      <point x="234" y="615"/>
      <point x="262" y="649" type="curve"/>
      <point x="327" y="635"/>
      <point x="431" y="631"/>
      <point x="495" y="630" type="curve"/>
      <point x="502" y="621" type="line"/>
      <point x="387" y="407"/>
      <point x="13" y="172"/>
      <point x="13" y="70" type="curve" smooth="yes"/>
      <point x="12" y="44"/>
      <point x="17" y="22"/>
      <point x="38" y="2" type="curve"/>
      <point x="97" y="-5"/>
      <point x="131" y="3"/>
      <point x="160" y="26" type="curve"/>
      <point x="152" y="54" type="line"/>
    </contour>
  </outline>
</glyph>
<glyph name="bracketleft" format="1">
  <advance width="582"/>
  <unicode hex="005B"/>
  <outline>
    <contour>
      <point x="506" y="823" type="line"/>
      <point x="611" y="816" type="line"/>
      <point x="631" y="846"/>
      <point x="635" y="866"/>
      <point x="630" y="890" type="curve"/>
      <point x="278" y="884" type="line"/>
      <point x="213" y="420" type="line"/>
      <point x="99" y="-26" type="line"/>
      <point x="103" y="-50"/>
      <point x="120" y="-70"/>
      <point x="150" y="-88" type="curve"/>
      <point x="446" y="-46" type="line"/>
      <point x="468" y="-19"/>
      <point x="471" y="3"/>
      <point x="460" y="19" type="curve"/>
      <point x="266" y="-8" type="line"/>
      <point x="312" y="277" type="line"/>
      <point x="380" y="639" type="line"/>
      <point x="429" y="819" type="line"/>
    </contour>
  </outline>
</glyph>
<glyph name="backslash" format="1">
  <advance width="496"/>
  <unicode hex="005C"/>
  <outline>
    <contour>
      <point x="65" y="846" type="curve"/>
      <point x="349" y="-114" type="line"/>
      <point x="394" y="-128"/>
      <point x="422" y="-125"/>
      <point x="441" y="-92" type="curve"/>
      <point x="263" y="367" type="line"/>
      <point x="159" y="871" type="line" smooth="yes"/>
      <point x="113" y="890"/>
      <point x="83" y="880"/>
    </contour>
  </outline>
</glyph>
<glyph name="bracketright" format="1">
  <advance width="600"/>
  <unicode hex="005D"/>
  <outline>
    <contour>
      <point x="409" y="235" type="line"/>
      <point x="547" y="798" type="line"/>
      <point x="544" y="832"/>
      <point x="534" y="855"/>
      <point x="512" y="877" type="curve"/>
      <point x="174" y="888" type="line"/>
      <point x="161" y="870"/>
      <point x="166" y="850"/>
      <point x="187" y="817" type="curve"/>
      <point x="377" y="822" type="line"/>
      <point x="307" y="420" type="line"/>
      <point x="233" y="-4" type="line"/>
      <point x="20" y="-8" type="line"/>
      <point x="4" y="-43"/>
      <point x="6" y="-66"/>
      <point x="22" y="-91" type="curve"/>
      <point x="392" y="-45" type="line"/>
    </contour>
  </outline>
</glyph>
<glyph name="asciicircum" format="1">
  <advance width="535"/>
  <unicode hex="005E"/>
  <outline>
    <contour>
      <point x="54" y="420" type="line"/>
      <point x="58" y="398"/>
      <point x="83" y="386"/>
      <point x="113" y="388" type="curve"/>
      <point x="320" y="729" type="line"/>
      <point x="405" y="401" type="line"/>
      <point x="431" y="388"/>
      <point x="491" y="375"/>
      <point x="536" y="414" type="curve"/>
      <point x="421" y="781" type="line"/>
      <point x="389" y="801"/>
      <point x="346" y="808"/>
      <point x="291" y="797" type="curve"/>
    </contour>
  </outline>
</glyph>
<glyph name="underscore" format="1">
  <advance width="656"/>
  <unicode hex="005F"/>
  <outline>
    <contour>
      <point x="530" y="-47" type="curve"/>
      <point x="269" y="-65" type="line"/>
      <point x="8" y="-60" type="line"/>
      <point x="-15" y="-91"/>
      <point x="-19" y="-123"/>
      <point x="-4" y="-140" type="curve"/>
      <point x="514" y="-131" type="line"/>
      <point x="543" y="-97"/>
      <point x="547" y="-58"/>
    </contour>
  </outline>
</glyph>
<glyph name="grave" format="1">
  <advance width="271"/>
  <unicode hex="0060"/>
  <outline>
    <contour>
      <point x="255" y="580" type="move" name="_top"/>
    </contour>
    <contour>
      <point x="244" y="817" type="line"/>
      <point x="202" y="834"/>
      <point x="132" y="823"/>
      <point x="109" y="769" type="curve"/>
      <point x="195" y="688" type="line"/>
      <point x="255" y="602" type="line"/>
      <point x="281" y="595"/>
      <point x="310" y="604"/>
      <point x="320" y="623" type="curve"/>
    </contour>
  </outline>
</glyph>
<glyph name="a" format="1">
  <advance width="625"/>
  <unicode hex="0061"/>
  <outline>
    <contour>
      <point x="407" y="580" type="move" name="top"/>
    </contour>
    <contour>
      <point x="460" y="0" type="move" name="ogonek"/>
    </contour>
    <contour>
      <point x="408" y="262" type="line"/>
      <point x="353" y="215"/>
      <point x="291" y="162"/>
      <point x="231" y="110" type="curve"/>
      <point x="195" y="131"/>
      <point x="183" y="164"/>
      <point x="183" y="207" type="curve" smooth="yes"/>
      <point x="183" y="315"/>
      <point x="243" y="419"/>
      <point x="346" y="465" type="curve"/>
      <point x="385" y="441"/>
      <point x="410" y="411"/>
      <point x="430" y="369" type="curve"/>
      <point x="473" y="398" type="line"/>
      <point x="449" y="453"/>
      <point x="405" y="520"/>
      <point x="355" y="550" type="curve"/>
      <point x="170" y="546"/>
      <point x="31" y="360"/>
      <point x="33" y="201" type="curve" smooth="yes"/>
      <point x="33" y="98"/>
      <point x="96" y="19"/>
      <point x="240" y="14" type="curve"/>
      <point x="307" y="86"/>
      <point x="394" y="170"/>
      <point x="438" y="221" type="curve"/>
    </contour>
    <contour>
      <point x="469" y="549" type="curve"/>
      <point x="457" y="524"/>
      <point x="452" y="491"/>
      <point x="452" y="442" type="curve"/>
      <point x="430" y="369" type="line"/>
      <point x="408" y="262" type="line"/>
      <point x="377" y="168" type="line"/>
      <point x="396" y="149" type="line"/>
      <point x="352" y="41" type="line"/>
      <point x="398" y="0"/>
      <point x="482" y="-11"/>
      <point x="525" y="14" type="curve"/>
      <point x="525" y="137"/>
      <point x="528" y="250"/>
      <point x="538" y="349" type="curve"/>
      <point x="623" y="507" type="line"/>
      <point x="603" y="551"/>
      <point x="559" y="560"/>
    </contour>
  </outline>
</glyph>
<glyph name="b" format="1">
  <advance width="598"/>
  <unicode hex="0062"/>
  <outline>
    <contour>
      <point x="314" y="819" type="line"/>
      <point x="268" y="839"/>
      <point x="221" y="835"/>
      <point x="147" y="798" type="curve"/>
      <point x="144" y="539" type="line"/>
      <point x="117" y="395"/>
      <point x="79" y="236"/>
      <point x="42" y="106" type="curve"/>
      <point x="54" y="60"/>
      <point x="94" y="17"/>
      <point x="186" y="0" type="curve"/>
      <point x="374" y="38"/>
      <point x="534" y="135"/>
      <point x="585" y="323" type="curve"/>
      <point x="562" y="453"/>
      <point x="514" y="522"/>
      <point x="353" y="550" type="curve"/>
      <point x="289" y="484"/>
      <point x="233" y="419"/>
      <point x="170" y="336" type="curve"/>
      <point x="204" y="295" type="line"/>
      <point x="261" y="360"/>
      <point x="310" y="409"/>
      <point x="358" y="448" type="curve"/>
      <point x="412" y="425"/>
      <point x="436" y="393"/>
      <point x="447" y="328" type="curve"/>
      <point x="426" y="212"/>
      <point x="324" y="107"/>
      <point x="162" y="76" type="curve"/>
      <point x="181" y="66" type="line"/>
      <point x="202" y="165"/>
      <point x="216" y="262"/>
      <point x="226" y="377" type="curve"/>
      <point x="200" y="404" type="line"/>
      <point x="238" y="469" type="line"/>
      <point x="254" y="571" type="line"/>
    </contour>
  </outline>
</glyph>
<glyph name="c" format="1">
  <advance width="550"/>
  <unicode hex="0063"/>
  <outline>
    <contour>
      <point x="346" y="580" type="move" name="top"/>
    </contour>
    <contour>
      <point x="315" y="0" type="move" name="bottom"/>
    </contour>
    <contour>
      <point x="356" y="555" type="curve"/>
      <point x="243" y="531"/>
      <point x="153" y="458"/>
      <point x="91" y="385" type="curve"/>
      <point x="61" y="343"/>
      <point x="38" y="298"/>
      <point x="37" y="238" type="curve" smooth="yes"/>
      <point x="34" y="132"/>
      <point x="90" y="29"/>
      <point x="254" y="0" type="curve"/>
      <point x="345" y="13"/>
      <point x="451" y="65"/>
      <point x="498" y="114" type="curve"/>
      <point x="507" y="156"/>
      <point x="493" y="178"/>
      <point x="455" y="177" type="curve"/>
      <point x="409" y="137"/>
      <point x="336" y="104"/>
      <point x="275" y="86" type="curve"/>
      <point x="201" y="129"/>
      <point x="182" y="186"/>
      <point x="186" y="265" type="curve" smooth="yes"/>
      <point x="188" y="330"/>
      <point x="231" y="415"/>
      <point x="306" y="471" type="curve"/>
      <point x="330" y="476" type="line"/>
      <point x="359" y="442"/>
      <point x="375" y="410"/>
      <point x="373" y="348" type="curve"/>
      <point x="440" y="334"/>
      <point x="497" y="351"/>
      <point x="519" y="395" type="curve"/>
      <point x="502" y="476"/>
      <point x="460" y="537"/>
    </contour>
  </outline>
</glyph>
<glyph name="d" format="1">
  <advance width="589"/>
  <unicode hex="0064"/>
  <outline>
    <contour>
      <point x="408" y="262" type="line"/>
      <point x="353" y="215"/>
      <point x="291" y="162"/>
      <point x="230" y="110" type="curve"/>
      <point x="195" y="131"/>
      <point x="183" y="164"/>
      <point x="183" y="207" type="curve" smooth="yes"/>
      <point x="185" y="314"/>
      <point x="245" y="422"/>
      <point x="349" y="468" type="curve"/>
      <point x="390" y="442"/>
      <point x="410" y="411"/>
      <point x="434" y="369" type="curve"/>
      <point x="473" y="398" type="line"/>
      <point x="452" y="456"/>
      <point x="414" y="532"/>
      <point x="360" y="550" type="curve" smooth="yes"/>
      <point x="174" y="548"/>
      <point x="33" y="364"/>
      <point x="32" y="201" type="curve" smooth="yes"/>
      <point x="31" y="97"/>
      <point x="101" y="16"/>
      <point x="239" y="14" type="curve"/>
      <point x="309" y="89"/>
      <point x="395" y="171"/>
      <point x="438" y="221" type="curve"/>
    </contour>
    <contour>
      <point x="642" y="819" type="line"/>
      <point x="598" y="840"/>
      <point x="550" y="835"/>
      <point x="473" y="798" type="curve"/>
      <point x="476" y="539" type="line"/>
      <point x="464" y="480"/>
      <point x="450" y="424"/>
      <point x="434" y="369" type="curve"/>
      <point x="408" y="262" type="line"/>
      <point x="366" y="173" type="line"/>
      <point x="391" y="148" type="line"/>
      <point x="338" y="39" type="line"/>
      <point x="372" y="-4"/>
      <point x="453" y="-9"/>
      <point x="503" y="14" type="curve"/>
      <point x="527" y="194"/>
      <point x="559" y="415"/>
      <point x="578" y="584" type="curve"/>
    </contour>
  </outline>
</glyph>
<glyph name="e" format="1">
  <advance width="553"/>
  <unicode hex="0065"/>
  <outline>
    <contour>
      <point x="340" y="580" type="move" name="top"/>
    </contour>
    <contour>
      <point x="312" y="0" type="move" name="ogonek"/>
    </contour>
    <contour>
      <point x="162" y="203" type="line"/>
      <point x="272" y="223"/>
      <point x="398" y="268"/>
      <point x="502" y="318" type="curve"/>
      <point x="531" y="433"/>
      <point x="492" y="536"/>
      <point x="352" y="559" type="curve"/>
      <point x="227" y="524"/>
      <point x="147" y="453"/>
      <point x="85" y="388" type="curve"/>
      <point x="55" y="344"/>
      <point x="35" y="295"/>
      <point x="33" y="241" type="curve" smooth="yes"/>
      <point x="30" y="127"/>
      <point x="95" y="28"/>
      <point x="249" y="0" type="curve"/>
      <point x="326" y="11"/>
      <point x="452" y="58"/>
      <point x="497" y="107" type="curve"/>
      <point x="504" y="154"/>
      <point x="488" y="171"/>
      <point x="451" y="170" type="curve"/>
      <point x="400" y="130"/>
      <point x="332" y="102"/>
      <point x="267" y="87" type="curve"/>
      <point x="194" y="126"/>
      <point x="175" y="182"/>
      <point x="177" y="268" type="curve" smooth="yes"/>
      <point x="179" y="335"/>
      <point x="229" y="422"/>
      <point x="303" y="472" type="curve"/>
      <point x="320" y="478" type="line"/>
      <point x="366" y="452"/>
      <point x="386" y="412"/>
      <point x="377" y="342" type="curve"/>
      <point x="309" y="309"/>
      <point x="238" y="281"/>
      <point x="151" y="258" type="curve"/>
    </contour>
  </outline>
</glyph>
<glyph name="f" format="1">
  <advance width="462"/>
  <unicode hex="0066"/>
  <outline>
    <contour>
      <point x="348" y="770" type="curve"/>
      <point x="385" y="737"/>
      <point x="399" y="708"/>
      <point x="403" y="645" type="curve"/>
      <point x="461" y="631"/>
      <point x="521" y="649"/>
      <point x="542" y="693" type="curve"/>
      <point x="524" y="771"/>
      <point x="480" y="831"/>
      <point x="378" y="851" type="curve"/>
      <point x="291" y="842"/>
      <point x="210" y="788"/>
      <point x="155" y="714" type="curve"/>
      <point x="174" y="473" type="line"/>
      <point x="145" y="325"/>
      <point x="104" y="179"/>
      <point x="53" y="39" type="curve"/>
      <point x="75" y="2"/>
      <point x="162" y="-12"/>
      <point x="217" y="14" type="curve"/>
      <point x="248" y="210"/>
      <point x="291" y="567"/>
      <point x="282" y="733" type="curve"/>
      <point x="300" y="752"/>
      <point x="322" y="764"/>
    </contour>
    <contour>
      <point x="187" y="465" type="line"/>
      <point x="31" y="466" type="line"/>
      <point x="6" y="432"/>
      <point x="6" y="403"/>
      <point x="30" y="376" type="curve"/>
      <point x="250" y="416" type="line"/>
      <point x="449" y="426" type="line"/>
      <point x="473" y="466"/>
      <point x="472" y="498"/>
      <point x="450" y="515" type="curve"/>
    </contour>
  </outline>
</glyph>
<glyph name="g" format="1">
  <advance width="600"/>
  <unicode hex="0067"/>
  <outline>
    <contour>
      <point x="395" y="580" type="move" name="top"/>
    </contour>
    <contour>
      <point x="360" y="66" type="line"/>
      <point x="346" y="-25"/>
      <point x="339" y="-82"/>
      <point x="314" y="-178" type="curve"/>
      <point x="304" y="-192"/>
      <point x="283" y="-200"/>
      <point x="261" y="-199" type="curve"/>
      <point x="212" y="-151"/>
      <point x="189" y="-106"/>
      <point x="182" y="-46" type="curve"/>
      <point x="134" y="-18"/>
      <point x="77" y="-39"/>
      <point x="38" y="-99" type="curve"/>
      <point x="56" y="-174"/>
      <point x="118" y="-243"/>
      <point x="224" y="-294" type="curve"/>
      <point x="322" y="-290"/>
      <point x="407" y="-263"/>
      <point x="451" y="-198" type="curve"/>
      <point x="470" y="-51"/>
      <point x="499" y="181"/>
      <point x="530" y="330" type="curve"/>
      <point x="621" y="507" type="line"/>
      <point x="598" y="550"/>
      <point x="556" y="561"/>
      <point x="466" y="547" type="curve"/>
      <point x="455" y="525"/>
      <point x="450" y="492"/>
      <point x="449" y="445" type="curve"/>
      <point x="430" y="370" type="line"/>
      <point x="408" y="262" type="line"/>
      <point x="379" y="172" type="line"/>
      <point x="399" y="154" type="line"/>
    </contour>
    <contour>
      <point x="408" y="262" type="line"/>
      <point x="353" y="215"/>
      <point x="291" y="162"/>
      <point x="231" y="110" type="curve"/>
      <point x="196" y="131"/>
      <point x="183" y="164"/>
      <point x="183" y="211" type="curve" smooth="yes"/>
      <point x="184" y="319"/>
      <point x="244" y="422"/>
      <point x="348" y="468" type="curve"/>
      <point x="385" y="444"/>
      <point x="407" y="413"/>
      <point x="429" y="369" type="curve"/>
      <point x="472" y="398" type="line"/>
      <point x="449" y="453"/>
      <point x="410" y="530"/>
      <point x="353" y="550" type="curve" smooth="yes"/>
      <point x="172" y="548"/>
      <point x="33" y="361"/>
      <point x="32" y="201" type="curve" smooth="yes"/>
      <point x="31" y="98"/>
      <point x="97" y="19"/>
      <point x="241" y="14" type="curve"/>
      <point x="308" y="86"/>
      <point x="394" y="170"/>
      <point x="438" y="221" type="curve"/>
    </contour>
  </outline>
</glyph>
<glyph name="h" format="1">
  <advance width="613"/>
  <unicode hex="0068"/>
  <outline>
    <contour>
      <point x="534" y="14" type="curve"/>
      <point x="529" y="127"/>
      <point x="533" y="234"/>
      <point x="539" y="307" type="curve"/>
      <point x="582" y="416" type="line"/>
      <point x="566" y="471"/>
      <point x="518" y="542"/>
      <point x="413" y="550" type="curve"/>
      <point x="313" y="494"/>
      <point x="243" y="420"/>
      <point x="174" y="336" type="curve"/>
      <point x="212" y="291" type="line"/>
      <point x="276" y="364"/>
      <point x="334" y="415"/>
      <point x="396" y="443" type="curve"/>
      <point x="418" y="433"/>
      <point x="431" y="417"/>
      <point x="436" y="389" type="curve"/>
      <point x="412" y="285"/>
      <point x="383" y="158"/>
      <point x="368" y="40" type="curve"/>
      <point x="412" y="0"/>
      <point x="489" y="-11"/>
    </contour>
    <contour>
      <point x="24" y="39" type="curve"/>
      <point x="45" y="2"/>
      <point x="132" y="-12"/>
      <point x="188" y="14" type="curve"/>
      <point x="208" y="136"/>
      <point x="223" y="248"/>
      <point x="233" y="377" type="curve"/>
      <point x="212" y="406" type="line"/>
      <point x="250" y="453" type="line"/>
      <point x="256" y="582" type="line"/>
      <point x="318" y="819" type="line"/>
      <point x="269" y="839"/>
      <point x="223" y="835"/>
      <point x="148" y="792" type="curve"/>
      <point x="146" y="539" type="line"/>
      <point x="125" y="407"/>
      <point x="82" y="205"/>
    </contour>
  </outline>
</glyph>
<glyph name="i" format="1">
  <advance width="286"/>
  <unicode hex="0069"/>
  <outline>
    <contour>
      <point x="157" y="0" type="move" name="ogonek"/>
    </contour>
    <contour>
      <point x="206" y="600" type="curve" smooth="yes"/>
      <point x="249" y="600"/>
      <point x="284" y="637"/>
      <point x="283" y="679" type="curve" smooth="yes"/>
      <point x="282" y="724"/>
      <point x="247" y="758"/>
      <point x="204" y="758" type="curve" smooth="yes"/>
      <point x="158" y="758"/>
      <point x="121" y="724"/>
      <point x="122" y="679" type="curve" smooth="yes"/>
      <point x="123" y="637"/>
      <point x="159" y="600"/>
    </contour>
    <contour>
      <point x="113" y="348" type="line"/>
      <point x="92" y="243"/>
      <point x="65" y="146"/>
      <point x="27" y="42" type="curve"/>
      <point x="58" y="2"/>
      <point x="144" y="-12"/>
      <point x="195" y="14" type="curve"/>
      <point x="204" y="151"/>
      <point x="211" y="262"/>
      <point x="223" y="376" type="curve"/>
      <point x="267" y="529" type="line"/>
      <point x="228" y="560"/>
      <point x="178" y="555"/>
      <point x="108" y="524" type="curve"/>
    </contour>
  </outline>
</glyph>
<glyph name="j" format="1">
  <advance width="333"/>
  <unicode hex="006A"/>
  <outline>
    <contour>
      <point x="287" y="602" type="curve" smooth="yes"/>
      <point x="329" y="602"/>
      <point x="365" y="638"/>
      <point x="365" y="680" type="curve" smooth="yes"/>
      <point x="365" y="724"/>
      <point x="328" y="759"/>
      <point x="286" y="759" type="curve" smooth="yes"/>
      <point x="240" y="759"/>
      <point x="204" y="724"/>
      <point x="205" y="680" type="curve" smooth="yes"/>
      <point x="206" y="638"/>
      <point x="242" y="602"/>
    </contour>
    <contour>
      <point x="-25" y="-42" type="curve"/>
      <point x="-72" y="-17"/>
      <point x="-128" y="-38"/>
      <point x="-164" y="-103" type="curve"/>
      <point x="-146" y="-170"/>
      <point x="-89" y="-239"/>
      <point x="-7" y="-287" type="curve"/>
      <point x="93" y="-298"/>
      <point x="176" y="-270"/>
      <point x="201" y="-218" type="curve"/>
      <point x="213" y="-30"/>
      <point x="233" y="187"/>
      <point x="253" y="328" type="curve"/>
      <point x="343" y="511" type="line"/>
      <point x="312" y="553"/>
      <point x="267" y="561"/>
      <point x="180" y="547" type="curve"/>
      <point x="123" y="280"/>
      <point x="100" y="56"/>
      <point x="69" y="-190" type="curve"/>
      <point x="48" y="-199" type="line"/>
      <point x="9" y="-158"/>
      <point x="-17" y="-109"/>
    </contour>
  </outline>
</glyph>
<glyph name="k" format="1">
  <advance width="575"/>
  <unicode hex="006B"/>
  <outline>
    <contour>
      <point x="306" y="0" type="move" name="bottom"/>
    </contour>
    <contour>
      <point x="149" y="566" type="line"/>
      <point x="120" y="405"/>
      <point x="79" y="205"/>
      <point x="20" y="41" type="curve"/>
      <point x="41" y="1"/>
      <point x="129" y="-12"/>
      <point x="184" y="15" type="curve"/>
      <point x="202" y="137"/>
      <point x="211" y="238"/>
      <point x="223" y="322" type="curve"/>
      <point x="203" y="358" type="line"/>
      <point x="234" y="402" type="line"/>
      <point x="268" y="630"/>
      <point x="281" y="739"/>
      <point x="271" y="822" type="curve"/>
      <point x="229" y="831"/>
      <point x="174" y="833"/>
      <point x="118" y="780" type="curve"/>
    </contour>
    <contour>
      <point x="444" y="0" type="curve"/>
      <point x="512" y="28"/>
      <point x="544" y="90"/>
      <point x="513" y="128" type="curve"/>
      <point x="360" y="167"/>
      <point x="280" y="239"/>
      <point x="231" y="331" type="curve"/>
      <point x="208" y="277" type="line"/>
      <point x="306" y="351"/>
      <point x="415" y="396"/>
      <point x="530" y="425" type="curve"/>
      <point x="570" y="487"/>
      <point x="535" y="548"/>
      <point x="484" y="555" type="curve"/>
      <point x="359" y="487"/>
      <point x="278" y="418"/>
      <point x="176" y="313" type="curve"/>
      <point x="214" y="192"/>
      <point x="315" y="66"/>
    </contour>
  </outline>
</glyph>
<glyph name="l" format="1">
  <advance width="302"/>
  <unicode hex="006C"/>
  <outline>
    <contour>
      <point x="213" y="850" type="move" name="top"/>
    </contour>
    <contour>
      <point x="148" y="0" type="move" name="bottom"/>
    </contour>
    <contour>
      <point x="148" y="539" type="line"/>
      <point x="121" y="361"/>
      <point x="87" y="215"/>
      <point x="32" y="42" type="curve"/>
      <point x="53" y="2"/>
      <point x="154" y="-12"/>
      <point x="204" y="15" type="curve"/>
      <point x="224" y="209"/>
      <point x="239" y="395"/>
      <point x="256" y="586" type="curve"/>
      <point x="320" y="818" type="line"/>
      <point x="271" y="840"/>
      <point x="214" y="831"/>
      <point x="150" y="792" type="curve"/>
    </contour>
  </outline>
</glyph>
<glyph name="m" format="1">
  <advance width="897"/>
  <unicode hex="006D"/>
  <outline>
    <contour>
      <point x="504" y="14" type="curve"/>
      <point x="500" y="147"/>
      <point x="505" y="241"/>
      <point x="528" y="328" type="curve"/>
      <point x="581" y="383"/>
      <point x="624" y="418"/>
      <point x="677" y="443" type="curve"/>
      <point x="698" y="433"/>
      <point x="710" y="418"/>
      <point x="718" y="390" type="curve"/>
      <point x="694" y="290"/>
      <point x="668" y="163"/>
      <point x="652" y="40" type="curve"/>
      <point x="697" y="0"/>
      <point x="773" y="-11"/>
      <point x="818" y="14" type="curve"/>
      <point x="814" y="122"/>
      <point x="816" y="230"/>
      <point x="821" y="296" type="curve"/>
      <point x="862" y="415" type="line"/>
      <point x="850" y="473"/>
      <point x="792" y="540"/>
      <point x="693" y="550" type="curve"/>
      <point x="629" y="514"/>
      <point x="567" y="458"/>
      <point x="516" y="403" type="curve"/>
      <point x="506" y="410" type="line"/>
      <point x="547" y="470" type="line"/>
      <point x="512" y="513"/>
      <point x="467" y="545"/>
      <point x="398" y="550" type="curve"/>
      <point x="312" y="500"/>
      <point x="262" y="444"/>
      <point x="218" y="392" type="curve"/>
      <point x="207" y="406" type="line"/>
      <point x="239" y="453" type="line"/>
      <point x="246" y="503"/>
      <point x="246" y="524"/>
      <point x="238" y="547" type="curve"/>
      <point x="190" y="559"/>
      <point x="136" y="553"/>
      <point x="87" y="508" type="curve"/>
      <point x="116" y="358" type="line"/>
      <point x="93" y="260"/>
      <point x="61" y="149"/>
      <point x="23" y="39" type="curve"/>
      <point x="45" y="2"/>
      <point x="132" y="-12"/>
      <point x="188" y="14" type="curve"/>
      <point x="203" y="115"/>
      <point x="215" y="209"/>
      <point x="224" y="308" type="curve"/>
      <point x="278" y="372"/>
      <point x="321" y="416"/>
      <point x="374" y="446" type="curve"/>
      <point x="400" y="436"/>
      <point x="415" y="422"/>
      <point x="429" y="396" type="curve"/>
      <point x="394" y="284"/>
      <point x="372" y="174"/>
      <point x="349" y="36" type="curve"/>
      <point x="366" y="9"/>
      <point x="432" y="-16"/>
    </contour>
  </outline>
</glyph>
<glyph name="n" format="1">
  <advance width="612"/>
  <unicode hex="006E"/>
  <outline>
    <contour>
      <point x="340" y="580" type="move" name="top"/>
    </contour>
    <contour>
      <point x="311" y="0" type="move" name="bottom"/>
    </contour>
    <contour>
      <point x="533" y="14" type="curve"/>
      <point x="528" y="122"/>
      <point x="531" y="230"/>
      <point x="536" y="296" type="curve"/>
      <point x="577" y="416" type="line"/>
      <point x="561" y="471"/>
      <point x="508" y="542"/>
      <point x="407" y="550" type="curve"/>
      <point x="306" y="495"/>
      <point x="233" y="421"/>
      <point x="170" y="336" type="curve"/>
      <point x="208" y="291" type="line"/>
      <point x="273" y="364"/>
      <point x="329" y="412"/>
      <point x="392" y="443" type="curve"/>
      <point x="413" y="432"/>
      <point x="426" y="417"/>
      <point x="432" y="389" type="curve"/>
      <point x="408" y="285"/>
      <point x="381" y="161"/>
      <point x="367" y="40" type="curve"/>
      <point x="411" y="0"/>
      <point x="488" y="-11"/>
    </contour>
    <contour>
      <point x="116" y="358" type="line"/>
      <point x="93" y="260"/>
      <point x="61" y="149"/>
      <point x="23" y="39" type="curve"/>
      <point x="45" y="2"/>
      <point x="132" y="-12"/>
      <point x="188" y="14" type="curve"/>
      <point x="207" y="141"/>
      <point x="220" y="254"/>
      <point x="228" y="380" type="curve"/>
      <point x="207" y="406" type="line"/>
      <point x="239" y="453" type="line"/>
      <point x="246" y="503"/>
      <point x="246" y="524"/>
      <point x="238" y="551" type="curve"/>
      <point x="191" y="558"/>
      <point x="137" y="551"/>
      <point x="87" y="508" type="curve"/>
    </contour>
  </outline>
</glyph>
<glyph name="o" format="1">
  <advance width="560"/>
  <unicode hex="006F"/>
  <outline>
    <contour>
      <point x="331" y="580" type="move" name="top"/>
    </contour>
    <contour>
      <point x="28" y="239" type="curve" smooth="yes"/>
      <point x="28" y="362"/>
      <point x="174" y="561"/>
      <point x="334" y="561" type="curve" smooth="yes"/>
      <point x="423" y="561"/>
      <point x="533" y="401"/>
      <point x="535" y="302" type="curve" smooth="yes"/>
      <point x="537" y="168"/>
      <point x="369" y="0"/>
      <point x="229" y="0" type="curve"/>
      <point x="142" y="0"/>
      <point x="28" y="113"/>
    </contour>
    <contour>
      <point x="318" y="487" type="curve"/>
      <point x="226" y="425"/>
      <point x="174" y="336"/>
      <point x="161" y="242" type="curve"/>
      <point x="163" y="173"/>
      <point x="191" y="115"/>
      <point x="238" y="73" type="curve"/>
      <point x="336" y="124"/>
      <point x="387" y="190"/>
      <point x="409" y="285" type="curve"/>
      <point x="401" y="363"/>
      <point x="370" y="432"/>
    </contour>
  </outline>
</glyph>
<glyph name="p" format="1">
  <advance width="601"/>
  <unicode hex="0070"/>
  <outline>
    <contour>
      <point x="129" y="84" type="line"/>
      <point x="158" y="52"/>
      <point x="210" y="15"/>
      <point x="292" y="0" type="curve"/>
      <point x="441" y="69"/>
      <point x="550" y="158"/>
      <point x="590" y="305" type="curve"/>
      <point x="570" y="439"/>
      <point x="513" y="526"/>
      <point x="350" y="550" type="curve"/>
      <point x="285" y="489"/>
      <point x="234" y="420"/>
      <point x="168" y="336" type="curve"/>
      <point x="206" y="291" type="line"/>
      <point x="260" y="359"/>
      <point x="305" y="408"/>
      <point x="356" y="448" type="curve"/>
      <point x="411" y="426"/>
      <point x="448" y="375"/>
      <point x="452" y="311" type="curve"/>
      <point x="429" y="205"/>
      <point x="374" y="141"/>
      <point x="286" y="82" type="curve"/>
      <point x="236" y="93"/>
      <point x="197" y="116"/>
      <point x="171" y="140" type="curve"/>
    </contour>
    <contour>
      <point x="-20" y="-240" type="curve"/>
      <point x="8" y="-277"/>
      <point x="88" y="-290"/>
      <point x="146" y="-264" type="curve"/>
      <point x="179" y="-114"/>
      <point x="210" y="198"/>
      <point x="225" y="380" type="curve"/>
      <point x="203" y="406" type="line"/>
      <point x="234" y="453" type="line"/>
      <point x="242" y="503"/>
      <point x="242" y="524"/>
      <point x="233" y="550" type="curve"/>
      <point x="184" y="558"/>
      <point x="132" y="551"/>
      <point x="83" y="508" type="curve"/>
      <point x="114" y="346" type="line"/>
      <point x="92" y="173"/>
      <point x="44" y="-50"/>
    </contour>
  </outline>
</glyph>
<glyph name="q" format="1">
  <advance width="609"/>
  <unicode hex="0071"/>
  <outline>
    <contour>
      <point x="436" y="-138" type="line"/>
      <point x="474" y="24"/>
      <point x="499" y="171"/>
      <point x="534" y="349" type="curve"/>
      <point x="616" y="507" type="line"/>
      <point x="594" y="551"/>
      <point x="549" y="561"/>
      <point x="462" y="549" type="curve"/>
      <point x="449" y="524"/>
      <point x="445" y="491"/>
      <point x="446" y="442" type="curve"/>
      <point x="402" y="204" type="line"/>
      <point x="375" y="79"/>
      <point x="326" y="-86"/>
      <point x="291" y="-197" type="curve"/>
      <point x="291" y="-232"/>
      <point x="325" y="-269"/>
      <point x="412" y="-285" type="curve"/>
      <point x="479" y="-211"/>
      <point x="558" y="-128"/>
      <point x="598" y="-73" type="curve"/>
      <point x="597" y="-48"/>
      <point x="586" y="-36"/>
      <point x="564" y="-37" type="curve"/>
      <point x="535" y="-62"/>
      <point x="478" y="-117"/>
      <point x="444" y="-145" type="curve"/>
    </contour>
    <contour>
      <point x="423" y="270" type="line"/>
      <point x="369" y="222"/>
      <point x="301" y="162"/>
      <point x="241" y="110" type="curve"/>
      <point x="200" y="130"/>
      <point x="183" y="163"/>
      <point x="183" y="207" type="curve" smooth="yes"/>
      <point x="183" y="315"/>
      <point x="243" y="422"/>
      <point x="346" y="468" type="curve"/>
      <point x="386" y="442"/>
      <point x="407" y="411"/>
      <point x="435" y="360" type="curve"/>
      <point x="476" y="393" type="line"/>
      <point x="446" y="453"/>
      <point x="407" y="530"/>
      <point x="349" y="550" type="curve" smooth="yes"/>
      <point x="171" y="545"/>
      <point x="30" y="361"/>
      <point x="32" y="201" type="curve" smooth="yes"/>
      <point x="33" y="91"/>
      <point x="106" y="16"/>
      <point x="253" y="14" type="curve"/>
      <point x="318" y="86"/>
      <point x="410" y="178"/>
      <point x="453" y="228" type="curve"/>
    </contour>
  </outline>
</glyph>
<glyph name="r" format="1">
  <advance width="487"/>
  <unicode hex="0072"/>
  <outline>
    <contour>
      <point x="278" y="580" type="move" name="top"/>
    </contour>
    <contour>
      <point x="147" y="0" type="move" name="bottom"/>
    </contour>
    <contour>
      <point x="496" y="389" type="curve"/>
      <point x="494" y="478"/>
      <point x="441" y="536"/>
      <point x="369" y="550" type="curve"/>
      <point x="300" y="479"/>
      <point x="233" y="406"/>
      <point x="171" y="338" type="curve"/>
      <point x="208" y="300" type="line"/>
      <point x="263" y="359"/>
      <point x="299" y="395"/>
      <point x="336" y="432" type="curve"/>
      <point x="346" y="421"/>
      <point x="355" y="397"/>
      <point x="354" y="368" type="curve"/>
      <point x="399" y="345"/>
      <point x="452" y="351"/>
    </contour>
    <contour>
      <point x="119" y="358" type="line"/>
      <point x="96" y="260"/>
      <point x="64" y="149"/>
      <point x="26" y="39" type="curve"/>
      <point x="48" y="2"/>
      <point x="135" y="-12"/>
      <point x="191" y="14" type="curve"/>
      <point x="210" y="141"/>
      <point x="223" y="254"/>
      <point x="232" y="380" type="curve"/>
      <point x="210" y="406" type="line"/>
      <point x="241" y="453" type="line"/>
      <point x="249" y="505"/>
      <point x="249" y="525"/>
      <point x="241" y="551" type="curve"/>
      <point x="193" y="559"/>
      <point x="137" y="549"/>
      <point x="91" y="508" type="curve"/>
    </contour>
  </outline>
</glyph>
<glyph name="s" format="1">
  <advance width="523"/>
  <unicode hex="0073"/>
  <outline>
    <contour>
      <point x="309" y="580" type="move" name="top"/>
    </contour>
    <contour>
      <point x="253" y="0" type="move" name="bottom"/>
    </contour>
    <contour>
      <point x="473" y="183" type="curve"/>
      <point x="440" y="304"/>
      <point x="191" y="358"/>
      <point x="191" y="410" type="curve" smooth="yes"/>
      <point x="191" y="439"/>
      <point x="250" y="486"/>
      <point x="308" y="504" type="curve"/>
      <point x="339" y="469"/>
      <point x="352" y="436"/>
      <point x="359" y="391" type="curve"/>
      <point x="436" y="378"/>
      <point x="475" y="402"/>
      <point x="479" y="441" type="curve"/>
      <point x="453" y="512"/>
      <point x="405" y="549"/>
      <point x="326" y="568" type="curve"/>
      <point x="207" y="560"/>
      <point x="99" y="490"/>
      <point x="64" y="383" type="curve"/>
      <point x="100" y="266"/>
      <point x="338" y="214"/>
      <point x="339" y="164" type="curve" smooth="yes"/>
      <point x="339" y="125"/>
      <point x="289" y="77"/>
      <point x="211" y="60" type="curve"/>
      <point x="169" y="101"/>
      <point x="152" y="136"/>
      <point x="141" y="199" type="curve"/>
      <point x="79" y="217"/>
      <point x="45" y="183"/>
      <point x="20" y="132" type="curve"/>
      <point x="43" y="71"/>
      <point x="115" y="16"/>
      <point x="204" y="0" type="curve"/>
      <point x="342" y="5"/>
      <point x="445" y="71"/>
    </contour>
  </outline>
</glyph>
<glyph name="t" format="1">
  <advance width="476"/>
  <unicode hex="0074"/>
  <outline>
    <contour>
      <point x="235" y="0" type="move" name="bottom"/>
    </contour>
    <contour>
      <point x="211" y="538" type="line"/>
      <point x="60" y="540" type="line"/>
      <point x="36" y="505"/>
      <point x="36" y="477"/>
      <point x="60" y="449" type="curve"/>
      <point x="289" y="489" type="line"/>
      <point x="470" y="496" type="line"/>
      <point x="493" y="537"/>
      <point x="492" y="569"/>
      <point x="470" y="587" type="curve"/>
    </contour>
    <contour>
      <point x="245" y="57" type="line"/>
      <point x="262" y="228"/>
      <point x="281" y="365"/>
      <point x="293" y="521" type="curve"/>
      <point x="353" y="712" type="line"/>
      <point x="316" y="746"/>
      <point x="260" y="741"/>
      <point x="188" y="700" type="curve"/>
      <point x="198" y="512" type="line"/>
      <point x="168" y="361"/>
      <point x="141" y="255"/>
      <point x="90" y="83" type="curve"/>
      <point x="102" y="46"/>
      <point x="132" y="10"/>
      <point x="217" y="0" type="curve"/>
      <point x="304" y="18"/>
      <point x="388" y="66"/>
      <point x="439" y="111" type="curve"/>
      <point x="443" y="152"/>
      <point x="435" y="170"/>
      <point x="392" y="171" type="curve"/>
      <point x="339" y="131"/>
      <point x="280" y="100"/>
      <point x="204" y="79" type="curve"/>
    </contour>
  </outline>
</glyph>
<glyph name="u" format="1">
  <advance width="609"/>
  <unicode hex="0075"/>
  <outline>
    <contour>
      <point x="343" y="580" type="move" name="top"/>
    </contour>
    <contour>
      <point x="471" y="0" type="move" name="ogonek"/>
    </contour>
    <contour>
      <point x="443" y="547" type="curve"/>
      <point x="418" y="465"/>
      <point x="399" y="374"/>
      <point x="378" y="258" type="curve"/>
      <point x="364" y="174" type="line"/>
      <point x="389" y="153" type="line"/>
      <point x="342" y="40" type="line"/>
      <point x="388" y="0"/>
      <point x="466" y="-11"/>
      <point x="510" y="14" type="curve"/>
      <point x="507" y="137"/>
      <point x="509" y="250"/>
      <point x="517" y="349" type="curve"/>
      <point x="599" y="507" type="line"/>
      <point x="577" y="548"/>
      <point x="533" y="557"/>
    </contour>
    <contour>
      <point x="85" y="546" type="curve"/>
      <point x="90" y="453"/>
      <point x="87" y="353"/>
      <point x="88" y="287" type="curve"/>
      <point x="25" y="124" type="line"/>
      <point x="40" y="71"/>
      <point x="86" y="18"/>
      <point x="234" y="0" type="curve"/>
      <point x="311" y="82"/>
      <point x="371" y="149"/>
      <point x="417" y="220" type="curve"/>
      <point x="379" y="260" type="line"/>
      <point x="337" y="199"/>
      <point x="288" y="152"/>
      <point x="237" y="104" type="curve"/>
      <point x="193" y="117"/>
      <point x="174" y="132"/>
      <point x="167" y="153" type="curve"/>
      <point x="214" y="307"/>
      <point x="244" y="428"/>
      <point x="250" y="508" type="curve"/>
      <point x="212" y="553"/>
      <point x="146" y="562"/>
    </contour>
  </outline>
</glyph>
<glyph name="v" format="1">
  <advance width="535"/>
  <unicode hex="0076"/>
  <outline>
    <contour>
      <point x="392" y="518" type="curve"/>
      <point x="430" y="399" type="line"/>
      <point x="404" y="282"/>
      <point x="337" y="180"/>
      <point x="266" y="97" type="curve"/>
      <point x="256" y="103" type="line"/>
      <point x="269" y="284"/>
      <point x="251" y="450"/>
      <point x="181" y="550" type="curve"/>
      <point x="112" y="554"/>
      <point x="58" y="528"/>
      <point x="32" y="467" type="curve"/>
      <point x="118" y="363" type="line"/>
      <point x="143" y="279"/>
      <point x="139" y="202"/>
      <point x="118" y="71" type="curve"/>
      <point x="149" y="16"/>
      <point x="230" y="-7"/>
      <point x="302" y="3" type="curve"/>
      <point x="446" y="161"/>
      <point x="526" y="343"/>
      <point x="552" y="532" type="curve"/>
      <point x="515" y="569"/>
      <point x="450" y="563"/>
    </contour>
  </outline>
</glyph>
<glyph name="w" format="1">
  <advance width="822"/>
  <unicode hex="0077"/>
  <outline>
    <contour>
      <point x="557" y="102" type="line"/>
      <point x="575" y="278"/>
      <point x="563" y="415"/>
      <point x="497" y="542" type="curve"/>
      <point x="426" y="550"/>
      <point x="381" y="527"/>
      <point x="352" y="475" type="curve"/>
      <point x="417" y="383" type="line"/>
      <point x="377" y="277"/>
      <point x="331" y="187"/>
      <point x="259" y="99" type="curve"/>
      <point x="248" y="102" type="line"/>
      <point x="265" y="278"/>
      <point x="250" y="441"/>
      <point x="181" y="550" type="curve"/>
      <point x="105" y="554"/>
      <point x="56" y="524"/>
      <point x="32" y="467" type="curve"/>
      <point x="119" y="362" type="line"/>
      <point x="137" y="268"/>
      <point x="131" y="195"/>
      <point x="111" y="71" type="curve"/>
      <point x="136" y="21"/>
      <point x="211" y="-9"/>
      <point x="287" y="3" type="curve"/>
      <point x="369" y="109"/>
      <point x="415" y="188"/>
      <point x="451" y="278" type="curve"/>
      <point x="459" y="274" type="line"/>
      <point x="459" y="206"/>
      <point x="453" y="154"/>
      <point x="432" y="74" type="curve"/>
      <point x="457" y="18"/>
      <point x="535" y="-9"/>
      <point x="606" y="2" type="curve"/>
      <point x="752" y="171"/>
      <point x="822" y="358"/>
      <point x="839" y="538" type="curve"/>
      <point x="801" y="573"/>
      <point x="738" y="566"/>
      <point x="679" y="519" type="curve"/>
      <point x="720" y="402" type="line"/>
      <point x="693" y="274"/>
      <point x="634" y="174"/>
      <point x="566" y="95" type="curve"/>
    </contour>
  </outline>
</glyph>
<glyph name="x" format="1">
  <advance width="578"/>
  <unicode hex="0078"/>
  <outline>
    <contour>
      <point x="311" y="296" type="curve"/>
      <point x="302" y="411"/>
      <point x="261" y="493"/>
      <point x="180" y="550" type="curve"/>
      <point x="115" y="536"/>
      <point x="67" y="485"/>
      <point x="80" y="411" type="curve"/>
      <point x="157" y="386"/>
      <point x="220" y="344"/>
      <point x="272" y="256" type="curve"/>
      <point x="279" y="142"/>
      <point x="329" y="61"/>
      <point x="409" y="0" type="curve"/>
      <point x="492" y="20"/>
      <point x="529" y="90"/>
      <point x="499" y="142" type="curve"/>
      <point x="416" y="171"/>
      <point x="351" y="223"/>
    </contour>
    <contour>
      <point x="462" y="550" type="curve"/>
      <point x="283" y="296" type="line"/>
      <point x="200" y="219"/>
      <point x="109" y="156"/>
      <point x="17" y="106" type="curve"/>
      <point x="6" y="57"/>
      <point x="33" y="8"/>
      <point x="117" y="0" type="curve"/>
      <point x="308" y="256" type="line"/>
      <point x="396" y="337"/>
      <point x="468" y="401"/>
      <point x="566" y="455" type="curve"/>
      <point x="563" y="513"/>
      <point x="534" y="555"/>
    </contour>
  </outline>
</glyph>
<glyph name="y" format="1">
  <advance width="569"/>
  <unicode hex="0079"/>
  <outline>
    <contour>
      <point x="343" y="580" type="move" name="top"/>
    </contour>
    <contour>
      <point x="82" y="546" type="curve"/>
      <point x="88" y="477"/>
      <point x="90" y="381"/>
      <point x="87" y="304" type="curve"/>
      <point x="37" y="167" type="line"/>
      <point x="52" y="103"/>
      <point x="120" y="55"/>
      <point x="252" y="37" type="curve"/>
      <point x="321" y="101"/>
      <point x="361" y="141"/>
      <point x="417" y="220" type="curve"/>
      <point x="379" y="260" type="line"/>
      <point x="341" y="209"/>
      <point x="302" y="174"/>
      <point x="251" y="135" type="curve"/>
      <point x="203" y="151"/>
      <point x="187" y="167"/>
      <point x="176" y="193" type="curve"/>
      <point x="215" y="321"/>
      <point x="236" y="392"/>
      <point x="250" y="507" type="curve"/>
      <point x="206" y="554"/>
      <point x="137" y="562"/>
    </contour>
    <contour>
      <point x="335" y="60" type="line"/>
      <point x="319" y="-33"/>
      <point x="309" y="-93"/>
      <point x="288" y="-184" type="curve"/>
      <point x="278" y="-196"/>
      <point x="257" y="-201"/>
      <point x="235" y="-199" type="curve"/>
      <point x="189" y="-156"/>
      <point x="166" y="-110"/>
      <point x="156" y="-46" type="curve"/>
      <point x="111" y="-19"/>
      <point x="53" y="-40"/>
      <point x="13" y="-99" type="curve"/>
      <point x="28" y="-169"/>
      <point x="90" y="-243"/>
      <point x="189" y="-290" type="curve"/>
      <point x="292" y="-293"/>
      <point x="376" y="-270"/>
      <point x="421" y="-211" type="curve"/>
      <point x="435" y="-70"/>
      <point x="472" y="192"/>
      <point x="498" y="334" type="curve"/>
      <point x="592" y="507" type="line"/>
      <point x="569" y="549"/>
      <point x="526" y="560"/>
      <point x="436" y="547" type="curve"/>
      <point x="417" y="488"/>
      <point x="401" y="395"/>
      <point x="379" y="260" type="curve"/>
      <point x="356" y="162" type="line"/>
      <point x="379" y="141" type="line"/>
    </contour>
  </outline>
</glyph>
<glyph name="z" format="1">
  <advance width="589"/>
  <unicode hex="007A"/>
  <outline>
    <contour>
      <point x="338" y="580" type="move" name="top"/>
    </contour>
    <contour>
      <point x="196" y="357" type="curve"/>
      <point x="201" y="391"/>
      <point x="213" y="429"/>
      <point x="236" y="457" type="curve"/>
      <point x="289" y="445"/>
      <point x="346" y="434"/>
      <point x="406" y="431" type="curve"/>
      <point x="410" y="422" type="line"/>
      <point x="294" y="267"/>
      <point x="27" y="183"/>
      <point x="24" y="72" type="curve" smooth="yes"/>
      <point x="23" y="46"/>
      <point x="29" y="21"/>
      <point x="46" y="0" type="curve"/>
      <point x="107" y="-5"/>
      <point x="139" y="2"/>
      <point x="158" y="25" type="curve"/>
      <point x="149" y="54" type="line"/>
      <point x="154" y="58" type="line"/>
      <point x="216" y="49"/>
      <point x="318" y="35"/>
      <point x="410" y="0" type="curve"/>
      <point x="481" y="28"/>
      <point x="522" y="74"/>
      <point x="542" y="127" type="curve"/>
      <point x="534" y="175"/>
      <point x="493" y="196"/>
      <point x="419" y="178" type="curve"/>
      <point x="412" y="151"/>
      <point x="405" y="127"/>
      <point x="390" y="97" type="curve"/>
      <point x="320" y="108"/>
      <point x="241" y="108"/>
      <point x="182" y="113" type="curve"/>
      <point x="180" y="124" type="line"/>
      <point x="318" y="206"/>
      <point x="559" y="365"/>
      <point x="582" y="492" type="curve"/>
      <point x="569" y="539"/>
      <point x="531" y="553"/>
      <point x="459" y="550" type="curve"/>
      <point x="437" y="494" type="line"/>
      <point x="350" y="504"/>
      <point x="279" y="526"/>
      <point x="197" y="550" type="curve"/>
      <point x="123" y="527"/>
      <point x="87" y="465"/>
      <point x="68" y="405" type="curve"/>
      <point x="84" y="363"/>
      <point x="120" y="347"/>
    </contour>
  </outline>
</glyph>
<glyph name="braceleft" format="1">
  <advance width="653"/>
  <unicode hex="007B"/>
  <outline>
    <contour>
      <point x="556" y="759" type="line"/>
      <point x="592" y="772"/>
      <point x="613" y="795"/>
      <point x="613" y="828" type="curve"/>
      <point x="560" y="869"/>
      <point x="499" y="900"/>
      <point x="434" y="900" type="curve" smooth="yes"/>
      <point x="379" y="900"/>
      <point x="318" y="874"/>
      <point x="279" y="830" type="curve"/>
      <point x="363" y="660"/>
      <point x="269" y="489"/>
      <point x="147" y="489" type="curve"/>
      <point x="120" y="399" type="line"/>
      <point x="177" y="375"/>
      <point x="221" y="302"/>
      <point x="218" y="228" type="curve" smooth="yes"/>
      <point x="216" y="146"/>
      <point x="176" y="72"/>
      <point x="100" y="20" type="curve"/>
      <point x="123" y="-50"/>
      <point x="186" y="-100"/>
      <point x="253" y="-117" type="curve"/>
      <point x="324" y="-113"/>
      <point x="390" y="-94"/>
      <point x="437" y="-75" type="curve"/>
      <point x="439" y="-52"/>
      <point x="425" y="-25"/>
      <point x="406" y="-12" type="curve"/>
      <point x="272" y="-39" type="line"/>
      <point x="249" y="-6" type="line"/>
      <point x="322" y="57"/>
      <point x="372" y="132"/>
      <point x="375" y="216" type="curve" smooth="yes"/>
      <point x="376" y="295"/>
      <point x="336" y="358"/>
      <point x="256" y="407" type="curve"/>
      <point x="261" y="425" type="line"/>
      <point x="353" y="426"/>
      <point x="425" y="488"/>
      <point x="447" y="582" type="curve" smooth="yes"/>
      <point x="464" y="644"/>
      <point x="456" y="725"/>
      <point x="421" y="807" type="curve"/>
      <point x="455" y="827" type="line"/>
    </contour>
  </outline>
</glyph>
<glyph name="bar" format="1">
  <advance width="292"/>
  <unicode hex="007C"/>
  <outline>
    <contour>
      <point x="129" y="553" type="line"/>
      <point x="102" y="362"/>
      <point x="37" y="17"/>
      <point x="-15" y="-155" type="curve"/>
      <point x="5" y="-195"/>
      <point x="96" y="-209"/>
      <point x="147" y="-185" type="curve"/>
      <point x="164" y="-17"/>
      <point x="222" y="350"/>
      <point x="234" y="448" type="curve"/>
      <point x="358" y="981" type="line"/>
      <point x="340" y="989"/>
      <point x="320" y="993"/>
      <point x="297" y="993" type="curve" smooth="yes"/>
      <point x="264" y="993"/>
      <point x="231" y="983"/>
      <point x="189" y="960" type="curve"/>
    </contour>
  </outline>
</glyph>
<glyph name="braceright" format="1">
  <advance width="654"/>
  <unicode hex="007D"/>
  <outline>
    <contour>
      <point x="469" y="562" type="curve" smooth="yes"/>
      <point x="472" y="644"/>
      <point x="511" y="717"/>
      <point x="587" y="770" type="curve"/>
      <point x="564" y="839"/>
      <point x="499" y="901"/>
      <point x="427" y="907" type="curve" smooth="yes"/>
      <point x="363" y="904"/>
      <point x="296" y="886"/>
      <point x="251" y="865" type="curve"/>
      <point x="249" y="841"/>
      <point x="263" y="814"/>
      <point x="281" y="802" type="curve"/>
      <point x="415" y="828" type="line"/>
      <point x="440" y="795" type="line"/>
      <point x="365" y="733"/>
      <point x="315" y="658"/>
      <point x="314" y="573" type="curve" smooth="yes"/>
      <point x="311" y="495"/>
      <point x="351" y="432"/>
      <point x="431" y="383" type="curve"/>
      <point x="426" y="365" type="line"/>
      <point x="335" y="364"/>
      <point x="263" y="302"/>
      <point x="240" y="207" type="curve" smooth="yes"/>
      <point x="223" y="145"/>
      <point x="230" y="65"/>
      <point x="266" y="-18" type="curve"/>
      <point x="232" y="-38" type="line"/>
      <point x="131" y="30" type="line"/>
      <point x="94" y="18"/>
      <point x="74" y="-5"/>
      <point x="74" y="-38" type="curve"/>
      <point x="130" y="-78"/>
      <point x="186" y="-103"/>
      <point x="253" y="-114" type="curve"/>
      <point x="315" y="-109"/>
      <point x="371" y="-86"/>
      <point x="408" y="-40" type="curve"/>
      <point x="325" y="130"/>
      <point x="419" y="300"/>
      <point x="540" y="300" type="curve"/>
      <point x="568" y="390" type="line"/>
      <point x="510" y="415"/>
      <point x="466" y="488"/>
    </contour>
  </outline>
</glyph>
<glyph name="asciitilde" format="1">
  <advance width="650"/>
  <unicode hex="007E"/>
  <outline>
    <contour>
      <point x="195" y="434" type="curve"/>
      <point x="127" y="402"/>
      <point x="81" y="363"/>
      <point x="43" y="317" type="curve"/>
      <point x="39" y="288"/>
      <point x="87" y="268"/>
      <point x="129" y="273" type="curve"/>
      <point x="196" y="349" type="line"/>
      <point x="203" y="352" type="line"/>
      <point x="262" y="307"/>
      <point x="329" y="278"/>
      <point x="445" y="266" type="curve"/>
      <point x="528" y="296"/>
      <point x="572" y="330"/>
      <point x="615" y="386" type="curve"/>
      <point x="616" y="413"/>
      <point x="578" y="430"/>
      <point x="535" y="424" type="curve"/>
      <point x="459" y="348" type="line"/>
      <point x="453" y="348" type="line"/>
      <point x="380" y="394"/>
      <point x="326" y="423"/>
    </contour>
  </outline>
</glyph>
<glyph name="cent" format="1">
  <advance width="554"/>
  <unicode hex="00A2"/>
  <outline>
    <contour>
      <point x="416" y="639" type="curve"/>
      <point x="350" y="470" type="line"/>
      <point x="248" y="-130" type="line"/>
      <point x="216" y="-138"/>
      <point x="188" y="-124"/>
      <point x="173" y="-93" type="curve"/>
      <point x="240" y="91" type="line"/>
      <point x="344" y="670" type="line"/>
      <point x="378" y="681"/>
      <point x="402" y="670"/>
    </contour>
    <contour>
      <point x="390" y="348" type="curve"/>
      <point x="383" y="415"/>
      <point x="361" y="448"/>
      <point x="333" y="477" type="curve"/>
      <point x="306" y="471" type="line"/>
      <point x="230" y="415"/>
      <point x="188" y="330"/>
      <point x="186" y="265" type="curve" smooth="yes"/>
      <point x="182" y="186"/>
      <point x="201" y="129"/>
      <point x="274" y="86" type="curve"/>
      <point x="342" y="104"/>
      <point x="413" y="137"/>
      <point x="459" y="177" type="curve"/>
      <point x="496" y="178"/>
      <point x="511" y="156"/>
      <point x="502" y="114" type="curve"/>
      <point x="454" y="65"/>
      <point x="351" y="13"/>
      <point x="254" y="0" type="curve"/>
      <point x="90" y="29"/>
      <point x="33" y="132"/>
      <point x="37" y="238" type="curve" smooth="yes"/>
      <point x="38" y="298"/>
      <point x="60" y="343"/>
      <point x="91" y="385" type="curve"/>
      <point x="152" y="458"/>
      <point x="242" y="531"/>
      <point x="355" y="555" type="curve"/>
      <point x="455" y="539"/>
      <point x="506" y="479"/>
      <point x="528" y="401" type="curve"/>
      <point x="504" y="353"/>
      <point x="449" y="336"/>
    </contour>
  </outline>
</glyph>
<glyph name="sterling" format="1">
  <advance width="674"/>
  <unicode hex="00A3"/>
  <outline>
    <contour>
      <point x="537" y="155" type="curve"/>
      <point x="463" y="93" type="line"/>
      <point x="382" y="92"/>
      <point x="294" y="101"/>
      <point x="205" y="124" type="curve"/>
      <point x="244" y="90" type="line"/>
      <point x="309" y="224"/>
      <point x="377" y="453"/>
      <point x="351" y="647" type="curve"/>
      <point x="372" y="666"/>
      <point x="403" y="678"/>
      <point x="429" y="684" type="curve"/>
      <point x="461" y="648"/>
      <point x="474" y="619"/>
      <point x="472" y="557" type="curve"/>
      <point x="540" y="543"/>
      <point x="599" y="560"/>
      <point x="620" y="604" type="curve"/>
      <point x="605" y="676"/>
      <point x="564" y="737"/>
      <point x="445" y="762" type="curve"/>
      <point x="347" y="750"/>
      <point x="263" y="699"/>
      <point x="222" y="649" type="curve"/>
      <point x="259" y="500" type="line"/>
      <point x="238" y="353"/>
      <point x="195" y="236"/>
      <point x="138" y="121" type="curve"/>
      <point x="182" y="132" type="line"/>
      <point x="92" y="167" type="line"/>
      <point x="29" y="119"/>
      <point x="24" y="48"/>
      <point x="120" y="0" type="curve"/>
      <point x="174" y="5"/>
      <point x="211" y="26"/>
      <point x="228" y="74" type="curve"/>
      <point x="181" y="54" type="line"/>
      <point x="308" y="14"/>
      <point x="426" y="4"/>
      <point x="557" y="0" type="curve"/>
      <point x="612" y="79"/>
      <point x="604" y="131"/>
    </contour>
    <contour>
      <point x="529" y="405" type="curve"/>
      <point x="254" y="377" type="line"/>
      <point x="92" y="391" type="line"/>
      <point x="74" y="360"/>
      <point x="71" y="338"/>
      <point x="84" y="322" type="curve"/>
      <point x="517" y="333" type="line"/>
      <point x="539" y="368"/>
      <point x="544" y="395"/>
    </contour>
  </outline>
</glyph>
<glyph name="currency" format="1">
  <advance width="746"/>
  <unicode hex="00A4"/>
  <outline>
    <contour>
      <point x="288" y="210" type="line"/>
      <point x="142" y="44" type="line"/>
      <point x="60" y="49"/>
      <point x="39" y="97"/>
      <point x="62" y="140" type="curve"/>
      <point x="250" y="247" type="line"/>
    </contour>
    <contour>
      <point x="692" y="151" type="line"/>
      <point x="716" y="108"/>
      <point x="695" y="60"/>
      <point x="612" y="55" type="curve"/>
      <point x="467" y="221" type="line"/>
      <point x="504" y="258" type="line"/>
    </contour>
    <contour>
      <point x="503" y="530" type="line"/>
      <point x="648" y="695" type="line"/>
      <point x="731" y="689"/>
      <point x="752" y="642"/>
      <point x="728" y="598" type="curve"/>
      <point x="540" y="492" type="line"/>
    </contour>
    <contour>
      <point x="91" y="591" type="line"/>
      <point x="69" y="635"/>
      <point x="92" y="681"/>
      <point x="175" y="684" type="curve"/>
      <point x="313" y="513" type="line"/>
      <point x="275" y="477" type="line"/>
    </contour>
    <contour>
      <point x="149" y="335" type="curve" smooth="yes"/>
      <point x="149" y="453"/>
      <point x="295" y="643"/>
      <point x="455" y="643" type="curve" smooth="yes"/>
      <point x="544" y="643"/>
      <point x="655" y="491"/>
      <point x="657" y="396" type="curve" smooth="yes"/>
      <point x="658" y="267"/>
      <point x="489" y="107"/>
      <point x="350" y="107" type="curve"/>
      <point x="263" y="107"/>
      <point x="149" y="215"/>
    </contour>
    <contour>
      <point x="439" y="572" type="curve"/>
      <point x="347" y="513"/>
      <point x="295" y="427"/>
      <point x="282" y="338" type="curve"/>
      <point x="285" y="272"/>
      <point x="311" y="218"/>
      <point x="359" y="177" type="curve"/>
      <point x="457" y="226"/>
      <point x="508" y="289"/>
      <point x="529" y="379" type="curve"/>
      <point x="522" y="454"/>
      <point x="491" y="519"/>
    </contour>
  </outline>
</glyph>
<glyph name="yen" format="1">
  <advance width="656"/>
  <unicode hex="00A5"/>
  <outline>
    <contour>
      <point x="289" y="208" type="line"/>
      <point x="95" y="208" type="line"/>
      <point x="71" y="181"/>
      <point x="69" y="138"/>
      <point x="91" y="117" type="curve"/>
      <point x="300" y="152" type="line"/>
    </contour>
    <contour>
      <point x="290" y="364" type="line"/>
      <point x="101" y="372" type="line"/>
      <point x="77" y="345"/>
      <point x="75" y="302"/>
      <point x="97" y="281" type="curve"/>
      <point x="310" y="309" type="line"/>
    </contour>
    <contour>
      <point x="405" y="319" type="line"/>
      <point x="619" y="322" type="line"/>
      <point x="648" y="360"/>
      <point x="647" y="397"/>
      <point x="620" y="411" type="curve"/>
      <point x="420" y="372" type="line"/>
    </contour>
    <contour>
      <point x="382" y="155" type="line"/>
      <point x="611" y="165" type="line"/>
      <point x="640" y="200"/>
      <point x="634" y="244"/>
      <point x="611" y="255" type="curve"/>
      <point x="387" y="220" type="line"/>
    </contour>
    <contour>
      <point x="104" y="682" type="curve"/>
      <point x="164" y="570"/>
      <point x="230" y="441"/>
      <point x="291" y="297" type="curve"/>
      <point x="275" y="226"/>
      <point x="252" y="117"/>
      <point x="223" y="35" type="curve"/>
      <point x="255" y="-2"/>
      <point x="352" y="-14"/>
      <point x="391" y="14" type="curve"/>
      <point x="398" y="132"/>
      <point x="407" y="246"/>
      <point x="426" y="334" type="curve"/>
      <point x="495" y="417"/>
      <point x="568" y="495"/>
      <point x="623" y="567" type="curve" smooth="yes"/>
      <point x="660" y="615"/>
      <point x="677" y="657"/>
      <point x="680" y="714" type="curve"/>
      <point x="643" y="752"/>
      <point x="580" y="764"/>
      <point x="491" y="722" type="curve"/>
      <point x="532" y="567" type="line"/>
      <point x="386" y="380" type="line"/>
      <point x="362" y="330" type="line"/>
      <point x="356" y="330" type="line"/>
      <point x="282" y="545" type="line"/>
      <point x="262" y="739" type="line"/>
      <point x="209" y="762"/>
      <point x="144" y="742"/>
    </contour>
  </outline>
</glyph>
<glyph name="brokenbar" format="1">
  <advance width="297"/>
  <unicode hex="00A6"/>
  <outline>
    <contour>
      <point x="172" y="761" type="line"/>
      <point x="155" y="668"/>
      <point x="136" y="609"/>
      <point x="105" y="496" type="curve"/>
      <point x="134" y="467"/>
      <point x="219" y="458"/>
      <point x="267" y="483" type="curve"/>
      <point x="275" y="577"/>
      <point x="287" y="671"/>
      <point x="290" y="715" type="curve"/>
      <point x="366" y="973" type="line"/>
      <point x="350" y="987"/>
      <point x="324" y="997"/>
      <point x="292" y="997" type="curve" smooth="yes"/>
      <point x="263" y="997"/>
      <point x="233" y="992"/>
      <point x="197" y="976" type="curve"/>
    </contour>
    <contour>
      <point x="49" y="101" type="line"/>
      <point x="31" y="9"/>
      <point x="12" y="-54"/>
      <point x="-20" y="-166" type="curve"/>
      <point x="4" y="-196"/>
      <point x="95" y="-215"/>
      <point x="143" y="-184" type="curve"/>
      <point x="151" y="-91"/>
      <point x="163" y="12"/>
      <point x="166" y="56" type="curve"/>
      <point x="235" y="304" type="line"/>
      <point x="216" y="318"/>
      <point x="193" y="326"/>
      <point x="165" y="326" type="curve" smooth="yes"/>
      <point x="138" y="326"/>
      <point x="107" y="322"/>
      <point x="74" y="309" type="curve"/>
    </contour>
  </outline>
</glyph>
<glyph name="section" format="1">
  <advance width="631"/>
  <unicode hex="00A7"/>
  <outline>
    <contour>
      <point x="403" y="753" type="curve"/>
      <point x="273" y="741"/>
      <point x="162" y="685"/>
      <point x="96" y="562" type="curve"/>
      <point x="109" y="506"/>
      <point x="158" y="469"/>
      <point x="223" y="429" type="curve"/>
      <point x="155" y="402"/>
      <point x="93" y="351"/>
      <point x="52" y="272" type="curve"/>
      <point x="80" y="112"/>
      <point x="404" y="62"/>
      <point x="404" y="-4" type="curve" smooth="yes"/>
      <point x="403" y="-65"/>
      <point x="340" y="-112"/>
      <point x="253" y="-133" type="curve"/>
      <point x="183" y="-78"/>
      <point x="164" y="-41"/>
      <point x="142" y="27" type="curve"/>
      <point x="76" y="50"/>
      <point x="32" y="5"/>
      <point x="-4" y="-72" type="curve"/>
      <point x="36" y="-123"/>
      <point x="131" y="-185"/>
      <point x="243" y="-209" type="curve"/>
      <point x="412" y="-187"/>
      <point x="529" y="-113"/>
      <point x="558" y="22" type="curve"/>
      <point x="540" y="62"/>
      <point x="498" y="87"/>
      <point x="459" y="110" type="curve"/>
      <point x="544" y="154"/>
      <point x="591" y="219"/>
      <point x="605" y="302" type="curve"/>
      <point x="541" y="444"/>
      <point x="243" y="498"/>
      <point x="243" y="577" type="curve" smooth="yes"/>
      <point x="243" y="610"/>
      <point x="332" y="664"/>
      <point x="392" y="677" type="curve"/>
      <point x="431" y="649"/>
      <point x="457" y="615"/>
      <point x="479" y="538" type="curve"/>
      <point x="559" y="528"/>
      <point x="597" y="548"/>
      <point x="611" y="597" type="curve"/>
      <point x="568" y="679"/>
      <point x="494" y="734"/>
    </contour>
    <contour>
      <point x="475" y="266" type="curve" smooth="yes"/>
      <point x="475" y="223"/>
      <point x="449" y="187"/>
      <point x="392" y="149" type="curve"/>
      <point x="310" y="188"/>
      <point x="194" y="242"/>
      <point x="183" y="296" type="curve" smooth="yes"/>
      <point x="183" y="323"/>
      <point x="247" y="369"/>
      <point x="290" y="394" type="curve"/>
      <point x="360" y="357"/>
      <point x="449" y="321"/>
    </contour>
  </outline>
</glyph>
<glyph name="dieresis" format="1">
  <advance width="379"/>
  <unicode hex="00A8"/>
  <outline>
    <contour>
      <point x="256" y="580" type="move" name="_top"/>
    </contour>
    <contour>
      <point x="157" y="758" type="curve" smooth="yes"/>
      <point x="196" y="758"/>
      <point x="226" y="728"/>
      <point x="226" y="690" type="curve" smooth="yes"/>
      <point x="226" y="653"/>
      <point x="196" y="621"/>
      <point x="157" y="621" type="curve" smooth="yes"/>
      <point x="118" y="621"/>
      <point x="87" y="653"/>
      <point x="87" y="690" type="curve" smooth="yes"/>
      <point x="87" y="728"/>
      <point x="118" y="758"/>
    </contour>
    <contour>
      <point x="373" y="674" type="curve" smooth="yes"/>
      <point x="381" y="674"/>
      <point x="389" y="682"/>
      <point x="389" y="690" type="curve" smooth="yes"/>
      <point x="389" y="699"/>
      <point x="381" y="705"/>
      <point x="373" y="705" type="curve" smooth="yes"/>
      <point x="363" y="705"/>
      <point x="354" y="699"/>
      <point x="354" y="690" type="curve" smooth="yes"/>
      <point x="354" y="682"/>
      <point x="363" y="674"/>
    </contour>
  </outline>
</glyph>
<glyph name="copyright" format="1">
  <advance width="829"/>
  <unicode hex="00A9"/>
  <outline>
    <contour>
      <point x="42" y="370" type="curve"/>
      <point x="48" y="181"/>
      <point x="151" y="28"/>
      <point x="382" y="-5" type="curve"/>
      <point x="667" y="19"/>
      <point x="792" y="195"/>
      <point x="828" y="388" type="curve"/>
      <point x="802" y="590"/>
      <point x="750" y="732"/>
      <point x="479" y="765" type="curve"/>
      <point x="217" y="732"/>
      <point x="80" y="568"/>
    </contour>
    <contour>
      <point x="767" y="386" type="curve"/>
      <point x="735" y="223"/>
      <point x="639" y="65"/>
      <point x="387" y="40" type="curve"/>
      <point x="213" y="79"/>
      <point x="120" y="185"/>
      <point x="103" y="369" type="curve"/>
      <point x="130" y="537"/>
      <point x="261" y="687"/>
      <point x="474" y="720" type="curve"/>
      <point x="704" y="671"/>
      <point x="740" y="560"/>
    </contour>
    <contour>
      <point x="629" y="477" type="curve"/>
      <point x="615" y="547"/>
      <point x="579" y="598"/>
      <point x="492" y="613" type="curve"/>
      <point x="395" y="594"/>
      <point x="319" y="531"/>
      <point x="268" y="469" type="curve"/>
      <point x="242" y="432"/>
      <point x="224" y="395"/>
      <point x="223" y="345" type="curve" smooth="yes"/>
      <point x="220" y="255"/>
      <point x="267" y="168"/>
      <point x="406" y="143" type="curve"/>
      <point x="483" y="154"/>
      <point x="572" y="198"/>
      <point x="612" y="239" type="curve"/>
      <point x="620" y="275"/>
      <point x="607" y="294"/>
      <point x="575" y="293" type="curve"/>
      <point x="537" y="259"/>
      <point x="475" y="230"/>
      <point x="423" y="215" type="curve"/>
      <point x="360" y="252"/>
      <point x="344" y="301"/>
      <point x="347" y="367" type="curve" smooth="yes"/>
      <point x="349" y="423"/>
      <point x="385" y="496"/>
      <point x="450" y="543" type="curve"/>
      <point x="471" y="547" type="line"/>
      <point x="495" y="518"/>
      <point x="509" y="491"/>
      <point x="508" y="438" type="curve"/>
      <point x="563" y="427"/>
      <point x="610" y="441"/>
    </contour>
  </outline>
</glyph>
<glyph name="ordfeminine" format="1">
  <advance width="466"/>
  <unicode hex="00AA"/>
  <outline>
    <contour>
      <point x="342" y="531" type="line"/>
      <point x="298" y="487"/>
      <point x="261" y="451"/>
      <point x="220" y="410" type="curve"/>
      <point x="197" y="425"/>
      <point x="186" y="446"/>
      <point x="186" y="483" type="curve" smooth="yes"/>
      <point x="186" y="555"/>
      <point x="225" y="636"/>
      <point x="301" y="677" type="curve"/>
      <point x="324" y="659"/>
      <point x="342" y="635"/>
      <point x="356" y="606" type="curve"/>
      <point x="385" y="635" type="line"/>
      <point x="368" y="678"/>
      <point x="334" y="732"/>
      <point x="297" y="755" type="curve"/>
      <point x="165" y="754"/>
      <point x="66" y="605"/>
      <point x="67" y="478" type="curve" smooth="yes"/>
      <point x="68" y="398"/>
      <point x="121" y="333"/>
      <point x="224" y="330" type="curve"/>
      <point x="272" y="388"/>
      <point x="332" y="457"/>
      <point x="365" y="497" type="curve"/>
    </contour>
    <contour>
      <point x="382" y="755" type="curve"/>
      <point x="372" y="736"/>
      <point x="369" y="708"/>
      <point x="369" y="670" type="curve"/>
      <point x="353" y="612" type="line"/>
      <point x="336" y="527" type="line"/>
      <point x="311" y="444" type="line"/>
      <point x="326" y="431" type="line"/>
      <point x="294" y="352" type="line"/>
      <point x="331" y="317"/>
      <point x="405" y="309"/>
      <point x="438" y="329" type="curve"/>
      <point x="436" y="427"/>
      <point x="438" y="517"/>
      <point x="444" y="595" type="curve"/>
      <point x="510" y="722" type="line"/>
      <point x="495" y="754"/>
      <point x="454" y="762"/>
    </contour>
  </outline>
</glyph>
<glyph name="guillemotleft" format="1">
  <advance width="589"/>
  <unicode hex="00AB"/>
  <outline>
    <contour>
      <point x="274" y="242" type="curve"/>
      <point x="204" y="301" type="line"/>
      <point x="144" y="354" type="line"/>
      <point x="301" y="467" type="line"/>
      <point x="338" y="523"/>
      <point x="328" y="567"/>
      <point x="289" y="583" type="curve"/>
      <point x="175" y="483" type="line"/>
      <point x="71" y="401" type="line"/>
      <point x="63" y="384"/>
      <point x="59" y="366"/>
      <point x="59" y="348" type="curve"/>
      <point x="219" y="132" type="line"/>
      <point x="259" y="132"/>
      <point x="288" y="189"/>
    </contour>
    <contour>
      <point x="511" y="242" type="curve"/>
      <point x="429" y="301" type="line"/>
      <point x="369" y="354" type="line"/>
      <point x="546" y="467" type="line"/>
      <point x="583" y="523"/>
      <point x="574" y="567"/>
      <point x="534" y="583" type="curve"/>
      <point x="425" y="498" type="line"/>
      <point x="296" y="401" type="line"/>
      <point x="288" y="384"/>
      <point x="284" y="366"/>
      <point x="284" y="348" type="curve"/>
      <point x="456" y="132" type="line"/>
      <point x="496" y="132"/>
      <point x="524" y="189"/>
    </contour>
  </outline>
</glyph>
<glyph name="logicalnot" format="1">
  <advance width="961"/>
  <unicode hex="00AC"/>
  <outline>
    <contour>
      <point x="522" y="409" type="line"/>
      <point x="89" y="414" type="line"/>
      <point x="66" y="383"/>
      <point x="62" y="350"/>
      <point x="77" y="333" type="curve"/>
      <point x="837" y="342" type="line"/>
      <point x="799" y="181" type="line"/>
      <point x="825" y="159"/>
      <point x="857" y="154"/>
      <point x="876" y="169" type="curve"/>
      <point x="917" y="365" type="line" smooth="yes"/>
      <point x="923" y="396"/>
      <point x="921" y="418"/>
      <point x="908" y="427" type="curve"/>
    </contour>
  </outline>
</glyph>
<glyph name="registered" format="1">
  <advance width="542"/>
  <unicode hex="00AE"/>
  <outline>
    <contour>
      <point x="300" y="517" type="line"/>
      <point x="304" y="465"/>
      <point x="331" y="419"/>
      <point x="383" y="391" type="curve"/>
      <point x="411" y="400"/>
      <point x="427" y="422"/>
      <point x="416" y="441" type="curve"/>
      <point x="360" y="455"/>
      <point x="339" y="474"/>
      <point x="321" y="521" type="curve"/>
    </contour>
    <contour>
      <point x="365" y="510" type="curve"/>
      <point x="412" y="535"/>
      <point x="432" y="556"/>
      <point x="432" y="596" type="curve"/>
      <point x="433" y="633"/>
      <point x="391" y="669"/>
      <point x="320" y="669" type="curve"/>
      <point x="290" y="669"/>
      <point x="264" y="666"/>
      <point x="241" y="660" type="curve"/>
      <point x="235" y="654"/>
      <point x="235" y="641"/>
      <point x="243" y="633" type="curve"/>
      <point x="262" y="631" type="line"/>
      <point x="259" y="575" type="line"/>
      <point x="249" y="518"/>
      <point x="239" y="469"/>
      <point x="220" y="407" type="curve"/>
      <point x="230" y="392"/>
      <point x="267" y="388"/>
      <point x="283" y="398" type="curve"/>
      <point x="290" y="460"/>
      <point x="294" y="503"/>
      <point x="298" y="553" type="curve"/>
      <point x="320" y="650" type="line"/>
      <point x="298" y="635" type="line"/>
      <point x="354" y="643"/>
      <point x="377" y="620"/>
      <point x="377" y="592" type="curve"/>
      <point x="377" y="571"/>
      <point x="369" y="555"/>
      <point x="350" y="540" type="curve"/>
      <point x="328" y="533"/>
      <point x="309" y="529"/>
      <point x="279" y="529" type="curve"/>
      <point x="284" y="504" type="line"/>
      <point x="315" y="505"/>
      <point x="335" y="506"/>
    </contour>
    <contour>
      <point x="90" y="522" type="curve"/>
      <point x="93" y="411"/>
      <point x="154" y="322"/>
      <point x="289" y="303" type="curve"/>
      <point x="456" y="318"/>
      <point x="529" y="420"/>
      <point x="550" y="533" type="curve"/>
      <point x="535" y="651"/>
      <point x="504" y="733"/>
      <point x="346" y="753" type="curve"/>
      <point x="192" y="733"/>
      <point x="112" y="637"/>
    </contour>
    <contour>
      <point x="515" y="532" type="curve"/>
      <point x="496" y="436"/>
      <point x="440" y="344"/>
      <point x="292" y="330" type="curve"/>
      <point x="190" y="352"/>
      <point x="135" y="414"/>
      <point x="125" y="521" type="curve"/>
      <point x="141" y="619"/>
      <point x="219" y="707"/>
      <point x="342" y="726" type="curve"/>
      <point x="477" y="698"/>
      <point x="498" y="633"/>
    </contour>
  </outline>
</glyph>
<glyph name="macron" format="1">
  <advance width="380"/>
  <unicode hex="00AF"/>
  <outline>
    <contour>
      <point x="254" y="580" type="move" name="_top"/>
    </contour>
    <contour>
      <point x="429" y="697" type="curve"/>
      <point x="266" y="680" type="line"/>
      <point x="97" y="685" type="line"/>
      <point x="74" y="655"/>
      <point x="70" y="632"/>
      <point x="85" y="616" type="curve"/>
      <point x="414" y="626" type="line"/>
      <point x="443" y="659"/>
      <point x="447" y="687"/>
    </contour>
  </outline>
</glyph>
<glyph name="degree" format="1">
  <advance width="479"/>
  <unicode hex="00B0"/>
  <outline>
    <contour>
      <point x="331" y="768" type="curve" smooth="yes"/>
      <point x="211" y="768"/>
      <point x="98" y="655"/>
      <point x="99" y="565" type="curve" smooth="yes"/>
      <point x="100" y="496"/>
      <point x="188" y="427"/>
      <point x="255" y="427" type="curve"/>
      <point x="364" y="427"/>
      <point x="494" y="530"/>
      <point x="491" y="611" type="curve" smooth="yes"/>
      <point x="490" y="673"/>
      <point x="400" y="768"/>
    </contour>
    <contour>
      <point x="316" y="718" type="curve"/>
      <point x="343" y="685"/>
      <point x="363" y="646"/>
      <point x="368" y="601" type="curve"/>
      <point x="356" y="545"/>
      <point x="327" y="508"/>
      <point x="268" y="477" type="curve"/>
      <point x="245" y="503"/>
      <point x="229" y="535"/>
      <point x="227" y="575" type="curve"/>
      <point x="232" y="630"/>
      <point x="264" y="682"/>
    </contour>
  </outline>
</glyph>
<glyph name="plusminus" format="1">
  <advance width="718"/>
  <unicode hex="00B1"/>
  <outline>
    <contour>
      <point x="614" y="206" type="curve"/>
      <point x="348" y="194" type="line"/>
      <point x="79" y="199" type="line"/>
      <point x="56" y="169"/>
      <point x="52" y="135"/>
      <point x="66" y="120" type="curve"/>
      <point x="597" y="122" type="line"/>
      <point x="626" y="156"/>
      <point x="631" y="194"/>
    </contour>
    <contour>
      <point x="426" y="478" type="line"/>
      <point x="453" y="607" type="line"/>
      <point x="425" y="642"/>
      <point x="388" y="654"/>
      <point x="374" y="640" type="curve"/>
      <point x="352" y="478" type="line"/>
      <point x="126" y="486" type="line"/>
      <point x="104" y="454"/>
      <point x="98" y="423"/>
      <point x="112" y="406" type="curve"/>
      <point x="339" y="406" type="line"/>
      <point x="306" y="270" type="line"/>
      <point x="332" y="242"/>
      <point x="363" y="231"/>
      <point x="382" y="243" type="curve"/>
      <point x="412" y="406" type="line"/>
      <point x="646" y="406" type="line"/>
      <point x="675" y="440"/>
      <point x="680" y="478"/>
      <point x="663" y="490" type="curve"/>
    </contour>
  </outline>
</glyph>
<glyph name="twosuperior" format="1">
  <advance width="328"/>
  <unicode hex="00B2"/>
  <outline>
    <contour>
      <point x="265" y="479" type="line"/>
      <point x="316" y="521"/>
      <point x="342" y="556"/>
      <point x="342" y="600" type="curve" smooth="yes"/>
      <point x="342" y="666"/>
      <point x="278" y="759"/>
      <point x="219" y="759" type="curve" smooth="yes"/>
      <point x="167" y="759"/>
      <point x="113" y="718"/>
      <point x="85" y="663" type="curve"/>
      <point x="97" y="637"/>
      <point x="129" y="599"/>
      <point x="153" y="580" type="curve"/>
      <point x="162" y="581"/>
      <point x="182" y="590"/>
      <point x="188" y="601" type="curve"/>
      <point x="173" y="637" type="line"/>
      <point x="190" y="658"/>
      <point x="211" y="672"/>
      <point x="233" y="672" type="curve" smooth="yes"/>
      <point x="253" y="672"/>
      <point x="265" y="661"/>
      <point x="272" y="634" type="curve"/>
      <point x="258" y="603"/>
      <point x="239" y="580"/>
      <point x="206" y="550" type="curve" smooth="yes"/>
      <point x="43" y="404" type="line"/>
      <point x="46" y="368"/>
      <point x="68" y="336"/>
      <point x="93" y="321" type="curve"/>
      <point x="144" y="332" type="line"/>
      <point x="296" y="314" type="line"/>
      <point x="326" y="344"/>
      <point x="333" y="396"/>
      <point x="321" y="414" type="curve"/>
      <point x="163" y="389" type="line"/>
      <point x="158" y="393" type="line"/>
    </contour>
  </outline>
</glyph>
<glyph name="threesuperior" format="1">
  <advance width="328"/>
  <unicode hex="00B3"/>
  <outline>
    <contour>
      <point x="295" y="570" type="line"/>
      <point x="335" y="589"/>
      <point x="350" y="607"/>
      <point x="351" y="633" type="curve" smooth="yes"/>
      <point x="351" y="693"/>
      <point x="277" y="759"/>
      <point x="214" y="759" type="curve" smooth="yes"/>
      <point x="156" y="759"/>
      <point x="103" y="718"/>
      <point x="72" y="663" type="curve"/>
      <point x="84" y="638"/>
      <point x="115" y="603"/>
      <point x="135" y="588" type="curve"/>
      <point x="147" y="591"/>
      <point x="165" y="599"/>
      <point x="172" y="610" type="curve"/>
      <point x="156" y="645" type="line"/>
      <point x="169" y="659"/>
      <point x="186" y="670"/>
      <point x="209" y="670" type="curve" smooth="yes"/>
      <point x="231" y="670"/>
      <point x="252" y="654"/>
      <point x="259" y="615" type="curve"/>
      <point x="166" y="549" type="line"/>
      <point x="164" y="517" type="line"/>
      <point x="209" y="503"/>
      <point x="234" y="488"/>
      <point x="250" y="466" type="curve"/>
      <point x="209" y="429"/>
      <point x="155" y="409"/>
      <point x="52" y="387" type="curve"/>
      <point x="47" y="365"/>
      <point x="58" y="334"/>
      <point x="76" y="321" type="curve"/>
      <point x="219" y="333"/>
      <point x="342" y="385"/>
      <point x="347" y="452" type="curve" smooth="yes"/>
      <point x="353" y="508"/>
      <point x="284" y="536"/>
      <point x="218" y="557" type="curve"/>
      <point x="206" y="530" type="line"/>
    </contour>
  </outline>
</glyph>
<glyph name="acute" format="1">
  <advance width="231"/>
  <unicode hex="00B4"/>
  <outline>
    <contour>
      <point x="107" y="580" type="move" name="_top"/>
    </contour>
    <contour>
      <point x="184" y="813" type="curve"/>
      <point x="154" y="723" type="line"/>
      <point x="86" y="629" type="line"/>
      <point x="86" y="609"/>
      <point x="112" y="597"/>
      <point x="142" y="597" type="curve"/>
      <point x="324" y="764" type="line"/>
      <point x="309" y="806"/>
      <point x="254" y="826"/>
    </contour>
  </outline>
</glyph>
<glyph name="paragraph" format="1">
  <advance width="642"/>
  <unicode hex="00B6"/>
  <outline>
    <contour>
      <point x="531" y="730" type="line"/>
      <point x="259" y="732"/>
      <point x="85" y="681"/>
      <point x="73" y="490" type="curve" smooth="yes"/>
      <point x="68" y="382"/>
      <point x="163" y="333"/>
      <point x="301" y="326" type="curve"/>
      <point x="282" y="383" type="line"/>
      <point x="261" y="258"/>
      <point x="232" y="143"/>
      <point x="198" y="26" type="curve"/>
      <point x="221" y="-2"/>
      <point x="294" y="-13"/>
      <point x="327" y="8" type="curve"/>
      <point x="361" y="282" type="line"/>
      <point x="449" y="644" type="line"/>
      <point x="470" y="648"/>
      <point x="497" y="651"/>
      <point x="519" y="649" type="curve"/>
      <point x="469" y="359" type="line"/>
      <point x="392" y="26" type="line"/>
      <point x="414" y="-2"/>
      <point x="487" y="-13"/>
      <point x="520" y="8" type="curve"/>
      <point x="532" y="113"/>
      <point x="542" y="208"/>
      <point x="552" y="282" type="curve"/>
      <point x="622" y="611" type="line"/>
      <point x="693" y="801" type="line"/>
      <point x="657" y="832"/>
      <point x="594" y="834"/>
      <point x="548" y="822" type="curve"/>
    </contour>
  </outline>
</glyph>
<glyph name="cedilla" format="1">
  <advance width="359"/>
  <unicode hex="00B8"/>
  <outline>
    <contour>
      <point x="157" y="0" type="move" name="_bottom"/>
    </contour>
    <contour>
      <point x="98" y="26" type="line"/>
      <point x="37" y="-99" type="line"/>
      <point x="43" y="-122"/>
      <point x="70" y="-134"/>
      <point x="94" y="-134" type="curve"/>
      <point x="113" y="-120"/>
      <point x="130" y="-111"/>
      <point x="153" y="-107" type="curve"/>
      <point x="161" y="-117"/>
      <point x="167" y="-134"/>
      <point x="164" y="-151" type="curve" smooth="yes"/>
      <point x="158" y="-179"/>
      <point x="134" y="-198"/>
      <point x="89" y="-198" type="curve" smooth="yes"/>
      <point x="37" y="-198"/>
      <point x="-1" y="-178"/>
      <point x="-41" y="-137" type="curve"/>
      <point x="-56" y="-138"/>
      <point x="-68" y="-157"/>
      <point x="-67" y="-182" type="curve"/>
      <point x="-34" y="-232"/>
      <point x="36" y="-266"/>
      <point x="109" y="-267" type="curve" smooth="yes"/>
      <point x="192" y="-268"/>
      <point x="257" y="-225"/>
      <point x="272" y="-148" type="curve" smooth="yes"/>
      <point x="282" y="-87"/>
      <point x="246" y="-46"/>
      <point x="198" y="-46" type="curve" smooth="yes"/>
      <point x="171" y="-46"/>
      <point x="145" y="-57"/>
      <point x="124" y="-75" type="curve"/>
      <point x="176" y="26" type="line"/>
    </contour>
  </outline>
</glyph>
<glyph name="onesuperior" format="1">
  <advance width="245"/>
  <unicode hex="00B9"/>
  <outline>
    <contour>
      <point x="255" y="627" type="line"/>
      <point x="291" y="723" type="line"/>
      <point x="265" y="751"/>
      <point x="176" y="758"/>
      <point x="133" y="747" type="curve"/>
      <point x="69" y="633" type="line"/>
      <point x="77" y="620"/>
      <point x="107" y="614"/>
      <point x="123" y="619" type="curve"/>
      <point x="163" y="669" type="line"/>
      <point x="177" y="663" type="line"/>
      <point x="150" y="610" type="line"/>
      <point x="87" y="334" type="line"/>
      <point x="117" y="316"/>
      <point x="165" y="313"/>
      <point x="203" y="318" type="curve"/>
      <point x="210" y="422" type="line"/>
    </contour>
  </outline>
</glyph>
<glyph name="ordmasculine" format="1">
  <advance width="482"/>
  <unicode hex="00BA"/>
  <outline>
    <contour>
      <point x="75" y="495" type="curve" smooth="yes"/>
      <point x="75" y="609"/>
      <point x="188" y="754"/>
      <point x="323" y="754" type="curve" smooth="yes"/>
      <point x="400" y="754"/>
      <point x="494" y="633"/>
      <point x="496" y="553" type="curve" smooth="yes"/>
      <point x="498" y="448"/>
      <point x="362" y="318"/>
      <point x="245" y="318" type="curve"/>
      <point x="169" y="318"/>
      <point x="77" y="407"/>
    </contour>
    <contour>
      <point x="313" y="696" type="curve"/>
      <point x="248" y="647"/>
      <point x="205" y="579"/>
      <point x="198" y="506" type="curve"/>
      <point x="200" y="454"/>
      <point x="223" y="410"/>
      <point x="252" y="378" type="curve"/>
      <point x="326" y="417"/>
      <point x="365" y="467"/>
      <point x="381" y="540" type="curve"/>
      <point x="373" y="599"/>
      <point x="346" y="651"/>
    </contour>
  </outline>
</glyph>
<glyph name="guillemotright" format="1">
  <advance width="589"/>
  <unicode hex="00BB"/>
  <outline>
    <contour>
      <point x="346" y="473" type="curve"/>
      <point x="415" y="414" type="line"/>
      <point x="475" y="362" type="line"/>
      <point x="318" y="248" type="line"/>
      <point x="281" y="191"/>
      <point x="291" y="148"/>
      <point x="331" y="132" type="curve"/>
      <point x="444" y="232" type="line"/>
      <point x="548" y="313" type="line"/>
      <point x="556" y="331"/>
      <point x="560" y="349"/>
      <point x="559" y="367" type="curve"/>
      <point x="400" y="583" type="line"/>
      <point x="360" y="583"/>
      <point x="331" y="526"/>
    </contour>
    <contour>
      <point x="108" y="473" type="curve"/>
      <point x="189" y="414" type="line"/>
      <point x="250" y="362" type="line"/>
      <point x="73" y="248" type="line"/>
      <point x="37" y="191"/>
      <point x="46" y="148"/>
      <point x="86" y="132" type="curve"/>
      <point x="194" y="218" type="line"/>
      <point x="323" y="313" type="line"/>
      <point x="331" y="331"/>
      <point x="335" y="349"/>
      <point x="335" y="367" type="curve"/>
      <point x="163" y="583" type="line"/>
      <point x="124" y="583"/>
      <point x="95" y="526"/>
    </contour>
  </outline>
</glyph>
<glyph name="onequarter" format="1">
  <advance width="794"/>
  <unicode hex="00BC"/>
  <outline>
    <contour>
      <point x="728" y="380" type="line"/>
      <point x="708" y="407"/>
      <point x="677" y="420"/>
      <point x="602" y="420" type="curve" smooth="yes"/>
      <point x="590" y="420"/>
      <point x="577" y="419"/>
      <point x="563" y="417" type="curve"/>
      <point x="363" y="138" type="line"/>
      <point x="362" y="118"/>
      <point x="382" y="103"/>
      <point x="397" y="92" type="curve"/>
      <point x="542" y="98" type="line"/>
      <point x="715" y="92" type="line"/>
      <point x="728" y="104"/>
      <point x="736" y="144"/>
      <point x="730" y="161" type="curve"/>
      <point x="517" y="153" type="line"/>
      <point x="479" y="154" type="line"/>
      <point x="563" y="277" type="line"/>
      <point x="621" y="360" type="line"/>
      <point x="629" y="358" type="line"/>
      <point x="587" y="212" type="line"/>
      <point x="539" y="6" type="line"/>
      <point x="562" y="-14"/>
      <point x="616" y="-18"/>
      <point x="643" y="-10" type="curve"/>
      <point x="651" y="100" type="line"/>
      <point x="693" y="294" type="line"/>
    </contour>
    <component base="onesuperior" xOffset="32"/>
    <component base="fraction" xOffset="77"/>
  </outline>
</glyph>
<glyph name="onehalf" format="1">
  <advance width="783"/>
  <unicode hex="00BD"/>
  <outline>
    <contour>
      <point x="651" y="135" type="line"/>
      <point x="702" y="177"/>
      <point x="728" y="213"/>
      <point x="728" y="256" type="curve" smooth="yes"/>
      <point x="728" y="323"/>
      <point x="665" y="415"/>
      <point x="605" y="415" type="curve" smooth="yes"/>
      <point x="553" y="415"/>
      <point x="499" y="375"/>
      <point x="471" y="319" type="curve"/>
      <point x="483" y="293"/>
      <point x="516" y="255"/>
      <point x="539" y="237" type="curve"/>
      <point x="548" y="238"/>
      <point x="568" y="247"/>
      <point x="574" y="257" type="curve"/>
      <point x="560" y="293" type="line"/>
      <point x="577" y="314"/>
      <point x="597" y="328"/>
      <point x="619" y="328" type="curve" smooth="yes"/>
      <point x="639" y="328"/>
      <point x="652" y="317"/>
      <point x="659" y="291" type="curve"/>
      <point x="644" y="259"/>
      <point x="625" y="236"/>
      <point x="592" y="206" type="curve" smooth="yes"/>
      <point x="430" y="60" type="line"/>
      <point x="432" y="25"/>
      <point x="454" y="-8"/>
      <point x="479" y="-23" type="curve"/>
      <point x="531" y="-12" type="line"/>
      <point x="683" y="-30" type="line"/>
      <point x="712" y="0"/>
      <point x="719" y="52"/>
      <point x="707" y="70" type="curve"/>
      <point x="549" y="45" type="line"/>
      <point x="544" y="49" type="line"/>
    </contour>
    <component base="onesuperior" xOffset="33"/>
    <component base="fraction" xOffset="77"/>
  </outline>
</glyph>
<glyph name="threequarters" format="1">
  <advance width="819"/>
  <unicode hex="00BE"/>
  <outline>
    <contour>
      <point x="787" y="380" type="line"/>
      <point x="767" y="407"/>
      <point x="737" y="420"/>
      <point x="661" y="420" type="curve" smooth="yes"/>
      <point x="649" y="420"/>
      <point x="636" y="419"/>
      <point x="622" y="417" type="curve"/>
      <point x="422" y="138" type="line"/>
      <point x="421" y="118"/>
      <point x="441" y="103"/>
      <point x="456" y="92" type="curve"/>
      <point x="602" y="98" type="line"/>
      <point x="774" y="92" type="line"/>
      <point x="787" y="104"/>
      <point x="795" y="144"/>
      <point x="789" y="161" type="curve"/>
      <point x="577" y="153" type="line"/>
      <point x="539" y="154" type="line"/>
      <point x="622" y="277" type="line"/>
      <point x="681" y="360" type="line"/>
      <point x="688" y="358" type="line"/>
      <point x="645" y="212" type="line"/>
      <point x="598" y="6" type="line"/>
      <point x="621" y="-14"/>
      <point x="675" y="-18"/>
      <point x="702" y="-10" type="curve"/>
      <point x="710" y="100" type="line"/>
      <point x="751" y="294" type="line"/>
    </contour>
    <component base="threesuperior" xOffset="19"/>
    <component base="fraction" xOffset="135"/>
  </outline>
</glyph>
<glyph name="AE" format="1">
  <advance width="853"/>
  <unicode hex="00C6"/>
  <outline>
    <contour>
      <point x="669" y="741" type="curve" smooth="yes"/>
      <point x="533" y="741"/>
      <point x="403" y="732"/>
      <point x="315" y="706" type="curve"/>
      <point x="228" y="473" type="line"/>
      <point x="173" y="371" type="line"/>
      <point x="56" y="371" type="line"/>
      <point x="28" y="337"/>
      <point x="26" y="311"/>
      <point x="48" y="285" type="curve"/>
      <point x="130" y="291" type="line"/>
      <point x="-13" y="36" type="line"/>
      <point x="5" y="2"/>
      <point x="86" y="-11"/>
      <point x="143" y="12" type="curve"/>
      <point x="266" y="299" type="line"/>
      <point x="415" y="308" type="line"/>
      <point x="358" y="55" type="line"/>
      <point x="387" y="21"/>
      <point x="415" y="0"/>
      <point x="482" y="0" type="curve" smooth="yes"/>
      <point x="559" y="0"/>
      <point x="696" y="12"/>
      <point x="777" y="28" type="curve"/>
      <point x="792" y="58"/>
      <point x="808" y="122"/>
      <point x="762" y="142" type="curve"/>
      <point x="681" y="120"/>
      <point x="570" y="97"/>
      <point x="492" y="92" type="curve"/>
      <point x="492" y="161" type="line"/>
      <point x="523" y="312" type="line"/>
      <point x="616" y="322"/>
      <point x="662" y="322"/>
      <point x="752" y="315" type="curve"/>
      <point x="780" y="347"/>
      <point x="784" y="396"/>
      <point x="758" y="413" type="curve"/>
      <point x="668" y="403"/>
      <point x="604" y="395"/>
      <point x="531" y="388" type="curve"/>
      <point x="536" y="571" type="line"/>
      <point x="565" y="646" type="line"/>
      <point x="626" y="654"/>
      <point x="677" y="658"/>
      <point x="727" y="649" type="curve"/>
      <point x="794" y="592" type="line"/>
      <point x="854" y="633"/>
      <point x="879" y="697"/>
      <point x="843" y="736" type="curve"/>
      <point x="797" y="739"/>
      <point x="733" y="741"/>
    </contour>
    <contour>
      <point x="408" y="632" type="line"/>
      <point x="420" y="635" type="line"/>
      <point x="420" y="373" type="line"/>
      <point x="294" y="366" type="line"/>
    </contour>
  </outline>
</glyph>
<glyph name="Eth" format="1">
  <advance width="710"/>
  <unicode hex="00D0"/>
  <outline>
    <contour>
      <point x="417" y="437" type="curve"/>
      <point x="183" y="401" type="line"/>
      <point x="45" y="415" type="line"/>
      <point x="18" y="392"/>
      <point x="17" y="354"/>
      <point x="57" y="322" type="curve"/>
      <point x="259" y="353" type="line"/>
      <point x="432" y="351" type="line"/>
      <point x="461" y="385"/>
      <point x="449" y="424"/>
    </contour>
    <component base="D" xOffset="14"/>
  </outline>
</glyph>
<glyph name="multiply" format="1">
  <advance width="638"/>
  <unicode hex="00D7"/>
  <outline>
    <contour>
      <point x="469" y="104" type="line"/>
      <point x="502" y="94"/>
      <point x="529" y="111"/>
      <point x="541" y="152" type="curve"/>
      <point x="339" y="358" type="line"/>
      <point x="184" y="607" type="line"/>
      <point x="149" y="608"/>
      <point x="120" y="591"/>
      <point x="117" y="552" type="curve"/>
    </contour>
    <contour>
      <point x="330" y="361" type="line"/>
      <point x="62" y="161" type="line"/>
      <point x="59" y="132"/>
      <point x="72" y="111"/>
      <point x="117" y="99" type="curve"/>
      <point x="605" y="553" type="line"/>
      <point x="608" y="596"/>
      <point x="588" y="606"/>
      <point x="544" y="609" type="curve"/>
    </contour>
  </outline>
</glyph>
<glyph name="Oslash" format="1">
  <advance width="739"/>
  <unicode hex="00D8"/>
  <outline>
    <contour>
      <point x="677" y="741" type="curve"/>
      <point x="559" y="543" type="line"/>
      <point x="2" y="90" type="line"/>
      <point x="3" y="38"/>
      <point x="35" y="16"/>
      <point x="96" y="0" type="curve"/>
      <point x="202" y="173" type="line"/>
      <point x="782" y="660" type="line"/>
      <point x="778" y="706"/>
      <point x="741" y="734"/>
    </contour>
    <contour>
      <point x="72" y="310" type="curve" smooth="yes"/>
      <point x="73" y="175"/>
      <point x="205" y="0"/>
      <point x="329" y="0" type="curve" smooth="yes"/>
      <point x="478" y="0"/>
      <point x="684" y="225"/>
      <point x="682" y="390" type="curve" smooth="yes"/>
      <point x="680" y="567"/>
      <point x="546" y="750"/>
      <point x="444" y="750" type="curve" smooth="yes"/>
      <point x="256" y="750"/>
      <point x="71" y="528"/>
    </contour>
    <contour>
      <point x="435" y="673" type="curve"/>
      <point x="510" y="588"/>
      <point x="535" y="487"/>
      <point x="548" y="367" type="curve"/>
      <point x="512" y="250"/>
      <point x="443" y="149"/>
      <point x="329" y="77" type="curve"/>
      <point x="257" y="132"/>
      <point x="216" y="228"/>
      <point x="215" y="325" type="curve" smooth="yes"/>
      <point x="215" y="457"/>
      <point x="307" y="599"/>
    </contour>
  </outline>
</glyph>
<glyph name="Thorn" format="1">
  <advance width="613"/>
  <unicode hex="00DE"/>
  <outline>
    <contour>
      <point x="165" y="539" type="line"/>
      <point x="127" y="342"/>
      <point x="95" y="191"/>
      <point x="44" y="39" type="curve"/>
      <point x="67" y="2"/>
      <point x="175" y="-12"/>
      <point x="216" y="17" type="curve"/>
      <point x="233" y="169"/>
      <point x="252" y="406"/>
      <point x="273" y="582" type="curve"/>
      <point x="336" y="818" type="line"/>
      <point x="287" y="840"/>
      <point x="230" y="831"/>
      <point x="166" y="792" type="curve"/>
    </contour>
    <contour>
      <point x="242" y="508" type="line"/>
      <point x="275" y="527"/>
      <point x="329" y="548"/>
      <point x="385" y="546" type="curve"/>
      <point x="444" y="528"/>
      <point x="482" y="485"/>
      <point x="483" y="417" type="curve" smooth="yes"/>
      <point x="485" y="369"/>
      <point x="459" y="329"/>
      <point x="417" y="289" type="curve"/>
      <point x="355" y="260"/>
      <point x="290" y="257"/>
      <point x="209" y="279" type="curve"/>
      <point x="190" y="226" type="line"/>
      <point x="269" y="200"/>
      <point x="351" y="193"/>
      <point x="464" y="215" type="curve"/>
      <point x="573" y="282"/>
      <point x="623" y="339"/>
      <point x="622" y="423" type="curve" smooth="yes"/>
      <point x="621" y="532"/>
      <point x="525" y="603"/>
      <point x="400" y="625" type="curve"/>
      <point x="339" y="620"/>
      <point x="257" y="588"/>
      <point x="213" y="560" type="curve"/>
    </contour>
  </outline>
</glyph>
<glyph name="germandbls" format="1">
  <advance width="657"/>
  <unicode hex="00DF"/>
  <outline>
    <contour>
      <point x="129" y="634" type="curve"/>
      <point x="118" y="447"/>
      <point x="79" y="267"/>
      <point x="13" y="39" type="curve"/>
      <point x="32" y="2"/>
      <point x="112" y="-12"/>
      <point x="168" y="11" type="curve"/>
      <point x="202" y="253"/>
      <point x="220" y="434"/>
      <point x="241" y="626" type="curve"/>
      <point x="312" y="759" type="line"/>
      <point x="276" y="731" type="line"/>
      <point x="418" y="752"/>
      <point x="479" y="687"/>
      <point x="478" y="618" type="curve" smooth="yes"/>
      <point x="478" y="565"/>
      <point x="452" y="517"/>
      <point x="399" y="491" type="curve"/>
      <point x="334" y="510" type="line"/>
      <point x="285" y="479"/>
      <point x="262" y="407"/>
      <point x="323" y="348" type="curve"/>
      <point x="408" y="380" type="line"/>
      <point x="472" y="363"/>
      <point x="502" y="307"/>
      <point x="501" y="252" type="curve" smooth="yes"/>
      <point x="500" y="180"/>
      <point x="450" y="112"/>
      <point x="372" y="93" type="curve"/>
      <point x="321" y="168" type="line"/>
      <point x="256" y="158"/>
      <point x="217" y="111"/>
      <point x="214" y="52" type="curve"/>
      <point x="246" y="20"/>
      <point x="284" y="3"/>
      <point x="360" y="0" type="curve"/>
      <point x="521" y="28"/>
      <point x="625" y="129"/>
      <point x="627" y="248" type="curve" smooth="yes"/>
      <point x="627" y="327"/>
      <point x="577" y="409"/>
      <point x="456" y="443" type="curve"/>
      <point x="457" y="449" type="line"/>
      <point x="550" y="486"/>
      <point x="593" y="557"/>
      <point x="595" y="632" type="curve" smooth="yes"/>
      <point x="595" y="734"/>
      <point x="485" y="835"/>
      <point x="286" y="819" type="curve"/>
      <point x="199" y="780"/>
      <point x="160" y="728"/>
    </contour>
  </outline>
</glyph>
<glyph name="ae" format="1">
  <advance width="931"/>
  <unicode hex="00E6"/>
  <outline>
    <contour>
      <point x="637" y="87" type="curve"/>
      <point x="579" y="114"/>
      <point x="555" y="154"/>
      <point x="547" y="207" type="curve"/>
      <point x="653" y="228"/>
      <point x="774" y="271"/>
      <point x="871" y="318" type="curve"/>
      <point x="900" y="433"/>
      <point x="861" y="536"/>
      <point x="728" y="559" type="curve"/>
      <point x="641" y="542"/>
      <point x="581" y="497"/>
      <point x="536" y="441" type="curve"/>
      <point x="572" y="533" type="line"/>
      <point x="559" y="557"/>
      <point x="511" y="559"/>
      <point x="468" y="549" type="curve"/>
      <point x="455" y="524"/>
      <point x="450" y="493"/>
      <point x="450" y="443" type="curve"/>
      <point x="425" y="486"/>
      <point x="396" y="528"/>
      <point x="360" y="550" type="curve"/>
      <point x="174" y="546"/>
      <point x="35" y="360"/>
      <point x="37" y="201" type="curve" smooth="yes"/>
      <point x="38" y="98"/>
      <point x="101" y="19"/>
      <point x="245" y="14" type="curve"/>
      <point x="290" y="63"/>
      <point x="335" y="114"/>
      <point x="379" y="160" type="curve"/>
      <point x="389" y="150" type="line"/>
      <point x="349" y="39" type="line"/>
      <point x="364" y="6"/>
      <point x="415" y="-10"/>
      <point x="463" y="5" type="curve"/>
      <point x="479" y="119" type="line"/>
      <point x="502" y="69"/>
      <point x="548" y="27"/>
      <point x="622" y="0" type="curve"/>
      <point x="700" y="11"/>
      <point x="823" y="63"/>
      <point x="869" y="111" type="curve"/>
      <point x="876" y="157"/>
      <point x="860" y="174"/>
      <point x="823" y="173" type="curve"/>
      <point x="777" y="134"/>
      <point x="709" y="106"/>
    </contour>
    <contour>
      <point x="690" y="478" type="line"/>
      <point x="735" y="450"/>
      <point x="753" y="409"/>
      <point x="745" y="342" type="curve"/>
      <point x="685" y="313"/>
      <point x="619" y="288"/>
      <point x="544" y="267" type="curve"/>
      <point x="547" y="342"/>
      <point x="599" y="423"/>
      <point x="673" y="472" type="curve"/>
    </contour>
    <contour>
      <point x="351" y="465" type="curve"/>
      <point x="389" y="441"/>
      <point x="413" y="412"/>
      <point x="434" y="371" type="curve"/>
      <point x="423" y="342"/>
      <point x="408" y="296"/>
      <point x="404" y="257" type="curve"/>
      <point x="351" y="210"/>
      <point x="293" y="160"/>
      <point x="235" y="110" type="curve"/>
      <point x="200" y="131"/>
      <point x="188" y="164"/>
      <point x="188" y="207" type="curve" smooth="yes"/>
      <point x="188" y="315"/>
      <point x="247" y="419"/>
    </contour>
  </outline>
</glyph>
<glyph name="eth" format="1">
  <advance width="554"/>
  <unicode hex="00F0"/>
  <outline>
    <contour>
      <point x="270" y="782" type="curve"/>
      <point x="360" y="685" type="line"/>
      <point x="433" y="522"/>
      <point x="451" y="243"/>
      <point x="255" y="77" type="curve"/>
      <point x="200" y="112"/>
      <point x="173" y="165"/>
      <point x="173" y="238" type="curve" smooth="yes"/>
      <point x="173" y="323"/>
      <point x="216" y="406"/>
      <point x="306" y="458" type="curve"/>
      <point x="355" y="429"/>
      <point x="381" y="391"/>
      <point x="411" y="336" type="curve"/>
      <point x="446" y="366" type="line"/>
      <point x="416" y="433"/>
      <point x="384" y="498"/>
      <point x="319" y="542" type="curve"/>
      <point x="152" y="511"/>
      <point x="37" y="370"/>
      <point x="36" y="240" type="curve" smooth="yes"/>
      <point x="35" y="123"/>
      <point x="115" y="18"/>
      <point x="260" y="0" type="curve"/>
      <point x="450" y="75"/>
      <point x="522" y="245"/>
      <point x="523" y="428" type="curve" smooth="yes"/>
      <point x="524" y="585"/>
      <point x="453" y="738"/>
      <point x="350" y="834" type="curve"/>
      <point x="303" y="833"/>
      <point x="277" y="822"/>
    </contour>
    <contour>
      <point x="548" y="782" type="curve"/>
      <point x="368" y="702" type="line"/>
      <point x="217" y="679" type="line"/>
      <point x="200" y="647"/>
      <point x="206" y="622"/>
      <point x="251" y="598" type="curve"/>
      <point x="447" y="675" type="line"/>
      <point x="585" y="707" type="line"/>
      <point x="601" y="745"/>
      <point x="586" y="771"/>
    </contour>
  </outline>
</glyph>
<glyph name="divide" format="1">
  <advance width="752"/>
  <unicode hex="00F7"/>
  <outline>
    <contour>
      <point x="717" y="397" type="curve"/>
      <point x="396" y="379" type="line"/>
      <point x="73" y="384" type="line"/>
      <point x="51" y="353"/>
      <point x="47" y="321"/>
      <point x="61" y="304" type="curve"/>
      <point x="701" y="313" type="line"/>
      <point x="729" y="347"/>
      <point x="733" y="386"/>
    </contour>
    <contour>
      <point x="332" y="94" type="curve"/>
      <point x="366" y="94"/>
      <point x="406" y="119"/>
      <point x="431" y="154" type="curve"/>
      <point x="426" y="192"/>
      <point x="391" y="234"/>
      <point x="364" y="234" type="curve"/>
      <point x="325" y="228"/>
      <point x="288" y="185"/>
      <point x="281" y="143" type="curve"/>
      <point x="285" y="114"/>
      <point x="306" y="94"/>
    </contour>
    <contour>
      <point x="394" y="459" type="curve"/>
      <point x="428" y="459"/>
      <point x="469" y="484"/>
      <point x="493" y="520" type="curve"/>
      <point x="489" y="556"/>
      <point x="454" y="599"/>
      <point x="426" y="599" type="curve"/>
      <point x="387" y="594"/>
      <point x="350" y="551"/>
      <point x="344" y="509" type="curve"/>
      <point x="347" y="479"/>
      <point x="368" y="459"/>
    </contour>
  </outline>
</glyph>
<glyph name="oslash" format="1">
  <advance width="634"/>
  <unicode hex="00F8"/>
  <outline>
    <contour>
      <point x="194" y="149" type="line"/>
      <point x="70" y="0" type="line"/>
      <point x="21" y="7"/>
      <point x="2" y="29"/>
      <point x="-4" y="74" type="curve"/>
      <point x="457" y="400" type="line"/>
      <point x="588" y="571" type="line"/>
      <point x="627" y="564"/>
      <point x="653" y="537"/>
      <point x="651" y="501" type="curve"/>
    </contour>
    <contour>
      <point x="74" y="239" type="curve" smooth="yes"/>
      <point x="74" y="362"/>
      <point x="221" y="561"/>
      <point x="381" y="561" type="curve" smooth="yes"/>
      <point x="470" y="561"/>
      <point x="580" y="401"/>
      <point x="582" y="302" type="curve" smooth="yes"/>
      <point x="583" y="168"/>
      <point x="415" y="0"/>
      <point x="276" y="0" type="curve"/>
      <point x="189" y="0"/>
      <point x="74" y="113"/>
    </contour>
    <contour>
      <point x="364" y="487" type="curve"/>
      <point x="273" y="425"/>
      <point x="220" y="336"/>
      <point x="208" y="242" type="curve"/>
      <point x="210" y="173"/>
      <point x="237" y="115"/>
      <point x="285" y="73" type="curve"/>
      <point x="383" y="124"/>
      <point x="434" y="190"/>
      <point x="455" y="285" type="curve"/>
      <point x="448" y="363"/>
      <point x="416" y="432"/>
    </contour>
  </outline>
</glyph>
<glyph name="thorn" format="1">
  <advance width="603"/>
  <unicode hex="00FE"/>
  <outline>
    <contour>
      <point x="207" y="406" type="line"/>
      <point x="243" y="470" type="line"/>
      <point x="254" y="582" type="line"/>
      <point x="317" y="819" type="line"/>
      <point x="266" y="839"/>
      <point x="220" y="835"/>
      <point x="146" y="791" type="curve"/>
      <point x="141" y="539" type="line"/>
      <point x="103" y="238"/>
      <point x="58" y="17"/>
      <point x="-23" y="-240" type="curve"/>
      <point x="13" y="-278"/>
      <point x="81" y="-288"/>
      <point x="144" y="-264" type="curve"/>
      <point x="171" y="-128"/>
      <point x="209" y="213"/>
      <point x="232" y="382" type="curve" smooth="yes"/>
    </contour>
    <contour>
      <point x="172" y="0" type="line"/>
      <point x="360" y="23"/>
      <point x="539" y="125"/>
      <point x="592" y="323" type="curve"/>
      <point x="568" y="456"/>
      <point x="519" y="525"/>
      <point x="358" y="550" type="curve"/>
      <point x="295" y="489"/>
      <point x="243" y="420"/>
      <point x="177" y="336" type="curve"/>
      <point x="215" y="291" type="line"/>
      <point x="268" y="359"/>
      <point x="313" y="408"/>
      <point x="364" y="448" type="curve"/>
      <point x="419" y="425"/>
      <point x="443" y="393"/>
      <point x="453" y="330" type="curve"/>
      <point x="435" y="207"/>
      <point x="335" y="102"/>
      <point x="157" y="71" type="curve"/>
    </contour>
  </outline>
</glyph>
<glyph name="Aogonek" format="1">
  <advance width="670"/>
  <unicode hex="0104"/>
  <outline>
    <contour>
      <point x="561" y="6" type="curve"/>
      <point x="561" y="33"/>
      <point x="551" y="45"/>
      <point x="521" y="50" type="curve"/>
      <point x="443" y="30"/>
      <point x="322" y="-44"/>
      <point x="322" y="-131" type="curve" smooth="yes"/>
      <point x="322" y="-183"/>
      <point x="398" y="-229"/>
      <point x="473" y="-229" type="curve" smooth="yes"/>
      <point x="555" y="-229"/>
      <point x="611" y="-199"/>
      <point x="653" y="-154" type="curve"/>
      <point x="652" y="-126"/>
      <point x="639" y="-112"/>
      <point x="618" y="-112" type="curve"/>
      <point x="587" y="-136"/>
      <point x="547" y="-151"/>
      <point x="509" y="-151" type="curve" smooth="yes"/>
      <point x="475" y="-151"/>
      <point x="448" y="-138"/>
      <point x="434" y="-115" type="curve"/>
      <point x="451" y="-57"/>
      <point x="503" y="-10"/>
    </contour>
    <component base="A"/>
  </outline>
</glyph>
<glyph name="aogonek" format="1">
  <advance width="622"/>
  <unicode hex="0105"/>
  <outline>
    <contour>
      <point x="499" y="1" type="curve"/>
      <point x="502" y="30"/>
      <point x="491" y="49"/>
      <point x="452" y="51" type="curve"/>
      <point x="341" y="21"/>
      <point x="269" y="-58"/>
      <point x="269" y="-125" type="curve" smooth="yes"/>
      <point x="269" y="-182"/>
      <point x="321" y="-229"/>
      <point x="413" y="-229" type="curve" smooth="yes"/>
      <point x="476" y="-229"/>
      <point x="534" y="-202"/>
      <point x="573" y="-154" type="curve"/>
      <point x="571" y="-126"/>
      <point x="561" y="-112"/>
      <point x="532" y="-113" type="curve"/>
      <point x="483" y="-154"/>
      <point x="415" y="-164"/>
      <point x="359" y="-136" type="curve"/>
      <point x="369" y="-70"/>
      <point x="425" y="-19"/>
    </contour>
    <component base="a"/>
  </outline>
</glyph>
<glyph name="dcaron" format="1">
  <advance width="684"/>
  <unicode hex="010F"/>
  <outline>
    <contour>
      <point x="710" y="655" type="curve"/>
      <point x="784" y="714"/>
      <point x="836" y="795"/>
      <point x="843" y="872" type="curve"/>
      <point x="826" y="917"/>
      <point x="763" y="956"/>
      <point x="698" y="906" type="curve"/>
      <point x="719" y="769" type="line"/>
      <point x="661" y="681" type="line"/>
      <point x="669" y="663"/>
      <point x="686" y="655"/>
    </contour>
    <component base="d"/>
  </outline>
</glyph>
<glyph name="Eogonek" format="1">
  <advance width="594"/>
  <unicode hex="0118"/>
  <outline>
    <contour>
      <point x="510" y="27" type="curve"/>
      <point x="515" y="51"/>
      <point x="498" y="64"/>
      <point x="476" y="66" type="curve"/>
      <point x="368" y="39"/>
      <point x="258" y="-41"/>
      <point x="258" y="-119" type="curve" smooth="yes"/>
      <point x="258" y="-181"/>
      <point x="327" y="-229"/>
      <point x="415" y="-229" type="curve" smooth="yes"/>
      <point x="486" y="-229"/>
      <point x="543" y="-199"/>
      <point x="582" y="-154" type="curve"/>
      <point x="582" y="-129"/>
      <point x="572" y="-114"/>
      <point x="546" y="-115" type="curve"/>
      <point x="513" y="-142"/>
      <point x="472" y="-157"/>
      <point x="434" y="-157" type="curve" smooth="yes"/>
      <point x="397" y="-157"/>
      <point x="369" y="-146"/>
      <point x="352" y="-126" type="curve"/>
      <point x="364" y="-59"/>
      <point x="445" y="3"/>
    </contour>
    <component base="E"/>
  </outline>
</glyph>
<glyph name="eogonek" format="1">
  <advance width="559"/>
  <unicode hex="0119"/>
  <outline>
    <contour>
      <point x="366" y="29" type="curve"/>
      <point x="370" y="58"/>
      <point x="353" y="71"/>
      <point x="324" y="71" type="curve"/>
      <point x="196" y="37"/>
      <point x="121" y="-47"/>
      <point x="121" y="-116" type="curve" smooth="yes"/>
      <point x="121" y="-177"/>
      <point x="184" y="-229"/>
      <point x="279" y="-229" type="curve" smooth="yes"/>
      <point x="362" y="-229"/>
      <point x="427" y="-191"/>
      <point x="459" y="-145" type="curve"/>
      <point x="459" y="-119"/>
      <point x="447" y="-105"/>
      <point x="417" y="-107" type="curve"/>
      <point x="382" y="-136"/>
      <point x="337" y="-152"/>
      <point x="294" y="-152" type="curve" smooth="yes"/>
      <point x="263" y="-152"/>
      <point x="227" y="-144"/>
      <point x="211" y="-122" type="curve"/>
      <point x="229" y="-58"/>
      <point x="303" y="9"/>
    </contour>
    <component base="e"/>
  </outline>
</glyph>
<glyph name="Gcommaaccent" format="1">
  <advance width="683"/>
  <unicode hex="0122"/>
  <outline>
    <contour>
      <point x="276" y="-293" type="curve"/>
      <point x="350" y="-234"/>
      <point x="402" y="-154"/>
      <point x="409" y="-77" type="curve"/>
      <point x="392" y="-31"/>
      <point x="329" y="8"/>
      <point x="264" y="-43" type="curve"/>
      <point x="284" y="-180" type="line"/>
      <point x="226" y="-267" type="line"/>
      <point x="234" y="-285"/>
      <point x="252" y="-294"/>
    </contour>
    <component base="G"/>
  </outline>
</glyph>
<glyph name="gcommaaccent" format="1">
  <advance width="600"/>
  <unicode hex="0123"/>
  <outline>
    <contour>
      <point x="410" y="894" type="curve"/>
      <point x="341" y="810"/>
      <point x="301" y="714"/>
      <point x="317" y="623" type="curve"/>
      <point x="346" y="586"/>
      <point x="422" y="572"/>
      <point x="473" y="640" type="curve"/>
      <point x="426" y="772" type="line"/>
      <point x="470" y="875" type="line"/>
      <point x="457" y="893"/>
      <point x="437" y="899"/>
    </contour>
    <component base="g"/>
  </outline>
</glyph>
<glyph name="Iogonek" format="1">
  <advance width="283"/>
  <unicode hex="012E"/>
  <outline>
    <contour>
      <point x="175" y="7" type="curve"/>
      <point x="176" y="28"/>
      <point x="166" y="42"/>
      <point x="137" y="41" type="curve"/>
      <point x="44" y="20"/>
      <point x="-40" y="-48"/>
      <point x="-40" y="-123" type="curve" smooth="yes"/>
      <point x="-40" y="-180"/>
      <point x="20" y="-230"/>
      <point x="111" y="-230" type="curve" smooth="yes"/>
      <point x="178" y="-230"/>
      <point x="242" y="-200"/>
      <point x="278" y="-154" type="curve"/>
      <point x="281" y="-128"/>
      <point x="269" y="-114"/>
      <point x="240" y="-115" type="curve"/>
      <point x="209" y="-142"/>
      <point x="169" y="-156"/>
      <point x="131" y="-156" type="curve" smooth="yes"/>
      <point x="101" y="-156"/>
      <point x="73" y="-147"/>
      <point x="53" y="-127" type="curve"/>
      <point x="57" y="-65"/>
      <point x="129" y="-12"/>
    </contour>
    <component base="I"/>
  </outline>
</glyph>
<glyph name="iogonek" format="1">
  <advance width="286"/>
  <unicode hex="012F"/>
  <outline>
    <contour>
      <point x="185" y="7" type="curve"/>
      <point x="186" y="31"/>
      <point x="180" y="42"/>
      <point x="156" y="48" type="curve"/>
      <point x="44" y="31"/>
      <point x="-31" y="-46"/>
      <point x="-31" y="-119" type="curve" smooth="yes"/>
      <point x="-31" y="-176"/>
      <point x="20" y="-229"/>
      <point x="127" y="-229" type="curve" smooth="yes"/>
      <point x="203" y="-229"/>
      <point x="259" y="-195"/>
      <point x="292" y="-154" type="curve"/>
      <point x="291" y="-130"/>
      <point x="279" y="-116"/>
      <point x="255" y="-115" type="curve"/>
      <point x="225" y="-142"/>
      <point x="181" y="-157"/>
      <point x="141" y="-157" type="curve" smooth="yes"/>
      <point x="110" y="-157"/>
      <point x="81" y="-149"/>
      <point x="60" y="-132" type="curve"/>
      <point x="69" y="-71"/>
      <point x="121" y="-21"/>
    </contour>
    <component base="i"/>
  </outline>
</glyph>
<glyph name="dotlessi" format="1">
  <advance width="283"/>
  <unicode hex="0131"/>
  <outline>
    <contour>
      <point x="204" y="580" type="move" name="top"/>
    </contour>
    <contour>
      <point x="170" y="0" type="move" name="ogonek"/>
    </contour>
    <contour>
      <point x="111" y="348" type="line"/>
      <point x="89" y="243"/>
      <point x="63" y="146"/>
      <point x="25" y="42" type="curve"/>
      <point x="56" y="2"/>
      <point x="142" y="-12"/>
      <point x="193" y="14" type="curve"/>
      <point x="202" y="151"/>
      <point x="208" y="262"/>
      <point x="221" y="376" type="curve"/>
      <point x="265" y="529" type="line"/>
      <point x="226" y="560"/>
      <point x="176" y="555"/>
      <point x="106" y="524" type="curve"/>
    </contour>
  </outline>
</glyph>
<glyph name="Kcommaaccent" format="1">
  <advance width="660"/>
  <unicode hex="0136"/>
  <outline>
    <contour>
      <point x="241" y="-293" type="curve"/>
      <point x="316" y="-234"/>
      <point x="368" y="-154"/>
      <point x="375" y="-77" type="curve"/>
      <point x="358" y="-31"/>
      <point x="295" y="8"/>
      <point x="230" y="-43" type="curve"/>
      <point x="250" y="-180" type="line"/>
      <point x="192" y="-267" type="line"/>
      <point x="200" y="-285"/>
      <point x="218" y="-294"/>
    </contour>
    <component base="K"/>
  </outline>
</glyph>
<glyph name="kcommaaccent" format="1">
  <advance width="575"/>
  <unicode hex="0137"/>
  <outline>
    <contour>
      <point x="221" y="-293" type="curve"/>
      <point x="296" y="-234"/>
      <point x="348" y="-154"/>
      <point x="354" y="-77" type="curve"/>
      <point x="338" y="-31"/>
      <point x="275" y="8"/>
      <point x="210" y="-43" type="curve"/>
      <point x="230" y="-180" type="line"/>
      <point x="172" y="-267" type="line"/>
      <point x="180" y="-285"/>
      <point x="198" y="-294"/>
    </contour>
    <component base="k"/>
  </outline>
</glyph>
<glyph name="Lcommaaccent" format="1">
  <advance width="527"/>
  <unicode hex="013B"/>
  <outline>
    <contour>
      <point x="187" y="-293" type="curve"/>
      <point x="262" y="-234"/>
      <point x="314" y="-154"/>
      <point x="320" y="-77" type="curve"/>
      <point x="304" y="-31"/>
      <point x="240" y="8"/>
      <point x="176" y="-43" type="curve"/>
      <point x="196" y="-180" type="line"/>
      <point x="138" y="-267" type="line"/>
      <point x="146" y="-285"/>
      <point x="163" y="-294"/>
    </contour>
    <component base="L"/>
  </outline>
</glyph>
<glyph name="lcommaaccent" format="1">
  <advance width="302"/>
  <unicode hex="013C"/>
  <outline>
    <contour>
      <point x="52" y="-293" type="curve"/>
      <point x="126" y="-234"/>
      <point x="178" y="-154"/>
      <point x="185" y="-77" type="curve"/>
      <point x="169" y="-31"/>
      <point x="105" y="8"/>
      <point x="40" y="-43" type="curve"/>
      <point x="61" y="-180" type="line"/>
      <point x="3" y="-267" type="line"/>
      <point x="11" y="-285"/>
      <point x="28" y="-294"/>
    </contour>
    <component base="l"/>
  </outline>
</glyph>
<glyph name="Lcaron" format="1">
  <advance width="527"/>
  <unicode hex="013D"/>
  <outline>
    <contour>
      <point x="418" y="566" type="curve"/>
      <point x="493" y="625"/>
      <point x="545" y="706"/>
      <point x="551" y="783" type="curve"/>
      <point x="535" y="828"/>
      <point x="472" y="867"/>
      <point x="407" y="817" type="curve"/>
      <point x="427" y="680" type="line"/>
      <point x="369" y="593" type="line"/>
      <point x="377" y="575"/>
      <point x="395" y="566"/>
    </contour>
    <component base="L"/>
  </outline>
</glyph>
<glyph name="lcaron" format="1">
  <advance width="359"/>
  <unicode hex="013E"/>
  <outline>
    <contour>
      <point x="385" y="655" type="curve"/>
      <point x="459" y="714"/>
      <point x="511" y="795"/>
      <point x="518" y="872" type="curve"/>
      <point x="502" y="917"/>
      <point x="438" y="956"/>
      <point x="373" y="906" type="curve"/>
      <point x="394" y="769" type="line"/>
      <point x="336" y="681" type="line"/>
      <point x="344" y="663"/>
      <point x="361" y="655"/>
    </contour>
    <component base="l"/>
  </outline>
</glyph>
